<svg width="124" height="45" xmlns="http://www.w3.org/2000/svg" xmlns:xlink="http://www.w3.org/1999/xlink"><svg width="110.5" height="13.25" viewBox="-1 -1 219 24.5" y="12.52" xmlns="http://www.w3.org/2000/svg"><path data-name="CÓMPRALAS AQUÍ" d="M8.46 21.5a7.478 7.478 0 005.49-1.94 6.8 6.8 0 002.06-4.39h-4.24a3.165 3.165 0 01-3.34 2.86c-2.54 0-4.13-2.28-4.13-5.43 0-3.12 1.32-5.44 4.11-5.44a3.1 3.1 0 013.24 2.71h4.24a6.738 6.738 0 00-2.56-4.73 8.053 8.053 0 00-4.9-1.51c-5.11 0-8.44 3.86-8.44 8.97 0 5.14 3.43 8.9 8.47 8.9zM24.2 3.13h2.98L29.72.01h-4.49zm1.61 14.94c-2.76 0-4.17-2.37-4.17-5.49s1.41-5.52 4.17-5.52c2.78 0 4.15 2.4 4.15 5.52s-1.37 5.49-4.15 5.49zm-.02 3.46c5.2 0 8.49-3.82 8.49-8.95s-3.29-8.95-8.49-8.95-8.47 3.81-8.47 8.95 3.28 8.95 8.47 8.95zm10.63-.41h3.82v-8.61c0-.7-.07-3.46-.07-3.46h.05s.6 2.59.79 3.22l2.44 8.85h3.51l2.47-8.88c.19-.62.79-3.19.79-3.19h.05s-.07 2.74-.07 3.43v8.64h3.88V3.97h-5.76l-2.11 7.51c-.28 1.08-.96 3.91-.96 3.91h-.04s-.68-2.83-.99-3.91l-2.09-7.51h-5.71v17.15zm20.5 0h4.32v-5.73h4.01a5.422 5.422 0 005.81-5.62 5.637 5.637 0 00-1.73-4.22 6.506 6.506 0 00-4.68-1.58h-7.73v17.15zm4.32-9.09V7.54h3.15a2.126 2.126 0 012.4 2.21 2.167 2.167 0 01-2.4 2.28h-3.15zm11.82 9.09h4.24v-6.43h2.57a2.509 2.509 0 012.85 2.45c.27 1.7.2 3.72.65 3.98h4.13v-.22c-.6-.21-.36-2.37-.72-4.63a3.434 3.434 0 00-2.5-3.14v-.07a4.116 4.116 0 002.98-4.15c0-3.19-2.59-4.94-6-4.94h-8.2v17.15zm4.24-9.57V7.32h3.29c1.63 0 2.45.89 2.45 2.14 0 1.3-.87 2.09-2.55 2.09H77.3zm11.14 9.57h4.27l.99-3.09h5.99l1.01 3.09h4.46L98.98 3.97h-4.37zm6.24-6.14L96 10.83c.29-.89.7-2.43.7-2.43h.04s.39 1.54.68 2.43l1.29 4.15h-4.03zm12.17 6.14h11.95v-3.6h-7.7V3.97h-4.25v17.15zm12.85 0h4.27l.98-3.09h6l1.01 3.09h4.46l-6.19-17.15h-4.37zm6.23-6.14l1.32-4.15c.29-.89.7-2.43.7-2.43h.05s.38 1.54.67 2.43l1.29 4.15h-4.03zm19.01 6.55c3.96 0 7.03-1.99 7.03-5.59 0-3.67-2.88-4.66-6.07-5.4-2.56-.58-3.88-.86-3.88-2.06 0-.96.98-1.61 2.47-1.61 1.58 0 2.59.74 2.76 2.06h4.15c-.17-3.6-3.05-5.28-6.77-5.28-3.84 0-6.81 1.61-6.81 5.28 0 3.6 3.14 4.51 6.12 5.21 2.35.57 3.74.86 3.74 2.23 0 1.3-1.37 1.8-2.76 1.8-2.04 0-3.17-.72-3.36-2.45h-4.27c.1 3.79 3.1 5.81 7.65 5.81zm12.25-.41h4.27l.99-3.09h5.99l1.01 3.09h4.46l-6.19-17.15h-4.36zm6.24-6.14l1.32-4.15c.29-.89.69-2.43.69-2.43h.05s.39 1.54.67 2.43l1.3 4.15h-4.03zm19.94 3.09c-2.75 0-4.15-2.37-4.15-5.49s1.4-5.52 4.15-5.52c2.79 0 4.13 2.4 4.13 5.52a7.6 7.6 0 01-.6 3.17l-1.58-1.52-1.97 2.04 1.56 1.52a3.952 3.952 0 01-1.54.28zm6.46 4.44l1.97-2.09-1.95-1.82a9.423 9.423 0 001.97-6.02c0-5.14-3.26-8.95-8.47-8.95-5.18 0-8.44 3.81-8.44 8.95s3.26 8.95 8.44 8.95a8.646 8.646 0 004.32-1.08zm11.21-1.08c4.78 0 7.15-2.4 7.15-6.36V3.97h-4.24v11.18a2.647 2.647 0 01-2.91 2.88c-2.08 0-2.95-1.13-2.95-2.81V3.97h-4.24v11.1c0 4.01 2.39 6.36 7.19 6.36zm9.9-.31h4.24V3.97h-4.24v17.15zm.52-17.99h2.98l2.54-3.12h-4.48z" fill="#b6c2d3" fill-rule="evenodd"/></svg><svg width="32.32" height="12.52" viewBox="-1 -1 32.32 12.52" x="83.81" y="25.77" xmlns="http://www.w3.org/2000/svg"><g data-name="Layer 2"><path d="M8.13 9.37C5.74 10.37 2 11.51.42 9c-.87-1.38-.32-3.52 1-5.48A28.5 28.5 0 014.31 0c-.58.94-2.23 4.07-.07 5.64.84.6 2.32.66 4.15.19L30.32.09z" data-name="Layer 1"/></g></svg><svg width="123.19" height="12.52" viewBox="-1 -1 123.19 12.52" xmlns="http://www.w3.org/2000/svg"><g data-name="Layer 2"><path d="M67 9.53v.9a.09.09 0 01-.1.09h-15c-.06 0-.08 0-.08-.07V8.72a.13.13 0 01.07-.11l12-7.36c.13-.09.07-.2-.07-.2H52.06C52 1.05 52 1 52 1V.06s0-.06.06-.06h14.6s.07 0 .07.06v1.69a.12.12 0 01-.07.11l-12 7.39c-.1.06-.1.21.08.21h12.14c.05 0 .12.02.12.07zm17.25-6.21v3.87c0 1.88-1.48 3.33-5 3.33h-7c-3.58 0-4.8-1.45-4.8-3.33V3.32C67.47 1.7 68.74 0 72.27 0h7c3.48 0 4.98 1.7 4.98 3.32zm-2.72-.61c0-1-.78-1.66-2-1.66H72c-1.26 0-1.8.63-1.8 1.66v5.11c0 1 .56 1.64 1.8 1.64h7.49c1.26 0 2-.67 2-1.64zm20.68.61v3.87c0 1.88-1.47 3.33-5 3.33h-7c-3.59 0-4.8-1.45-4.8-3.33V3.32C85.44 1.7 86.7 0 90.24 0h7c3.48 0 4.97 1.7 4.97 3.32zm-2.72-.61c0-1-.78-1.66-2-1.66H90c-1.26 0-1.81.63-1.81 1.66v5.11c0 1 .57 1.64 1.81 1.64h7.48c1.26 0 2-.67 2-1.64zm14.95 7.81h-4.3a.18.18 0 01-.15-.1l-3.6-9.28c0-.06-.06-.1-.15-.1a.11.11 0 00-.11.11v9.3a.07.07 0 01-.08.07h-2.58a.06.06 0 01-.06-.06V.07s0-.07.08-.07h4.8a.16.16 0 01.16.1l3.73 9.39a.17.17 0 00.29 0L116.13.1a.17.17 0 01.17-.1h4.79a.09.09 0 01.1.08v10.35a.09.09 0 01-.1.09h-2.54a.09.09 0 01-.08-.09V1.15a.1.1 0 00-.11-.11.14.14 0 00-.14.08l-3.65 9.3a.13.13 0 01-.13.1zM12 .06C5.36.06 0 4.59 0 10.17a.38.38 0 00.41.35H7a.38.38 0 00.41-.35c0-2.12 2-3.84 4.54-3.84s4.53 1.72 4.53 3.84a.39.39 0 00.41.35h6.6a.38.38 0 00.41-.35C23.91 4.59 18.55.06 12 .06m13.15 1.05a.38.38 0 00-.41.35v8.71a.38.38 0 00.41.35h6.6a.39.39 0 00.41-.35V1.46a.38.38 0 00-.41-.35zM33 10.17a.39.39 0 00.42.35H40a.38.38 0 00.41-.35c0-2.12 2-3.84 4.54-3.84a.38.38 0 00.4-.33V.41a.38.38 0 00-.41-.35c-6.59 0-12 4.53-12 10.11z" data-name="Layer 1"/></g></svg><svg width="83.81" height="19" viewBox="-1 -1 83.81 19" y="25.77" xmlns="http://www.w3.org/2000/svg"><g data-name="Layer 2"><path d="M0 .56V0c1.16 0 2.07.05 2.74.05h1.44L5.53 0H6a6.19 6.19 0 012.1.3 2.51 2.51 0 011.23 1 2.66 2.66 0 01.44 1.49 3.29 3.29 0 01-.37 1.5A3.38 3.38 0 018.34 5.5a4.91 4.91 0 01-1.46.74 4.28 4.28 0 01-1.18.15 6.57 6.57 0 01-1.19-.12l-.18-.64a5.54 5.54 0 001.21.17 2.55 2.55 0 001.23-.31 2.18 2.18 0 00.91-.94A3 3 0 008 3.17a2.8 2.8 0 00-.31-1.33 2 2 0 00-1-.9A3.53 3.53 0 005.17.63a6.1 6.1 0 00-1.76.29c-.05.61-.08 1.55-.08 2.84v6.57a2.76 2.76 0 00.12 1 .61.61 0 00.32.23 8 8 0 001.25.09v.54c-1.07 0-1.85-.07-2.35-.07L0 12.16v-.54a8 8 0 001.24-.09.53.53 0 00.31-.21 2 2 0 00.13-.82V1.8a3 3 0 00-.12-1 .65.65 0 00-.31-.15A8.14 8.14 0 000 .56zm17.48 10.28l-.28.61a7.93 7.93 0 01-.87.49 5.08 5.08 0 01-.93.3 4.36 4.36 0 01-1.1.13 4.49 4.49 0 01-2.06-.47 3.35 3.35 0 01-1.43-1.41 4.49 4.49 0 01-.51-2.19 5.39 5.39 0 01.27-1.77 3.31 3.31 0 01.62-1.17 4.39 4.39 0 01.81-.63 5.36 5.36 0 011-.56 3.74 3.74 0 011.47-.28 3.52 3.52 0 011.75.43 2.72 2.72 0 011.14 1.19 3.76 3.76 0 01.37 1.7v.58a8.72 8.72 0 01-1.14.21h-4.65a4.47 4.47 0 00.43 2 2.63 2.63 0 001.13 1.11 3.31 3.31 0 001.5.36 3.49 3.49 0 001.05-.17 6.49 6.49 0 001.29-.61zm-5.54-3.51h2.69a15.17 15.17 0 001.52 0v-.31a2.94 2.94 0 00-.56-2 1.87 1.87 0 00-1.48-.63 2 2 0 00-1.57.69 3.34 3.34 0 00-.6 2.25zM27.53 4.6l.07.16c-.22.34-.37.57-.44.69h-1.6a2.67 2.67 0 01.19 1 2.58 2.58 0 01-.34 1.27 3 3 0 01-1 1.06 4 4 0 01-1.4.59 5.89 5.89 0 01-1.3.09 3.63 3.63 0 00-.71.67.56.56 0 00-.1.33.52.52 0 00.13.36.62.62 0 00.38.22 6.19 6.19 0 001.38.1h1.87a3.4 3.4 0 011.48.25 1.63 1.63 0 01.74.77 2.75 2.75 0 01.24 1.17 3.32 3.32 0 01-.57 1.67 3.87 3.87 0 01-1.73 1.43 6.09 6.09 0 01-2.57.53 5 5 0 01-2-.37 2.71 2.71 0 01-1.24-1 2.38 2.38 0 01-.4-1.29 2.08 2.08 0 01.12-.71 2.94 2.94 0 01.39-.7 7.79 7.79 0 001.51-.84 2.61 2.61 0 01-.92-.43.63.63 0 01-.2-.41 4.56 4.56 0 01.26-.93c.28-.23.72-.56 1.33-1a4 4 0 01-1.2-.5 1.92 1.92 0 01-.65-.78A2.55 2.55 0 0119 7a2.79 2.79 0 01.45-1.56A3.14 3.14 0 0121 4.31a5.16 5.16 0 012-.43 3.18 3.18 0 011 .19 3.36 3.36 0 011 .56q1.66 0 2.53-.03zM23 12.26h-1.61a.86.86 0 00-.37.17c-.46.32-.7.5-.73.53a1.17 1.17 0 00-.19.35 2.77 2.77 0 00-.18 1 1.94 1.94 0 00.7 1.52 2.81 2.81 0 001.94.62 3.82 3.82 0 001.67-.36 2.64 2.64 0 001.14-1 2.39 2.39 0 00.38-1.27 2.13 2.13 0 00-.16-.83 1.22 1.22 0 00-.35-.44 1.54 1.54 0 00-.56-.27c-.13-.01-.68-.02-1.68-.02zm-2.53-5.74a3.18 3.18 0 00.23 1.18 1.73 1.73 0 001.69 1.15 2 2 0 001.31-.47 1.88 1.88 0 00.57-1.53 2.49 2.49 0 00-.57-1.71A1.88 1.88 0 0021 5a2.06 2.06 0 00-.53 1.52zm8.85-.21l-.46-.12V5.08a9 9 0 011.8-1 3.69 3.69 0 011.2-.18 3.35 3.35 0 011.65.37 2.21 2.21 0 011 1.05 3.11 3.11 0 01.23 1.31v4.11a2 2 0 00.07.59.39.39 0 00.17.19 1 1 0 00.36.06l.56.06v.48c-.47 0-.89-.06-1.24-.06s-.81 0-1.38.06v-1.5a24 24 0 01-2.09 1.48 1.83 1.83 0 01-.83.17 2.28 2.28 0 01-1.62-.55 1.94 1.94 0 01-.59-1.47 2.74 2.74 0 01.21-1.08 2.31 2.31 0 01.48-.77 2.12 2.12 0 01.58-.4 9.31 9.31 0 011.63-.5 17.67 17.67 0 012.23-.39 3 3 0 00-.2-1.27 1.66 1.66 0 00-.7-.74 2.37 2.37 0 00-1.2-.29 2.45 2.45 0 00-.89.14 1.22 1.22 0 00-.47.23l-.16.3c-.15.37-.27.63-.34.83zm4 1.34a14.88 14.88 0 00-1.92.42 3.45 3.45 0 00-1.12.48 1.08 1.08 0 00-.38.45 2 2 0 00-.23.95 1.34 1.34 0 00.36 1 1.29 1.29 0 001 .35 2.2 2.2 0 001.14-.33 4.15 4.15 0 001.13-1zm3.41 1.93h.52a7.31 7.31 0 000 .79 3 3 0 00.15.57 1.16 1.16 0 00.32.47 1.75 1.75 0 00.47.29 1.93 1.93 0 00.52.15 7.55 7.55 0 00.79 0 2.21 2.21 0 001.5-.43 1.55 1.55 0 00.57-1.27 1.11 1.11 0 00-.18-.63 1.28 1.28 0 00-.51-.43 9.82 9.82 0 00-1.43-.4A12.81 12.81 0 0138 8.33a2.32 2.32 0 01-.77-.43 2 2 0 01-.46-.65 2.2 2.2 0 01-.16-.86A2.35 2.35 0 0137 5.15a2.51 2.51 0 011.13-.92 3.88 3.88 0 011.67-.36 6.29 6.29 0 011.27.13 5 5 0 011.16.37c0 .64-.07 1.28-.09 1.93h-.49a5 5 0 00-.1-.82 1.09 1.09 0 00-.15-.35 1.27 1.27 0 00-.33-.33 2.38 2.38 0 00-.6-.31 2.6 2.6 0 00-.9-.13 1.68 1.68 0 00-1.22.44 1.39 1.39 0 00-.46 1 1.16 1.16 0 00.13.58 1 1 0 00.36.38 2.37 2.37 0 00.63.27l1.43.35a9.79 9.79 0 011.5.47 1.63 1.63 0 01.66.62 1.82 1.82 0 01.25 1 2.61 2.61 0 01-1 2 3.69 3.69 0 01-2.58.86 11.47 11.47 0 01-2-.22 2.68 2.68 0 01-.67-.11.1.1 0 010-.08.44.44 0 010-.15 5.93 5.93 0 00.1-.72c.01-.24.02-.73.03-1.47zm16.55 2.1v.48q-1.14-.06-1.71-.06c-.43 0-.86 0-1.3.06 0-.46.07-1 .08-1.55a15 15 0 00-1.23 1.12 2 2 0 01-.32.24 3.43 3.43 0 01-.74.29 3.87 3.87 0 01-.89.09 3 3 0 01-1.17-.19 2 2 0 01-.81-.57 1.87 1.87 0 01-.38-.73 3.78 3.78 0 01-.14-1.08v-.57a4.53 4.53 0 000-.52V6.11a2.83 2.83 0 00-.08-.73.26.26 0 00-.11-.14.86.86 0 00-.48-.09h-.75v-.49A8 8 0 0046 4a.51.51 0 01.21-.08.14.14 0 01.1.05.15.15 0 010 .12 1.21 1.21 0 010 .18q0 .27-.06 1.05c0 .95-.05 1.59-.05 1.91V8.9a5.36 5.36 0 00.14 1.46 1.27 1.27 0 00.55.68 1.91 1.91 0 001 .25 2.62 2.62 0 00.82-.14 2.34 2.34 0 00.74-.41 2.86 2.86 0 00.49-.53 1.83 1.83 0 00.25-.38 1.1 1.1 0 00.08-.39V6.11a3.39 3.39 0 00-.08-.73.26.26 0 00-.11-.14.86.86 0 00-.46-.09h-.75v-.49A7.89 7.89 0 0051.62 4a.54.54 0 01.22-.08.14.14 0 01.1.05.19.19 0 010 .12v.18q0 .27-.06 1.08c0 .93-.06 1.56-.06 1.88v3.57a1.61 1.61 0 00.09.63.69.69 0 00.11.13.51.51 0 00.21.09zm.9-2.1h.51a6.93 6.93 0 00.06.79 2.37 2.37 0 00.14.57 1.27 1.27 0 00.32.47 2 2 0 001 .44 7.77 7.77 0 00.8 0 2.18 2.18 0 001.44-.46 1.55 1.55 0 00.55-1.24 1.11 1.11 0 00-.18-.63 1.28 1.28 0 00-.51-.43 9.43 9.43 0 00-1.43-.4 12.81 12.81 0 01-1.41-.36 2.43 2.43 0 01-.77-.43 1.8 1.8 0 01-.45-.65 2.2 2.2 0 01-.17-.86 2.27 2.27 0 01.36-1.24 2.48 2.48 0 011.12-.92 3.93 3.93 0 011.68-.36 6.28 6.28 0 011.27.13 4.8 4.8 0 011.16.37c0 .64-.07 1.28-.08 1.93h-.49a6.55 6.55 0 00-.1-.8 1.39 1.39 0 00-.16-.35 1.38 1.38 0 00-.32-.33 2.79 2.79 0 00-.6-.31 2.67 2.67 0 00-.9-.13 1.69 1.69 0 00-1.23.44 1.43 1.43 0 00-.46 1 1.16 1.16 0 00.14.58 1 1 0 00.35.38 2.37 2.37 0 00.63.27l1.44.35a10 10 0 011.49.47 1.52 1.52 0 01.66.62 1.82 1.82 0 01.25 1 2.61 2.61 0 01-1 2 3.68 3.68 0 01-2.57.86 11.47 11.47 0 01-2-.22 2.54 2.54 0 01-.73-.18.08.08 0 010-.08 1 1 0 010-.15 4.45 4.45 0 00.1-.72c.06-.19.07-.68.09-1.42zm11.29 2.32c-.08-.49-.15-.86-.21-1.12s-.17-.64-.39-1.41l.47-.18a4.21 4.21 0 001.25 1.94 3.06 3.06 0 001.84.51 2.83 2.83 0 001.39-.32 2.42 2.42 0 00.92-1 3.58 3.58 0 00.35-1.6 2.5 2.5 0 00-.61-1.82 2.17 2.17 0 00-1.65-.64 3.22 3.22 0 00-.64.07 7.53 7.53 0 00-.89.31l-.1-.09.19-.92h.92a1.93 1.93 0 001.63-.73 2.63 2.63 0 00.57-1.66 1.9 1.9 0 00-.6-1.41 2.14 2.14 0 00-1.54-.58 2.64 2.64 0 00-1.08.22 3.18 3.18 0 00-.92.6c-.1.21-.27.62-.49 1.22h-.54l.54-2A4 4 0 0167 .4a4.4 4.4 0 011.8-.4 3.33 3.33 0 012.31.76A2.41 2.41 0 0172 2.64a2.78 2.78 0 01-.44 1.45A5.65 5.65 0 0170 5.55a4.22 4.22 0 011.56.45 2.13 2.13 0 01.88.88 2.63 2.63 0 01.3 1.26 3.6 3.6 0 01-.65 2 4.83 4.83 0 01-1.83 1.62 5.18 5.18 0 01-2.54.64 4.86 4.86 0 01-1.11-.11 6.59 6.59 0 01-1.14-.39zm8.76.26L74 12q.31-.44 1.71-2.64.47-.72 2.28-3.66c.5-.79 1.16-1.92 2-3.38.08-.13.18-.31.31-.56l-.08-.09h-4.3a4.49 4.49 0 00-1.06.11.31.31 0 00-.16.11l-.07.1-.25 1.86h-.51V.2L74 .13c.46 0 1.09.08 1.89.11L78 .3q1.08 0 3.84-.12v.51l-1.27 2.18c-.27.47-.9 1.64-1.92 3.49C78 7.66 77.33 8.87 76.8 10c-.41.85-.72 1.57-1 2.18h-.83a7.46 7.46 0 00-.74-.02z" data-name="Layer 1"/></g></svg></svg>