<svg width="289" height="95" xmlns="http://www.w3.org/2000/svg" xmlns:xlink="http://www.w3.org/1999/xlink"><svg width="227" height="25.33" viewBox="-1 -1 452 48.66" y="27.05" xmlns="http://www.w3.org/2000/svg"><path data-name="CÓMPRALAS AQUÍ" d="M17.56 44.573c5.03 0 8.66-1.394 11.39-4.031a14.014 14.014 0 004.28-9.105h-8.8a6.552 6.552 0 01-6.92 5.921c-5.27 0-8.56-4.727-8.56-11.244 0-6.468 2.74-11.295 8.51-11.295a6.439 6.439 0 016.72 5.623h8.8a13.9 13.9 0 00-5.32-9.8 16.561 16.561 0 00-10.15-3.134C6.91 7.508 0 15.518 0 26.116c0 10.645 7.11 18.457 17.56 18.457zM50.22 6.461h6.17l5.27-6.467h-9.3zm3.33 31c-5.72 0-8.66-4.926-8.66-11.394s2.94-11.444 8.66-11.444c5.77 0 8.61 4.976 8.61 11.444s-2.84 11.391-8.61 11.391zm-.05 7.164c10.8 0 17.62-7.911 17.62-18.558S64.3 7.509 53.5 7.509c-10.74 0-17.56 7.91-17.56 18.558s6.82 18.555 17.56 18.555zm22.06-.846h7.92V25.915c0-1.443-.15-7.165-.15-7.165h.1s1.24 5.373 1.64 6.667l5.07 18.359h7.27l5.12-18.409c.4-1.293 1.64-6.617 1.64-6.617h.1s-.15 5.672-.15 7.115v17.911h8.06V8.202h-11.94l-4.38 15.573c-.59 2.239-1.99 8.11-1.99 8.11h-.1s-1.39-5.871-2.04-8.11L87.41 8.202H75.56v35.574zm42.52 0h8.95V31.885h8.31c7.32 0 12.04-4.826 12.04-11.642a11.676 11.676 0 00-3.58-8.757c-2.19-2.09-5.37-3.284-9.7-3.284h-16.02v35.574zm8.95-18.856v-9.305h6.52c3.14 0 4.98 1.742 4.98 4.578s-1.79 4.727-4.98 4.727h-6.52zm24.5 18.856h8.81V30.442h5.32c3.78 0 5.47 1.791 5.92 5.075.55 3.533.4 7.712 1.35 8.259h8.55v-.447c-1.24-.448-.74-4.926-1.49-9.6-.5-3.532-2.09-5.473-5.17-6.518v-.149a8.517 8.517 0 006.17-8.608c0-6.617-5.38-10.249-12.44-10.249h-17.02v35.574zm8.81-19.852v-8.756h6.81c3.39 0 5.08 1.841 5.08 4.428 0 2.687-1.79 4.328-5.28 4.328h-6.61zm23.1 19.852h8.86l2.04-6.418h12.44l2.09 6.418h9.25L205.28 8.205h-9.05zm12.94-12.737l2.73-8.607c.6-1.841 1.45-5.025 1.45-5.025h.1s.79 3.184 1.39 5.025l2.69 8.607h-8.36zm25.24 12.737h24.78v-7.463h-15.97V8.202h-8.81v35.574zm26.64 0h8.85l2.04-6.418h12.44l2.09 6.418h9.26L270.1 8.205h-9.06zm12.93-12.737l2.74-8.607c.6-1.841 1.44-5.025 1.44-5.025h.1s.8 3.184 1.39 5.025l2.69 8.607h-8.36zm39.43 13.583c8.21 0 14.58-4.129 14.58-11.592 0-7.613-5.97-9.653-12.59-11.2-5.33-1.194-8.06-1.791-8.06-4.279 0-1.99 2.04-3.334 5.12-3.334 3.29 0 5.38 1.543 5.72 4.279H314c-.35-7.463-6.32-10.946-14.03-10.946-7.96 0-14.13 3.334-14.13 10.946 0 7.463 6.52 9.354 12.69 10.8 4.87 1.194 7.76 1.791 7.76 4.627 0 2.687-2.84 3.732-5.72 3.732-4.23 0-6.57-1.493-6.97-5.075h-8.85c.19 7.86 6.41 12.039 15.87 12.039zm25.4-.846h8.85l2.04-6.418h12.44l2.09 6.418h9.25L347.86 8.205h-9.06zm12.93-12.737l2.74-8.607c.59-1.841 1.44-5.025 1.44-5.025h.1s.8 3.184 1.39 5.025l2.69 8.607h-8.36zm41.37 6.419c-5.73 0-8.61-4.926-8.61-11.394s2.88-11.444 8.61-11.444c5.77 0 8.55 4.976 8.55 11.444a15.717 15.717 0 01-1.24 6.567l-3.28-3.134-4.08 4.229 3.23 3.135a8.05 8.05 0 01-3.18.594zm13.38 9.2l4.08-4.328-4.03-3.782a19.49 19.49 0 004.08-12.488c0-10.648-6.77-18.558-17.56-18.558-10.75 0-17.52 7.91-17.52 18.558s6.77 18.558 17.52 18.558a17.832 17.832 0 008.95-2.239zm23.26-2.239c9.9 0 14.82-4.975 14.82-13.185V8.202h-8.8v23.186c0 3.482-1.94 5.97-6.02 5.97-4.33 0-6.12-2.338-6.12-5.821V8.202h-8.81v23.036c0 8.309 4.98 13.185 14.93 13.185zm20.51-.647h8.81V8.202h-8.81v35.574zm1.1-37.315h6.17l5.27-6.468h-9.3z" fill="#b6c2d3" fill-rule="evenodd"/></svg><svg width="73.76" height="27.07" viewBox="-1 -1 73.76 27.07" x="195.62" y="52.38" xmlns="http://www.w3.org/2000/svg"><g data-name="Layer 2"><path d="M19.24 22.32C13.58 24.7 4.7 27.43 1 21.51c-2.06-3.28-.75-8.39 2.29-13.06A68.2 68.2 0 0110.21 0C8.82 2.23 4.92 9.71 10 13.44c2 1.43 5.48 1.58 9.84.45L71.76.22z" data-name="Layer 1"/></g></svg><svg width="288.82" height="27.05" viewBox="-1 -1 288.82 27.05" xmlns="http://www.w3.org/2000/svg"><g data-name="Layer 2"><path d="M158.47 22.71v2.14a.21.21 0 01-.23.2h-35.61c-.16 0-.2-.07-.2-.17v-4.1a.3.3 0 01.16-.27L150.9 3c.31-.2.15-.46-.16-.46h-27.52c-.12 0-.16-.07-.16-.11V.13c0-.1 0-.13.16-.13h34.55c.11 0 .15 0 .15.13v4.05a.28.28 0 01-.15.26l-28.43 17.61c-.24.13-.24.5.2.5h28.74c.11 0 .19.03.19.16zm40.91-14.79v9.22c0 4.47-3.49 7.91-11.89 7.91H171c-8.48 0-11.35-3.44-11.35-7.91V7.92C159.69 4 162.67 0 171 0h16.45c8.4 0 11.93 4 11.93 7.92zM193 6.45c0-2.31-1.85-3.94-4.83-3.94h-17.76c-3 0-4.28 1.5-4.28 3.94v12.19c0 2.3 1.33 3.91 4.28 3.91h17.71c3 0 4.83-1.61 4.83-3.91zm48.91 1.47v9.22c0 4.47-3.5 7.91-11.9 7.91h-16.45c-8.48 0-11.35-3.44-11.35-7.91V7.92c0-3.88 3-7.92 11.35-7.92H230c8.37 0 11.91 4 11.91 7.92zm-6.44-1.47c0-2.31-1.85-3.94-4.83-3.94h-17.71c-3 0-4.28 1.5-4.28 3.94v12.19c0 2.3 1.33 3.91 4.28 3.91h17.71c3 0 4.83-1.61 4.83-3.91zm35.37 18.6h-10.17a.4.4 0 01-.35-.23L251.8 2.71a.34.34 0 00-.35-.24.28.28 0 00-.28.27v22.14a.18.18 0 01-.2.17h-6.08a.15.15 0 01-.16-.13V.17c0-.1 0-.17.2-.17h11.34a.4.4 0 01.4.23l8.83 22.38a.38.38 0 00.67 0L274.85.23a.39.39 0 01.39-.23h11.35a.21.21 0 01.23.2v24.65a.21.21 0 01-.23.2h-6a.2.2 0 01-.2-.2V2.74a.26.26 0 00-.27-.27.3.3 0 00-.32.2l-8.63 22.15a.33.33 0 01-.33.23zM28.3.15C12.69.15 0 11 0 24.22a.91.91 0 001 .83h15.59a.9.9 0 001-.83c0-5 4.82-9.13 10.74-9.13S39 19.19 39 24.22a.91.91 0 001 .83h15.62a.9.9 0 001-.83C56.59 11 43.9.15 28.3.15m31.22 2.49a.9.9 0 00-1 .83v20.75a.9.9 0 001 .83h15.61a.91.91 0 001-.83V3.47a.91.91 0 00-1-.83zm18.54 21.58a.91.91 0 001 .83h15.59a.9.9 0 001-.83c0-5 4.82-9.13 10.74-9.13a.9.9 0 001-.83V1a.9.9 0 00-1-.83c-15.6 0-28.3 10.8-28.3 24.07z" data-name="Layer 1"/></g></svg><svg width="195.62" height="42.5" viewBox="-1 -1 195.62 42.5" y="52.38" xmlns="http://www.w3.org/2000/svg"><g data-name="Layer 2"><path d="M0 1.34V0q4.11.16 6.49.16h3.4l3.2-.1h1a14.83 14.83 0 015.11.71A6 6 0 0122.08 3a6.3 6.3 0 011 3.56 8 8 0 01-.87 3.56 8.24 8.24 0 01-2.52 3 10.85 10.85 0 01-3.45 1.76 9.5 9.5 0 01-2.78.37 15.28 15.28 0 01-2.78-.25l-.43-1.53a14.22 14.22 0 002.86.41 6 6 0 002.89-.8 5.1 5.1 0 002.15-2.23 7.17 7.17 0 00.76-3.31 6.78 6.78 0 00-.74-3.16 4.87 4.87 0 00-2.27-2.14 8.4 8.4 0 00-3.69-.73 14.07 14.07 0 00-4.16.69Q7.88 4.36 7.88 9v10.22q0 2.78.06 5.4a6.62 6.62 0 00.3 2.3 1.43 1.43 0 00.76.54 15.35 15.35 0 002.95.21V29c-2.52-.1-4.37-.16-5.56-.16-.46 0-2.59.06-6.39.16v-1.3a15.39 15.39 0 002.94-.21 1.4 1.4 0 00.74-.49A5.28 5.28 0 004 25c0-.28 0-2.21.08-5.78V9.79C4.06 8 4 6.14 4 4.38a6.55 6.55 0 00-.29-2.29A1.36 1.36 0 003 1.56a14.26 14.26 0 00-3-.22zm41.36 24.48l-.65 1.46a18.72 18.72 0 01-2.06 1.17 13.52 13.52 0 01-2.2.72 11.51 11.51 0 01-2.6.29A10.47 10.47 0 0129 28.34 7.78 7.78 0 0125.58 25a10.71 10.71 0 01-1.21-5.22 12.94 12.94 0 01.63-4.23 8 8 0 011.46-2.78 10.37 10.37 0 011.84-1.5 12.72 12.72 0 012.47-1.33 9 9 0 013.49-.68 8.32 8.32 0 014.14 1 6.48 6.48 0 012.71 2.83 9.34 9.34 0 01.89 4.1 12.8 12.8 0 01-.09 1.38 23.39 23.39 0 01-2.64.37c-1.47.11-2.94.16-4.41.16h-6.59a10.22 10.22 0 001 4.71A6.14 6.14 0 0032 26.47a7.77 7.77 0 003.54.86 8.19 8.19 0 002.48-.4A16.52 16.52 0 0041 25.47zm-13.09-8.35c.38 0 1.1.08 2.17.12 2 .07 3.43.1 4.2.1 1.81 0 3 0 3.58-.1v-.75a7.07 7.07 0 00-1.31-4.71 4.42 4.42 0 00-3.5-1.5 4.7 4.7 0 00-3.73 1.64q-1.39 1.65-1.41 5.2zM65.16 11l.16.39c-.53.8-.88 1.35-1 1.65h-3.8a6.31 6.31 0 01.48 2.21 6.19 6.19 0 01-.81 3 7.15 7.15 0 01-2.35 2.53 9.19 9.19 0 01-3.31 1.41 13.41 13.41 0 01-3.09.21 8.36 8.36 0 00-1.72 1.6 1.48 1.48 0 00-.23.79 1.35 1.35 0 00.3.87 1.6 1.6 0 00.91.52 14.91 14.91 0 003.27.24l4.41-.08a8 8 0 013.5.6 3.75 3.75 0 011.77 1.83 6.55 6.55 0 01.57 2.78 7.94 7.94 0 01-1.38 4.27 9.37 9.37 0 01-4.09 3.42 14.48 14.48 0 01-6.09 1.25 11.73 11.73 0 01-4.8-.88 6.43 6.43 0 01-2.93-2.34 5.49 5.49 0 01-1-3.07 5.1 5.1 0 01.27-1.68 7.17 7.17 0 01.93-1.68 18.68 18.68 0 003.58-2 5.79 5.79 0 01-2.18-1 1.4 1.4 0 01-.48-1 11.15 11.15 0 01.61-2.2c.67-.56 1.72-1.35 3.15-2.36a9.39 9.39 0 01-2.81-1.2 4.53 4.53 0 01-1.54-1.85 5.93 5.93 0 01-.55-2.57A6.66 6.66 0 0146 12.94a7.51 7.51 0 013.57-2.67 12.51 12.51 0 014.66-1 7.81 7.81 0 012.65.45A8.36 8.36 0 0159.26 11h5.9zM54.44 29.2c-2 0-3.31 0-3.82.08a2.14 2.14 0 00-.88.41c-1.08.76-1.65 1.18-1.72 1.26a3 3 0 00-.45.84 6.65 6.65 0 00-.43 2.31 4.68 4.68 0 001.67 3.62 6.69 6.69 0 004.58 1.48 9 9 0 004-.87A6.2 6.2 0 0060 36a5.72 5.72 0 001-3 5 5 0 00-.4-2 3.07 3.07 0 00-.81-1.06 3.69 3.69 0 00-1.32-.63c-.38-.07-1.71-.1-4.03-.11zm-6-13.66a7.59 7.59 0 00.56 2.81 4.18 4.18 0 001.6 2 4.28 4.28 0 002.4.7A4.66 4.66 0 0056.09 20a4.47 4.47 0 001.35-3.63 5.91 5.91 0 00-1.35-4.08 4.43 4.43 0 00-6.43-.29 4.91 4.91 0 00-1.21 3.54zM69.39 15l-1.09-.29v-2.65a22.65 22.65 0 014.25-2.28 9 9 0 012.84-.42 8.09 8.09 0 013.92.87 5.43 5.43 0 012.37 2.51 7.41 7.41 0 01.53 3.11l-.08 3.73v6.07a4.19 4.19 0 00.17 1.4.89.89 0 00.38.45 2.38 2.38 0 00.86.16l1.33.12V29c-1.12-.09-2.1-.14-2.94-.14s-1.91.05-3.27.14l.1-3.58c-2.78 2.09-4.42 3.27-4.94 3.53a4.22 4.22 0 01-2 .4A5.38 5.38 0 0168 28a4.6 4.6 0 01-1.38-3.49 6.65 6.65 0 01.49-2.51 5.63 5.63 0 011.15-1.84 4.87 4.87 0 011.37-1 21.92 21.92 0 013.85-1.18 48 48 0 015.28-.98 7.1 7.1 0 00-.47-3 3.89 3.89 0 00-1.65-1.77 5.48 5.48 0 00-2.84-.7 6.15 6.15 0 00-2.11.33 3.36 3.36 0 00-1.12.55l-.37.73c-.36.79-.64 1.43-.81 1.86zm9.37 3.19a39.54 39.54 0 00-4.53 1 8.92 8.92 0 00-2.66 1.14 2.86 2.86 0 00-.81 1 4.74 4.74 0 00-.54 2.26 3.17 3.17 0 00.84 2.41 3.12 3.12 0 002.33.85 5.28 5.28 0 002.71-.79 10.42 10.42 0 002.66-2.35zm8.17 4.64h1.23a14.35 14.35 0 00.12 1.87 7.05 7.05 0 00.35 1.35 2.71 2.71 0 00.75 1.12 4 4 0 001.12.72 4.52 4.52 0 001.22.33 15 15 0 001.89.08A5.16 5.16 0 0097 27.2a3.65 3.65 0 001.34-3 2.74 2.74 0 00-.34-1.52 2.88 2.88 0 00-1.2-1 21.34 21.34 0 00-3.38-.95c-1.73-.4-2.85-.68-3.35-.86a5.51 5.51 0 01-1.82-1 4.21 4.21 0 01-1.07-1.54 5.12 5.12 0 01-.4-2 5.43 5.43 0 01.85-3 6 6 0 012.66-2.2 9.35 9.35 0 014-.85 14.63 14.63 0 013 .36 11.48 11.48 0 012.76.89c-.1 1.5-.17 3-.21 4.6h-1.26a12 12 0 00-.24-2 3.3 3.3 0 00-.36-.83 3 3 0 00-.77-.79 5.7 5.7 0 00-3.56-1.06 4 4 0 00-2.89 1.05 3.4 3.4 0 00-1.09 2.5 2.76 2.76 0 00.33 1.33 2.62 2.62 0 00.85.93 5.42 5.42 0 001.49.64l3.39.84a21.67 21.67 0 013.54 1.11 3.65 3.65 0 011.56 1.46 4.49 4.49 0 01.6 2.37 6.27 6.27 0 01-2.28 4.8 8.8 8.8 0 01-6.1 2 27.82 27.82 0 01-4.69-.48 7.8 7.8 0 01-1.73-.43.23.23 0 01-.08-.21 1.55 1.55 0 010-.34 13.5 13.5 0 00.24-1.71c.08-.56.12-1.72.14-3.48zm39.16 4.98V29c-1.78-.09-3.13-.14-4-.14s-2 .05-3.07.14c.08-1.09.15-2.33.19-3.7a35.61 35.61 0 00-2.92 2.67 3.35 3.35 0 01-.76.57 7 7 0 01-1.76.7 9.07 9.07 0 01-2.1.21 7.44 7.44 0 01-2.77-.45 4.86 4.86 0 01-1.9-1.39 4.63 4.63 0 01-.91-1.74 9.2 9.2 0 01-.31-2.58v-6.06q0-.54-.06-2.67a7 7 0 00-.19-1.75.66.66 0 00-.26-.33 2.16 2.16 0 00-1.08-.2h-1.78V11.1a18.4 18.4 0 006.37-1.57 1.19 1.19 0 01.51-.18.3.3 0 01.24.1.45.45 0 01.09.3v.41c-.06.43-.1 1.27-.14 2.51-.09 2.26-.13 3.78-.13 4.56v4a12.57 12.57 0 00.34 3.49A3 3 0 00111 26.3a4.45 4.45 0 002.4.6 5.81 5.81 0 001.95-.34 5.46 5.46 0 001.75-1 7.26 7.26 0 001.16-1.26 4.86 4.86 0 00.59-.9 2.54 2.54 0 00.18-.93c.07-1.19.11-2.38.11-3.56v-1.68q0-.54-.06-2.67a7 7 0 00-.19-1.75.66.66 0 00-.26-.33 2.18 2.18 0 00-1.09-.2h-1.77V11.1a18.47 18.47 0 006.37-1.57 1.19 1.19 0 01.51-.18.31.31 0 01.24.1.45.45 0 01.09.3v.41c0 .43-.09 1.3-.15 2.59-.08 2.21-.12 3.7-.12 4.48v5.6c0 1.64.07 2.6.08 2.89a4.17 4.17 0 00.23 1.48 1 1 0 00.26.32 1.24 1.24 0 00.49.21c.14.04.89.06 2.32.08zm2.13-4.98h1.22c0 .78.06 1.41.12 1.87a7.05 7.05 0 00.35 1.35 2.83 2.83 0 00.76 1.12 3.91 3.91 0 001.11.72 4.49 4.49 0 001.23.33 14.74 14.74 0 001.89.08 5.2 5.2 0 003.42-1.1 3.68 3.68 0 001.34-3 2.74 2.74 0 00-.42-1.51 2.85 2.85 0 00-1.21-1 21 21 0 00-3.38-.95c-1.73-.4-2.85-.68-3.35-.86a5.51 5.51 0 01-1.82-1 4.34 4.34 0 01-1.07-1.54 5.3 5.3 0 01-.4-2 5.43 5.43 0 01.85-3 6 6 0 012.67-2.2 9.32 9.32 0 014-.85 14.55 14.55 0 013 .36 11.48 11.48 0 012.76.89c-.1 1.5-.17 3-.21 4.6h-1.16a12 12 0 00-.24-2 3 3 0 00-.35-.83 3 3 0 00-.78-.79 5.7 5.7 0 00-3.55-1.06 4 4 0 00-2.89 1.05A3.37 3.37 0 00131 14a2.76 2.76 0 00.32 1.36 2.62 2.62 0 00.85.93 5.42 5.42 0 001.49.64l3.39.84a21 21 0 013.54 1.11 3.73 3.73 0 011.57 1.46 4.58 4.58 0 01.59 2.37 6.27 6.27 0 01-2.28 4.8 8.8 8.8 0 01-6.1 2 27.61 27.61 0 01-4.67-.52 7.79 7.79 0 01-1.74-.43.26.26 0 01-.08-.21 1.55 1.55 0 010-.34 13.5 13.5 0 00.24-1.71c.03-.55.07-1.71.1-3.47zM155 28.34c-.2-1.15-.37-2-.52-2.66-.09-.4-.4-1.52-.91-3.36l1.12-.43a10 10 0 002.95 4.63 7.19 7.19 0 004.34 1.21 6.45 6.45 0 003.3-.77 5.69 5.69 0 002.18-2.46 8.59 8.59 0 00.83-3.81 6 6 0 00-1.45-4.35 5.14 5.14 0 00-3.9-1.52 6.68 6.68 0 00-1.52.17 14.89 14.89 0 00-2.09.73l-.25-.2.45-2.2c1.09.06 1.82.1 2.19.1a4.59 4.59 0 003.85-1.75 6.25 6.25 0 001.35-3.94 4.52 4.52 0 00-1.44-3.37A5.05 5.05 0 00161.8 3a6.37 6.37 0 00-2.55.53 7.44 7.44 0 00-2.17 1.43q-.36.77-1.17 2.91h-1.26L155.91 3a9.34 9.34 0 012.58-2 10.33 10.33 0 014.33-.9 7.85 7.85 0 015.46 1.82 5.7 5.7 0 012 4.4 6.53 6.53 0 01-1 3.46 12.65 12.65 0 01-3.53 3.47 10.74 10.74 0 013.65 1 5.14 5.14 0 012.06 2.1 6.32 6.32 0 01.72 3 8.56 8.56 0 01-1.54 4.76 11.88 11.88 0 01-4.35 3.89 12.27 12.27 0 01-6 1.52 11.81 11.81 0 01-2.62-.26 15.08 15.08 0 01-2.67-.92zm20.67.66l-.43-.42c.48-.71 1.82-2.81 4-6.29.73-1.16 2.52-4.06 5.4-8.72q1.75-2.85 4.73-8.06c.18-.3.43-.75.74-1.35l-.2-.2h-6.34c-1.26 0-2.58 0-3.94.07a10 10 0 00-2.49.26.77.77 0 00-.39.26l-.16.24L176 9.2h-1.2l.1-5.35c0-.88 0-2-.1-3.34l.41-.2c1.09.09 2.58.18 4.47.26 2.45.1 4.06.14 4.82.14q2.55 0 9.09-.28v1.22l-2.94 5.19q-.94 1.7-4.53 8.31-2.52 4.63-4.4 8.63-1.42 3-2.24 5.19c-.78-.06-1.43-.1-2-.1s-1.13.04-1.81.13z" data-name="Layer 1"/></g></svg></svg>