<svg width="116" height="44" xmlns="http://www.w3.org/2000/svg" xmlns:xlink="http://www.w3.org/1999/xlink"><svg width="110.5" height="13.25" viewBox="-1 -1 219 24.5" y="11.9" xmlns="http://www.w3.org/2000/svg"><path data-name="CÓMPRALAS AQUÍ" d="M8.48 21.508a7.475 7.475 0 005.49-1.943 6.736 6.736 0 002.06-4.391h-4.24a3.157 3.157 0 01-3.34 2.855c-2.54 0-4.12-2.279-4.12-5.422 0-3.119 1.32-5.446 4.1-5.446a3.109 3.109 0 013.24 2.711h4.24a6.725 6.725 0 00-2.56-4.726 8.014 8.014 0 00-4.9-1.512c-5.11 0-8.44 3.863-8.44 8.973 0 5.134 3.43 8.901 8.47 8.901zM24.22 3.13h2.98L29.74.012h-4.48zm1.61 14.947c-2.76 0-4.17-2.375-4.17-5.494s1.41-5.518 4.17-5.518c2.79 0 4.15 2.4 4.15 5.518s-1.36 5.494-4.15 5.494zm-.02 3.455c5.2 0 8.49-3.815 8.49-8.949s-3.29-8.949-8.49-8.949c-5.18 0-8.47 3.815-8.47 8.949s3.29 8.949 8.47 8.949zm10.64-.408h3.81v-8.613c0-.7-.07-3.455-.07-3.455h.05s.6 2.591.79 3.215l2.45 8.853h3.5l2.47-8.877c.19-.624.79-3.191.79-3.191h.05s-.07 2.735-.07 3.431v8.637h3.88V3.97h-5.75l-2.12 7.509c-.28 1.08-.95 3.911-.95 3.911h-.05s-.67-2.831-.99-3.911L42.16 3.97h-5.71v17.154zm20.5 0h4.31v-5.73h4.01a5.419 5.419 0 005.81-5.614 5.647 5.647 0 00-1.73-4.222 6.516 6.516 0 00-4.68-1.584h-7.72v17.15zm4.31-9.093V7.545h3.15a2.125 2.125 0 012.4 2.207 2.167 2.167 0 01-2.4 2.279h-3.15zm11.82 9.093h4.24v-6.43h2.57a2.524 2.524 0 012.86 2.447c.26 1.7.19 3.719.64 3.983h4.13v-.216c-.6-.216-.36-2.375-.72-4.63a3.441 3.441 0 00-2.49-3.143v-.072a4.1 4.1 0 002.97-4.151c0-3.19-2.59-4.942-6-4.942h-8.2v17.154zm4.24-9.573V7.329h3.29c1.63 0 2.45.888 2.45 2.135 0 1.3-.87 2.087-2.55 2.087h-3.19zm11.14 9.573h4.27l.99-3.095h6l1 3.095h4.47L99 3.97h-4.37zm6.24-6.142l1.32-4.15c.29-.888.7-2.423.7-2.423h.05s.38 1.535.67 2.423l1.29 4.15H94.7zm12.18 6.142h11.94v-3.6h-7.7V3.97h-4.24v17.154zm12.84 0h4.27l.98-3.095h6l1.01 3.095h4.46L130.25 3.97h-4.37zm6.24-6.142l1.32-4.15c.28-.888.69-2.423.69-2.423h.05s.38 1.535.67 2.423l1.3 4.15h-4.03zm19.01 6.55c3.95 0 7.03-1.991 7.03-5.59 0-3.671-2.88-4.654-6.07-5.4-2.57-.576-3.89-.864-3.89-2.063 0-.96.98-1.608 2.47-1.608 1.58 0 2.59.744 2.76 2.063h4.15c-.17-3.6-3.05-5.278-6.77-5.278-3.83 0-6.81 1.608-6.81 5.278 0 3.6 3.14 4.511 6.12 5.207 2.35.575 3.74.863 3.74 2.231 0 1.295-1.37 1.8-2.76 1.8-2.04 0-3.16-.72-3.36-2.447h-4.27c.1 3.792 3.1 5.807 7.66 5.807zm12.24-.408h4.27l.99-3.095h5.99l1.01 3.095h4.46L167.74 3.97h-4.36zm6.24-6.142l1.32-4.15c.29-.888.7-2.423.7-2.423h.04s.39 1.535.68 2.423l1.29 4.15h-4.03zm19.95 3.095c-2.76 0-4.15-2.375-4.15-5.494s1.39-5.518 4.15-5.518c2.78 0 4.12 2.4 4.12 5.518a7.579 7.579 0 01-.6 3.167l-1.58-1.512-1.97 2.04 1.56 1.511a3.865 3.865 0 01-1.53.288zm6.45 4.439l1.97-2.088-1.95-1.823a9.362 9.362 0 001.97-6.022c0-5.134-3.26-8.949-8.47-8.949-5.18 0-8.44 3.815-8.44 8.949s3.26 8.949 8.44 8.949a8.584 8.584 0 004.32-1.08zm11.21-1.08c4.78 0 7.15-2.4 7.15-6.358V3.97h-4.24v11.18a2.647 2.647 0 01-2.91 2.879c-2.08 0-2.95-1.127-2.95-2.807V3.97h-4.24v11.108c0 4.007 2.4 6.358 7.19 6.358zm9.9-.312h4.24V3.97h-4.24v17.154zm.53-17.994h2.97L217 .012h-4.48z" fill="#b6c2d3" fill-rule="evenodd"/></svg><svg width="30.41" height="11.9" viewBox="-1 -1 30.41 11.9" x="78.66" y="25.15" xmlns="http://www.w3.org/2000/svg"><g data-name="Layer 2"><path d="M7.62 8.82c-2.24.94-5.76 2-7.22-.32-.82-1.3-.3-3.32.9-5.16A27.59 27.59 0 014 0c-.51.88-2 3.83 0 5.31.79.56 2.17.62 3.9.18L28.41.09z" data-name="Layer 1"/></g></svg><svg width="115.56" height="11.9" viewBox="-1 -1 115.56 11.9" xmlns="http://www.w3.org/2000/svg"><g data-name="Layer 2"><path d="M62.74 9v.85a.08.08 0 01-.09.08h-14.1c-.06 0-.08 0-.08-.07V8.21a.13.13 0 01.07-.11l11.2-6.93c.13-.07.07-.18-.06-.18h-10.9a.06.06 0 01-.06 0V.05h13.74s.07 0 .07.05v1.6a.13.13 0 01-.07.11l-11.25 7c-.09 0-.09.2.08.2h11.38s.07-.09.07-.01zm16.2-5.87v3.64c0 1.77-1.38 3.13-4.71 3.13h-6.51c-3.36 0-4.49-1.36-4.49-3.13V3.13C63.23 1.6 64.41 0 67.72 0h6.51c3.31 0 4.71 1.6 4.71 3.13zm-2.55-.58c0-.91-.73-1.56-1.91-1.56h-7c-1.18 0-1.69.59-1.69 1.56v4.81c0 .91.52 1.55 1.69 1.55h7c1.18 0 1.91-.64 1.91-1.55zm19.39.58v3.64c0 1.77-1.39 3.13-4.71 3.13h-6.52c-3.35 0-4.49-1.36-4.49-3.13V3.13C80.06 1.6 81.24 0 84.55 0h6.52c3.31 0 4.71 1.6 4.71 3.13zm-2.55-.58c0-.91-.73-1.56-1.91-1.56h-7c-1.19 0-1.7.59-1.7 1.56v4.81c0 .91.53 1.55 1.7 1.55h7c1.18 0 1.91-.64 1.91-1.55zm14 7.35h-4a.16.16 0 01-.14-.1L99.7 1.07a.15.15 0 00-.14-.07.1.1 0 00-.11.1v8.73a.07.07 0 01-.08.07H97a.06.06 0 01-.06-.06V.07S96.91 0 97 0h4.5a.15.15 0 01.15.09l3.5 8.84a.14.14 0 00.26 0l3.41-8.84A.17.17 0 01109 0h4.49a.09.09 0 01.09.08v9.74a.08.08 0 01-.09.08h-2.38a.08.08 0 01-.08-.08V1.08a.1.1 0 00-.11-.1c-.06 0-.11 0-.12.08l-3.44 8.74a.13.13 0 01-.13.1zM11.2.06C5 .06 0 4.32 0 9.57a.36.36 0 00.39.33h6.18A.36.36 0 007 9.57C7 7.58 8.86 6 11.2 6s4.25 1.62 4.25 3.61a.37.37 0 00.39.33H22a.37.37 0 00.39-.33c0-5.25-5-9.51-11.21-9.51m12.39.9a.36.36 0 00-.39.33v8.2a.36.36 0 00.39.33h6.18a.36.36 0 00.38-.33V1.37a.36.36 0 00-.38-.37zm7.34 8.57a.36.36 0 00.38.33h6.18a.36.36 0 00.39-.33c0-2 1.91-3.61 4.25-3.61a.37.37 0 00.39-.33V.39a.37.37 0 00-.39-.33c-6.18 0-11.2 4.26-11.2 9.51z" data-name="Layer 1"/></g></svg><svg width="78.66" height="18" viewBox="-1 -1 78.66 18" y="25.15" xmlns="http://www.w3.org/2000/svg"><g data-name="Layer 2"><path d="M0 .53V0h5.57a5.76 5.76 0 012 .28 2.36 2.36 0 011.15.9 2.42 2.42 0 01.41 1.4A3.18 3.18 0 018.81 4a3.26 3.26 0 01-1 1.19 4.37 4.37 0 01-1.36.69 3.8 3.8 0 01-1.1.12 5.7 5.7 0 01-1.12-.1l-.17-.6a5.36 5.36 0 001.13.16 2.42 2.42 0 001.15-.29 2 2 0 00.85-.88A2.75 2.75 0 007.5 3a2.6 2.6 0 00-.3-1.25 2 2 0 00-.9-.87A3.37 3.37 0 004.84.6a5.67 5.67 0 00-1.65.27c0 .57-.07 1.46-.07 2.67v6.19a2.48 2.48 0 00.11.9.54.54 0 00.3.22 6.45 6.45 0 001.17.08v.52c-1 0-1.73-.07-2.2-.07l-2.5.07v-.52a6.3 6.3 0 001.16-.08.62.62 0 00.3-.19 2.27 2.27 0 00.12-.78V1.73a2.55 2.55 0 00-.11-.91.52.52 0 00-.3-.2A5.3 5.3 0 000 .53zm16.38 9.67l-.26.58a8.59 8.59 0 01-.82.46 4.45 4.45 0 01-.87.28 4.46 4.46 0 01-3-.32 3.13 3.13 0 01-1.34-1.33 4.21 4.21 0 01-.48-2.06 5.14 5.14 0 01.29-1.67A3.37 3.37 0 0110.48 5a4.26 4.26 0 01.73-.59 4.66 4.66 0 011-.52 3.47 3.47 0 011.38-.27 3.35 3.35 0 011.64.41 2.51 2.51 0 011.07 1.12 3.58 3.58 0 01.34 1.6v.55a9.57 9.57 0 01-1.05.14c-.58 0-1.16.07-1.75.07h-2.6a4.13 4.13 0 00.4 1.86 2.5 2.5 0 001.06 1.05 3.18 3.18 0 001.41.34 3.4 3.4 0 001-.16 7 7 0 001.21-.58zm-5.19-3.3h3.94v-.3a2.77 2.77 0 00-.52-1.86 1.78 1.78 0 00-1.39-.59 1.85 1.85 0 00-1.47.65 3.17 3.17 0 00-.56 2.1zM25.8 4.33l.06.15c-.21.32-.34.53-.41.65H24a2.57 2.57 0 01.18.9 2.39 2.39 0 01-.32 1.19 2.85 2.85 0 01-.93 1 3.88 3.88 0 01-1.31.56 5.88 5.88 0 01-1.22.08 3.94 3.94 0 00-.67.62.72.72 0 00-.08.32.51.51 0 00.11.34.58.58 0 00.36.2 5.54 5.54 0 001.3.1h1.74a3.15 3.15 0 011.39.24 1.44 1.44 0 01.7.72 2.57 2.57 0 01.23 1.1 3.15 3.15 0 01-.55 1.68 3.6 3.6 0 01-1.62 1.36 5.86 5.86 0 01-2.41.49 4.71 4.71 0 01-1.9-.35 2.61 2.61 0 01-1.16-.92 2.22 2.22 0 01-.38-1.22 2.08 2.08 0 01.11-.66 2.47 2.47 0 01.37-.66 7.31 7.31 0 001.41-.79 2.51 2.51 0 01-.86-.41.6.6 0 01-.19-.39 4 4 0 01.25-.87c.26-.22.67-.53 1.24-.93a3.72 3.72 0 01-1.12-.47A1.83 1.83 0 0118 7.6a2.45 2.45 0 01-.22-1 2.63 2.63 0 01.42-1.47 3 3 0 011.42-1.05 4.93 4.93 0 011.84-.41 3 3 0 011.05.18 3.28 3.28 0 01.94.53zm-4.25 7.21h-1.51a.82.82 0 00-.35.16l-.68.5a1 1 0 00-.17.33 2.41 2.41 0 00-.17.91 1.87 1.87 0 00.65 1.43 2.66 2.66 0 001.82.59 3.58 3.58 0 001.57-.35 2.49 2.49 0 001.06-.93 2.28 2.28 0 00.36-1.18 1.83 1.83 0 00-.16-.78 1.07 1.07 0 00-.32-.42 1.48 1.48 0 00-.52-.25c-.13 0-.66-.01-1.58-.01zm-2.37-5.4a2.85 2.85 0 00.22 1.11 1.63 1.63 0 00.63.81 1.7 1.7 0 00.95.27 1.91 1.91 0 001.23-.44 1.8 1.8 0 00.53-1.44 2.37 2.37 0 00-.53-1.61 1.77 1.77 0 00-2.55-.11 1.94 1.94 0 00-.48 1.41zm8.29-.2L27 5.82V4.78a8.16 8.16 0 011.69-.9 3.29 3.29 0 011.12-.17 3.2 3.2 0 011.55.34 2.15 2.15 0 01.94 1 3 3 0 01.21 1.23v3.87a1.84 1.84 0 00.06.56.4.4 0 00.16.18.88.88 0 00.34.06l.52.05v.46c-.44 0-.83-.06-1.16-.06s-.76 0-1.3.06v-1.42c-1.1.83-1.75 1.29-1.95 1.4a1.81 1.81 0 01-.78.15 2.09 2.09 0 01-1.52-.52 1.77 1.77 0 01-.55-1.37 2.61 2.61 0 01.19-1 2.35 2.35 0 01.48-.76 1.83 1.83 0 01.54-.39 8.52 8.52 0 011.52-.47 17.65 17.65 0 012.09-.37A2.78 2.78 0 0031 5.52a1.53 1.53 0 00-.66-.7 2.16 2.16 0 00-1.12-.27 2.66 2.66 0 00-.84.12 1.41 1.41 0 00-.44.22l-.14.29c-.15.32-.26.57-.33.76zm3.71 1.26a17.31 17.31 0 00-1.79.39 3.58 3.58 0 00-1.05.41 1.26 1.26 0 00-.33.41 1.93 1.93 0 00-.21.9 1.25 1.25 0 00.34.93 1.23 1.23 0 00.92.33 2.06 2.06 0 001.07-.31 4.39 4.39 0 001.05-.93zM34.42 9h.48c0 .31 0 .56.05.74a3.18 3.18 0 00.14.53 1.27 1.27 0 00.3.45 1.57 1.57 0 00.44.28 2.09 2.09 0 00.49.13 6.61 6.61 0 00.74 0 2.07 2.07 0 001.36-.43A1.47 1.47 0 0039 9.56a1.08 1.08 0 00-.17-.6 1.16 1.16 0 00-.47-.4A8.6 8.6 0 0037 8.18a13.29 13.29 0 01-1.33-.34 2.23 2.23 0 01-.72-.41 1.58 1.58 0 01-.42-.61 1.94 1.94 0 01-.16-.8 2.15 2.15 0 01.33-1.17A2.39 2.39 0 0135.73 4a3.72 3.72 0 011.57-.34 6.14 6.14 0 011.18.14 5.39 5.39 0 011.09.35c0 .6-.06 1.21-.08 1.82H39a6 6 0 00-.09-.77 1.66 1.66 0 00-.15-.33 1.07 1.07 0 00-.3-.31 2.26 2.26 0 00-.56-.29 2.37 2.37 0 00-.85-.13 1.56 1.56 0 00-1.14.42 1.32 1.32 0 00-.44 1 1.13 1.13 0 00.13.54 1 1 0 00.33.36 2.2 2.2 0 00.59.26L37.9 7a8.78 8.78 0 011.4.44 1.42 1.42 0 01.62.57 1.77 1.77 0 01.23.94 2.48 2.48 0 01-.9 1.9 3.5 3.5 0 01-2.41.8 10.82 10.82 0 01-1.84-.2 3.3 3.3 0 01-.69-.16.11.11 0 010-.08.71.71 0 010-.14 5.58 5.58 0 00.1-.68c-.01-.22 0-.68.01-1.39zm15.5 2v.46c-.7 0-1.24-.06-1.6-.06s-.8 0-1.21.06c0-.44.06-.93.07-1.47A13.83 13.83 0 0046 11a1.61 1.61 0 01-.3.22 3.1 3.1 0 01-.7.28 3.38 3.38 0 01-.83.08 3.18 3.18 0 01-1.1-.17 2 2 0 01-.75-.54 1.74 1.74 0 01-.36-.69 3.37 3.37 0 01-.13-1V5.75a2.63 2.63 0 00-.08-.69.26.26 0 00-.1-.13.85.85 0 00-.43-.08h-.7v-.47a6.92 6.92 0 002.52-.62.59.59 0 01.2-.07.18.18 0 01.1 0 .21.21 0 010 .12.92.92 0 010 .16v4.4a4.84 4.84 0 00.13 1.38 1.16 1.16 0 00.52.64 1.76 1.76 0 00.95.24 2.28 2.28 0 00.77-.14 1.94 1.94 0 00.69-.38 2.52 2.52 0 00.46-.5 1.83 1.83 0 00.24-.36 1 1 0 00.07-.36V5.75a2.63 2.63 0 00-.08-.69.26.26 0 00-.1-.13.85.85 0 00-.43-.08h-.7v-.47a6.92 6.92 0 002.52-.62.59.59 0 01.2-.07.18.18 0 01.1 0 .21.21 0 010 .12.92.92 0 010 .16v6.13a1.45 1.45 0 00.09.59.53.53 0 00.1.12.64.64 0 00.13.19zm.84-2h.49a6.28 6.28 0 000 .74 2.44 2.44 0 00.14.53 1.05 1.05 0 00.3.45 1.57 1.57 0 00.44.28 2.14 2.14 0 00.48.13 6.94 6.94 0 00.75 0 2 2 0 001.35-.43 1.44 1.44 0 00.53-1.19 1.08 1.08 0 00-.16-.6 1.13 1.13 0 00-.48-.4 8.26 8.26 0 00-1.34-.38A13.62 13.62 0 0152 7.84a2 2 0 01-.72-.41 1.72 1.72 0 01-.43-.61 2.11 2.11 0 01-.16-.8A2.16 2.16 0 0151 4.85 2.34 2.34 0 0152.08 4a3.67 3.67 0 011.56-.34 6.05 6.05 0 011.18.14 5.5 5.5 0 011.1.35c0 .6-.07 1.21-.08 1.82h-.47a3.66 3.66 0 00-.09-.77 1.22 1.22 0 00-.14-.33 1.13 1.13 0 00-.31-.31 2 2 0 00-.56-.29 2.32 2.32 0 00-.84-.13 1.58 1.58 0 00-1.15.42 1.31 1.31 0 00-.43 1 1.13 1.13 0 00.12.54 1.07 1.07 0 00.34.36 2.2 2.2 0 00.59.26l1.34.28a9 9 0 011.41.44 1.39 1.39 0 01.61.57 1.78 1.78 0 01.24.99 2.48 2.48 0 01-.9 1.9 3.53 3.53 0 01-2.42.8 10.93 10.93 0 01-1.85-.21 3.78 3.78 0 01-.69-.16.11.11 0 010-.08.78.78 0 010-.14 4.1 4.1 0 00.09-.68c.01-.26.02-.72.03-1.43zm10.59 2.2c-.07-.46-.14-.81-.2-1.06l-.36-1.32.44-.17a4 4 0 001.17 1.83 2.85 2.85 0 001.72.48 2.6 2.6 0 001.3-.31 2.17 2.17 0 00.86-1 3.26 3.26 0 00.34-1.51A2.33 2.33 0 0066 6.46a2 2 0 00-1.54-.6 2.77 2.77 0 00-.6.06 5.25 5.25 0 00-.83.29L63 6.13l.18-.87h.86a1.83 1.83 0 001.53-.69 2.46 2.46 0 00.53-1.56 1.79 1.79 0 00-.57-1.33 2 2 0 00-1.44-.55 2.5 2.5 0 00-1 .21 2.93 2.93 0 00-.86.57c-.09.2-.25.58-.46 1.15h-.5l.5-1.93a3.52 3.52 0 011-.79 4.08 4.08 0 011.7-.34 3.1 3.1 0 012.16.72 2.26 2.26 0 01.79 1.74A2.56 2.56 0 0167 3.85a4.94 4.94 0 01-1.4 1.37 4.34 4.34 0 011.45.41 2.09 2.09 0 01.81.83 2.42 2.42 0 01.29 1.2 3.38 3.38 0 01-.61 1.88 4.79 4.79 0 01-1.71 1.52 4.9 4.9 0 01-2.39.6 4.74 4.74 0 01-1-.1 6.4 6.4 0 01-1.09-.36zm8.2.25l-.17-.17c.19-.28.73-1.11 1.6-2.49.29-.45 1-1.6 2.14-3.44.46-.75 1.09-1.81 1.87-3.19a5.85 5.85 0 00.3-.53l-.08-.08h-4.07a4.15 4.15 0 00-1 .1.3.3 0 00-.15.11l-.07.09-.22 1.79h-.48V.2l.16-.08c.43 0 1 .07 1.77.11l1.91.05c.68 0 1.88 0 3.6-.11v.48L75.5 2.7 73.7 6C73 7.21 72.46 8.34 72 9.4c-.38.79-.67 1.47-.89 2h-.77a6.75 6.75 0 00-.79.05z" data-name="Layer 1"/></g></svg></svg>