<svg width="137" height="48" xmlns="http://www.w3.org/2000/svg" xmlns:xlink="http://www.w3.org/1999/xlink"><svg width="110.45" height="13.25" viewBox="-1 -1 218.9 24.5" y="13.75" xmlns="http://www.w3.org/2000/svg"><path data-name="CÓMPRALAS AQUÍ" d="M8.4 21.508a7.5 7.5 0 005.5-1.943 6.6 6.6 0 002.1-4.39h-4.3a3.126 3.126 0 01-3.3 2.855c-2.5 0-4.1-2.279-4.1-5.422 0-3.119 1.3-5.446 4.1-5.446a3.068 3.068 0 013.2 2.711h4.3a7.036 7.036 0 00-2.6-4.726 7.931 7.931 0 00-4.9-1.511c-5.1 0-8.5 3.863-8.5 8.973 0 5.132 3.5 8.899 8.5 8.899zM24.2 3.131h2.9L29.7.012h-4.5zm1.6 14.947c-2.8 0-4.2-2.375-4.2-5.494s1.4-5.518 4.2-5.518 4.1 2.4 4.1 5.518-1.3 5.491-4.1 5.491zm0 3.455c5.2 0 8.4-3.815 8.4-8.949S31 3.635 25.8 3.635s-8.5 3.815-8.5 8.949 3.3 8.948 8.5 8.948zm10.6-.408h3.8v-8.614c0-.7-.1-3.455-.1-3.455h.1s.6 2.591.8 3.215l2.4 8.853h3.5l2.5-8.877c.2-.624.8-3.191.8-3.191v12.068H54V3.97h-5.7l-2.1 7.509c-.3 1.08-1 3.911-1 3.911s-.7-2.831-1-3.911L42.1 3.97h-5.7v17.154zm20.5 0h4.3V15.39h4A5.426 5.426 0 0071 9.776a5.627 5.627 0 00-1.7-4.222 6.62 6.62 0 00-4.7-1.584h-7.7v17.154zm4.3-9.093V7.545h3.1a2.084 2.084 0 012.4 2.207 2.134 2.134 0 01-2.4 2.279h-3.1zM73 21.125h4.3v-6.43h2.5c1.9 0 2.7.864 2.9 2.447.3 1.7.2 3.719.6 3.983h4.2v-.217c-.6-.216-.4-2.375-.8-4.63a3.377 3.377 0 00-2.5-3.143v-.072a4.119 4.119 0 003-4.151c0-3.191-2.6-4.942-6-4.942H73v17.154zm4.3-9.573V7.329h3.3A2.09 2.09 0 0183 9.464c0 1.3-.9 2.087-2.5 2.087h-3.2zm11.1 9.573h4.3l1-3.095h6l1 3.095h4.4L98.9 3.971h-4.3zm6.2-6.142l1.4-4.15c.3-.888.7-2.423.7-2.423s.4 1.535.7 2.423l1.3 4.15h-4.1zm12.2 6.142h12v-3.6h-7.7V3.97h-4.3v17.154zm12.9 0h4.2l1-3.095h6l1 3.095h4.5l-6.2-17.154h-4.4zm6.2-6.142l1.3-4.15c.3-.888.7-2.423.7-2.423h.1a24.6 24.6 0 00.6 2.423l1.3 4.15h-4zm19 6.55c4 0 7-1.991 7-5.59 0-3.671-2.8-4.654-6-5.4-2.6-.576-3.9-.864-3.9-2.063 0-.96 1-1.607 2.5-1.607a2.435 2.435 0 012.7 2.063h4.2c-.2-3.6-3.1-5.278-6.8-5.278-3.8 0-6.8 1.608-6.8 5.278 0 3.6 3.1 4.51 6.1 5.206 2.4.576 3.7.864 3.7 2.231 0 1.3-1.3 1.8-2.7 1.8-2.1 0-3.2-.72-3.4-2.447h-4.2c.1 3.79 3 5.806 7.6 5.806zm12.3-.408h4.2l1-3.095h6l1 3.095h4.5l-6.2-17.154h-4.4zm6.2-6.142l1.3-4.15c.3-.888.7-2.423.7-2.423h.1a24.6 24.6 0 00.6 2.423l1.3 4.15h-4zm19.9 3.095c-2.7 0-4.1-2.375-4.1-5.494s1.4-5.518 4.1-5.518c2.8 0 4.2 2.4 4.2 5.518a7.74 7.74 0 01-.6 3.167l-1.6-1.511-2 2.039 1.6 1.511a4.3 4.3 0 01-1.6.285zm6.5 4.438l2-2.087-2-1.823a9.266 9.266 0 002-6.022c0-5.134-3.3-8.949-8.5-8.949s-8.4 3.815-8.4 8.949 3.2 8.949 8.4 8.949a8.351 8.351 0 004.3-1.08zm11.2-1.08c4.8 0 7.2-2.4 7.2-6.358V3.97h-4.3v11.18a2.625 2.625 0 01-2.9 2.879c-2.1 0-2.9-1.128-2.9-2.807V3.97h-4.3v11.105c0 4.01 2.4 6.361 7.2 6.361zm9.9-.312h4.2V3.97h-4.2v17.154zm.5-17.994h3l2.5-3.119h-4.4z" fill="#b6c2d3" fill-rule="evenodd"/></svg><svg width="35.58" height="13.76" viewBox="-1 -1 35.58 13.76" x="92.6" y="27" xmlns="http://www.w3.org/2000/svg"><g data-name="Layer 2"><path d="M9 10.47c-2.65 1.12-6.8 2.4-8.53-.38C-.5 8.55.12 6.15 1.54 4a31.53 31.53 0 013.24-4c-.65 1.05-2.48 4.55-.09 6.31.93.67 2.57.74 4.61.21L33.58.11z" data-name="Layer 1"/></g></svg><svg width="136.21" height="13.75" viewBox="-1 -1 136.21 13.75" xmlns="http://www.w3.org/2000/svg"><g data-name="Layer 2"><path d="M74.15 10.66v1c0 .05 0 .09-.11.09H57.38c-.07 0-.09 0-.09-.08V9.75a.15.15 0 01.07-.13l13.25-8.23c.14-.09.07-.21-.08-.21H57.65a.07.07 0 01-.07-.05V.06s0-.06.07-.06h16.17c.06 0 .08 0 .08.06V2a.12.12 0 01-.08.12l-13.3 8.26c-.11.06-.11.24.09.24h13.45c.06-.04.09-.03.09.04zM93.3 3.71V8c0 2.1-1.64 3.71-5.57 3.71H80c-4 0-5.31-1.61-5.31-3.71V3.71C74.72 1.9 76.12 0 80 0h7.7c3.94 0 5.6 1.9 5.6 3.71zm-3-.69c0-1.08-.86-1.84-2.26-1.84h-8.3c-1.4 0-2 .7-2 1.84v5.72c0 1.09.63 1.84 2 1.84H88c1.4 0 2.26-.75 2.26-1.84zm22.89.69V8c0 2.1-1.63 3.71-5.56 3.71h-7.7c-4 0-5.31-1.61-5.31-3.71V3.71C94.62 1.9 96 0 99.93 0h7.7c3.91 0 5.56 1.9 5.56 3.71zm-3-.69c0-1.08-.86-1.84-2.26-1.84h-8.3c-1.39 0-2 .7-2 1.84v5.72a1.74 1.74 0 002 1.84h8.29c1.4 0 2.26-.75 2.26-1.84zm16.54 8.73H122a.18.18 0 01-.16-.11l-4-10.37a.16.16 0 00-.16-.11.12.12 0 00-.13.12v10.39a.08.08 0 01-.09.08h-2.85c-.06 0-.08 0-.08-.06V.08s0-.08.1-.08h5.31a.18.18 0 01.18.11l4.13 10.5a.19.19 0 00.32 0l4.04-10.5a.17.17 0 01.18-.11h5.31a.1.1 0 01.11.09v11.57c0 .05 0 .09-.11.09h-2.81a.08.08 0 01-.09-.09V1.28a.12.12 0 00-.13-.12.14.14 0 00-.15.09l-4 10.39a.14.14 0 01-.19.11zM13.24.07C5.94.07 0 5.14 0 11.36a.42.42 0 00.46.39h7.3a.43.43 0 00.46-.39c0-2.36 2.25-4.28 5-4.28s5 1.92 5 4.28a.43.43 0 00.46.39H26a.42.42 0 00.46-.39C26.48 5.14 20.54.07 13.24.07m14.61 1.17a.43.43 0 00-.46.39v9.73a.43.43 0 00.46.39h7.31a.42.42 0 00.45-.39V1.63a.42.42 0 00-.45-.39zm8.68 10.12a.42.42 0 00.45.39h7.31a.42.42 0 00.45-.39c0-2.36 2.26-4.28 5-4.28a.42.42 0 00.45-.39V.46a.42.42 0 00-.45-.39c-7.3 0-13.24 5.07-13.24 11.29z" data-name="Layer 1"/></g></svg><svg width="92.6" height="21" viewBox="-1 -1 92.6 21" y="27" xmlns="http://www.w3.org/2000/svg"><g data-name="Layer 2"><path d="M0 .63V0c1.28 0 2.29.06 3 .06h3.54A6.92 6.92 0 019 .33a2.8 2.8 0 011.33 1.07 2.9 2.9 0 01.49 1.67 3.81 3.81 0 01-.41 1.67 3.88 3.88 0 01-1.18 1.41A5 5 0 017.62 7a4.35 4.35 0 01-1.3.18A7.07 7.07 0 015 7l-.2-.7a6.94 6.94 0 001.34.19 2.87 2.87 0 001.36-.35 2.37 2.37 0 001-1 3.34 3.34 0 00.36-1.55 3.14 3.14 0 00-.35-1.48 2.26 2.26 0 00-1.06-1 4 4 0 00-1.73-.4A6.83 6.83 0 003.77 1c0 .68-.08 1.73-.08 3.17v7.36a3 3 0 00.14 1.08.63.63 0 00.35.25 6.15 6.15 0 001.38.1v.61c-1.18-.05-2-.07-2.6-.07l-3 .07V13a6.3 6.3 0 001.38-.1.63.63 0 00.34-.22 2.44 2.44 0 00.14-.93v-9.7A2.83 2.83 0 001.73 1a.63.63 0 00-.35-.27A6.88 6.88 0 000 .63zm19.35 11.48l-.3.69a7.3 7.3 0 01-1 .54 5.3 5.3 0 01-1 .34 4.91 4.91 0 01-1.22.14 5 5 0 01-2.29-.52A3.74 3.74 0 0112 11.73a5.07 5.07 0 01-.57-2.45 6.16 6.16 0 01.3-2A3.62 3.62 0 0112.39 6a4.69 4.69 0 01.86-.7 5.72 5.72 0 011.15-.63 4.24 4.24 0 011.6-.32 3.89 3.89 0 012 .48 3 3 0 011.27 1.33 4.34 4.34 0 01.4 1.9 5.48 5.48 0 010 .65 9.21 9.21 0 01-1.23.17C17.68 8.93 17 9 16.3 9h-3.07a4.8 4.8 0 00.47 2.21 2.85 2.85 0 001.3 1.21 3.63 3.63 0 001.66.4 3.57 3.57 0 001.16-.19A7.35 7.35 0 0019.2 12zM13.23 8.2c.18 0 .52 0 1 .05.95 0 1.61.05 2 .05a15.15 15.15 0 001.67-.05V7.9a3.31 3.31 0 00-.61-2.21A2.07 2.07 0 0015.64 5a2.16 2.16 0 00-1.74.77 3.69 3.69 0 00-.67 2.43zm17.26-3.06l.08.18c-.25.38-.42.63-.49.77H28.3a2.87 2.87 0 01.22 1.06 2.94 2.94 0 01-.38 1.42A3.36 3.36 0 0127 9.76a4.23 4.23 0 01-1.55.66 6.45 6.45 0 01-1.44.1 4.21 4.21 0 00-.79.74.71.71 0 00-.1.37.6.6 0 00.14.41.67.67 0 00.42.24 6.59 6.59 0 001.53.12h2.07a3.75 3.75 0 011.64.28 1.8 1.8 0 01.82.86 3.07 3.07 0 01.27 1.31 3.75 3.75 0 01-.65 2 4.29 4.29 0 01-1.91 1.6 6.76 6.76 0 01-2.85.59 5.62 5.62 0 01-2.25-.41A3.06 3.06 0 0121 17.49a2.67 2.67 0 01-.44-1.44 2.3 2.3 0 01.13-.79 3 3 0 01.43-.79 8.45 8.45 0 001.67-.93 3 3 0 01-1-.49.68.68 0 01-.23-.46 5.16 5.16 0 01.29-1q.47-.39 1.47-1.11A4.35 4.35 0 0122 9.89a2.06 2.06 0 01-.71-.89A2.68 2.68 0 0121 7.81a3.13 3.13 0 01.49-1.74 3.52 3.52 0 011.71-1.25 5.78 5.78 0 012.18-.48 3.61 3.61 0 011.23.21 3.78 3.78 0 011.12.63c1.19-.01 2.12-.02 2.76-.04zm-5 8.56H23.7a1 1 0 00-.41.19c-.5.36-.77.55-.8.59a1.61 1.61 0 00-.21.39 3.18 3.18 0 00-.2 1.09 2.17 2.17 0 00.78 1.69 3.07 3.07 0 002.14.7 4.15 4.15 0 001.83-.35 3 3 0 001.27-1.11 2.73 2.73 0 00.42-1.41 2.32 2.32 0 00-.19-.93A1.41 1.41 0 0028 14a1.65 1.65 0 00-.61-.29c-.21.01-.83-.01-1.92-.01zm-2.8-6.41a3.77 3.77 0 00.25 1.32 2 2 0 001.85 1.29 2.24 2.24 0 001.46-.53 2.13 2.13 0 00.63-1.71 2.77 2.77 0 00-.63-1.91 2.06 2.06 0 00-3-.13 2.3 2.3 0 00-.58 1.67zm9.78-.24L32 6.92V5.67a10.92 10.92 0 012-1.07 4.22 4.22 0 011.33-.2 3.78 3.78 0 011.83.41A2.59 2.59 0 0138.22 6a3.45 3.45 0 01.25 1.46v4.6a2 2 0 00.08.65.38.38 0 00.18.21.93.93 0 00.4.08l.62.06v.54c-.52 0-1-.06-1.37-.06s-.9 0-1.53.06v-1.68c-1.3 1-2.07 1.54-2.31 1.66a2.06 2.06 0 01-.92.19 2.51 2.51 0 01-1.8-.62 2.16 2.16 0 01-.64-1.64 3.09 3.09 0 01.22-1.2 2.7 2.7 0 01.54-.87 2.38 2.38 0 01.64-.44 9.94 9.94 0 011.8-.55A20.38 20.38 0 0136.85 8a3.28 3.28 0 00-.22-1.42 1.91 1.91 0 00-.77-.83 2.62 2.62 0 00-1.33-.32 3 3 0 00-1 .15 1.58 1.58 0 00-.52.26l-.17.34c-.16.35-.29.65-.37.87zm4.38 1.5a19.78 19.78 0 00-2.12.45 4.15 4.15 0 00-1.24.53 1.31 1.31 0 00-.38.49 2.21 2.21 0 00-.25 1.06 1.49 1.49 0 00.39 1.1 1.45 1.45 0 001.09.4 2.44 2.44 0 001.27-.37 4.91 4.91 0 001.24-1.1zm3.83 2.16h.57a8.47 8.47 0 00.06.88 2.78 2.78 0 00.16.63 1.49 1.49 0 00.35.53 2 2 0 00.53.33 2.19 2.19 0 00.57.16 6.44 6.44 0 00.88 0 2.39 2.39 0 001.6-.52 1.71 1.71 0 00.6-1.37 1.31 1.31 0 00-.2-.71 1.33 1.33 0 00-.56-.48 11 11 0 00-1.58-.45 15.21 15.21 0 01-1.57-.4 2.53 2.53 0 01-.85-.48 2 2 0 01-.5-.73 2.3 2.3 0 01-.19-.95A2.51 2.51 0 0141 5.76a2.79 2.79 0 011.25-1 4.35 4.35 0 011.85-.39 7 7 0 011.4.16 5.92 5.92 0 011.29.42c-.05.71-.08 1.43-.1 2.16h-.54a7 7 0 00-.15-.96 2 2 0 00-.17-.39 1.53 1.53 0 00-.36-.37 3.2 3.2 0 00-.65-.39 2.89 2.89 0 00-1-.15 1.86 1.86 0 00-1.35.5 1.57 1.57 0 00-.47 1.2 1.27 1.27 0 00.54 1.08 2.76 2.76 0 00.7.3l1.59.39a9.57 9.57 0 011.66.53 1.7 1.7 0 01.73.68 2.17 2.17 0 01.27 1.11 2.94 2.94 0 01-1.06 2.25 4.1 4.1 0 01-2.85 1 12.46 12.46 0 01-2.19-.25 3.14 3.14 0 01-.82-.2.12.12 0 010-.09.56.56 0 010-.17 7.67 7.67 0 00.11-.8c-.03-.3-.02-.84 0-1.67zM59 13.05v.54c-.83 0-1.47-.06-1.89-.06s-1 0-1.44.06q.06-.77.09-1.74c-.38.31-.84.73-1.37 1.26a1.26 1.26 0 01-.35.26 2.82 2.82 0 01-.82.33 4.08 4.08 0 01-1 .1 3.48 3.48 0 01-1.29-.21 2.19 2.19 0 01-.89-.64 2.08 2.08 0 01-.43-.81 4.3 4.3 0 01-.15-1.21 6.19 6.19 0 010-.63V6.83A3 3 0 0049.4 6a.23.23 0 00-.12-.15.89.89 0 00-.51-.1h-.83v-.54a8.6 8.6 0 003-.74.6.6 0 01.24-.09.14.14 0 01.11 0 .21.21 0 010 .15v.19c0 .08-.05.59-.07 1.17 0 1.07-.06 1.78-.06 2.14v1.91a6 6 0 00.16 1.64 1.42 1.42 0 00.61.76 2.07 2.07 0 001.12.28 2.7 2.7 0 00.92-.16 2.63 2.63 0 00.82-.45 4.62 4.62 0 00.54-.59 3.23 3.23 0 00.28-.43 1.37 1.37 0 00.08-.43V6.83a3.65 3.65 0 00-.04-.83.28.28 0 00-.13-.15.89.89 0 00-.51-.1h-.83v-.54a8.73 8.73 0 003-.74.52.52 0 01.23-.09.13.13 0 01.11 0 .21.21 0 01.05.15v.19c0 .08 0 .6-.07 1.21q-.06 1.56-.06 2.1v4.04a1.88 1.88 0 00.11.7.44.44 0 00.12.15.71.71 0 00.23.1zm1-2.34h.58a5.1 5.1 0 00.06.88 2.78 2.78 0 00.16.63 1.26 1.26 0 00.35.53 1.91 1.91 0 00.52.33 2.38 2.38 0 00.58.16 6.44 6.44 0 00.88 0 2.41 2.41 0 001.6-.52 1.71 1.71 0 00.63-1.41 1.31 1.31 0 00-.2-.71 1.39 1.39 0 00-.56-.48 11.45 11.45 0 00-1.6-.41 14.5 14.5 0 01-1.57-.4 2.53 2.53 0 01-.85-.48 2 2 0 01-.5-.73 2.3 2.3 0 01-.19-.95 2.51 2.51 0 01.4-1.39 2.82 2.82 0 011.24-1 4.43 4.43 0 011.86-.39 6.89 6.89 0 011.39.16 5.57 5.57 0 011.29.42Q66 6 66 7.07h-.55a5.59 5.59 0 00-.11-.92 1.52 1.52 0 00-.16-.39 1.6 1.6 0 00-.37-.37 2.88 2.88 0 00-.67-.39 2.93 2.93 0 00-1-.15 1.86 1.86 0 00-1.35.5 1.57 1.57 0 00-.51 1.16 1.29 1.29 0 00.14.64 1.21 1.21 0 00.4.44 2.76 2.76 0 00.7.3l1.58.39a9 9 0 011.66.53 1.6 1.6 0 01.73.68 2.08 2.08 0 01.28 1.11 2.94 2.94 0 01-1.06 2.25 4.14 4.14 0 01-2.86 1 12.56 12.56 0 01-2.19-.25 3.14 3.14 0 01-.81-.2.13.13 0 010-.09 1.28 1.28 0 010-.17 5.74 5.74 0 00.12-.8c.03-.26.03-.8.03-1.63zm12.51 2.59c-.09-.54-.17-1-.24-1.25s-.19-.71-.43-1.58l.52-.2a4.66 4.66 0 001.38 2.17 3.38 3.38 0 002 .57 3.05 3.05 0 001.54-.36 2.6 2.6 0 001-1.16 4 4 0 00.39-1.78 2.84 2.84 0 00-.68-2A2.39 2.39 0 0076.22 7a3.22 3.22 0 00-.71.08 8.42 8.42 0 00-1 .34l-.11-.09.21-1h1a2.15 2.15 0 001.8-.82 2.94 2.94 0 00.64-1.86 2.1 2.1 0 00-.68-1.57 2.31 2.31 0 00-1.7-.66 3.11 3.11 0 00-1.2.25 3.49 3.49 0 00-1 .67c-.11.24-.3.7-.54 1.37h-.6L73 1.39a4.12 4.12 0 011.2-.94 4.85 4.85 0 012-.42 3.66 3.66 0 012.55.85A2.69 2.69 0 0179.68 3a3.1 3.1 0 01-.48 1.62 6.12 6.12 0 01-1.66 1.58 5.06 5.06 0 011.71.49 2.41 2.41 0 011 1 3.06 3.06 0 01.33 1.42 4 4 0 01-.72 2.23 5.59 5.59 0 01-2 1.82 6 6 0 01-4 .59 8.2 8.2 0 01-1.35-.45zm9.69.29l-.2-.2c.22-.33.85-1.31 1.89-3q.51-.81 2.52-4.09.82-1.3 2.22-3.73c.08-.14.2-.35.34-.63l-.09-.1h-4.85a4.49 4.49 0 00-1.12.16.39.39 0 00-.19.12l-.07.12-.28 2.08h-.56V.24l.19-.1c.51 0 1.2.09 2.09.13l2.26.06c.79 0 2.21 0 4.25-.13v.57l-1.38 2.44-2.12 3.9c-.78 1.45-1.47 2.8-2 4.05-.45.94-.8 1.75-1.06 2.43h-.91c-.25 0-.61-.03-.93 0z" data-name="Layer 1"/></g></svg></svg>