<svg width="74" height="28" xmlns="http://www.w3.org/2000/svg" xmlns:xlink="http://www.w3.org/1999/xlink"><svg width="61.39" height="8.16" viewBox="-1 -1 120.78 14.31" y="8.15" xmlns="http://www.w3.org/2000/svg"><path data-name="CÓMPRALAS AQUÍ" d="M4.64 11.763a4.09 4.09 0 003.01-1.064 3.736 3.736 0 001.13-2.4H6.46a1.734 1.734 0 01-1.83 1.563c-1.39 0-2.26-1.248-2.26-2.968s.72-2.981 2.25-2.981a1.7 1.7 0 011.77 1.484h2.32a3.664 3.664 0 00-1.4-2.587 4.374 4.374 0 00-2.68-.827 4.9 4.9 0 00.01 9.78zm8.62-10.059h1.63l1.39-1.707h-2.45zm.88 8.181c-1.51 0-2.28-1.3-2.28-3.007s.77-3.02 2.28-3.02c1.53 0 2.28 1.313 2.28 3.02s-.75 3.007-2.28 3.007zm-.01 1.891a4.9 4.9 0 000-9.8c-2.84 0-4.64 2.088-4.64 4.9s1.8 4.9 4.64 4.9zm5.82-.223h2.09V6.839c0-.381-.04-1.891-.04-1.891h.03s.33 1.418.43 1.759l1.34 4.846h1.92l1.35-4.859c.11-.341.43-1.746.43-1.746h.03s-.04 1.5-.04 1.878v4.727h2.13V2.164h-3.15l-1.16 4.11c-.16.591-.52 2.14-.52 2.14h-.03s-.37-1.549-.54-2.14l-1.14-4.11h-3.13v9.389zm11.22 0h2.37V8.414h2.19a2.966 2.966 0 003.18-3.072 3.067 3.067 0 00-.95-2.312 3.571 3.571 0 00-2.56-.866h-4.23v9.389zm2.37-4.977V4.12h1.72a1.164 1.164 0 011.31 1.209 1.182 1.182 0 01-1.31 1.247h-1.72zM40 11.553h2.33V8.034h1.4a1.369 1.369 0 011.56 1.339c.15.932.11 2.035.36 2.18h2.26v-.118c-.33-.118-.2-1.3-.4-2.535a1.879 1.879 0 00-1.36-1.72v-.039a2.25 2.25 0 001.63-2.272c0-1.747-1.42-2.705-3.29-2.705H40v9.389zm2.33-5.24V4h1.8a1.173 1.173 0 11-.06 2.311h-1.74zm6.09 5.24h2.34l.54-1.694h3.28l.56 1.694h2.44l-3.39-9.389H51.8zm3.42-3.362l.72-2.272c.16-.485.38-1.326.38-1.326h.03s.21.841.37 1.326l.71 2.272h-2.21zm6.66 3.362h6.54v-1.97h-4.21V2.164H58.5v9.389zm7.03 0h2.34l.54-1.694h3.28l.55 1.694h2.44L71.3 2.164h-2.39zm3.42-3.362l.72-2.272c.16-.485.38-1.326.38-1.326h.02s.22.841.37 1.326l.71 2.272h-2.2zm10.4 3.585c2.17 0 3.85-1.09 3.85-3.06 0-2.009-1.58-2.547-3.32-2.954-1.41-.315-2.13-.473-2.13-1.129a1.123 1.123 0 011.35-.88 1.325 1.325 0 011.51 1.129h2.27c-.09-1.97-1.66-2.889-3.7-2.889-2.1 0-3.73.88-3.73 2.889 0 1.97 1.72 2.469 3.35 2.85 1.29.315 2.05.472 2.05 1.221 0 .709-.75.985-1.51.985-1.12 0-1.74-.394-1.84-1.34h-2.34c.05 2.075 1.7 3.178 4.19 3.178zm6.7-.223h2.34l.54-1.694h3.28l.55 1.694h2.45l-3.39-9.389h-2.39zm3.42-3.362l.72-2.272c.16-.485.38-1.326.38-1.326h.03s.21.841.37 1.326l.7 2.272h-2.2zm10.92 1.694c-1.51 0-2.28-1.3-2.28-3.007s.77-3.02 2.28-3.02 2.25 1.313 2.25 3.02a4.216 4.216 0 01-.32 1.733l-.87-.827-1.08 1.116.86.828a2.15 2.15 0 01-.84.157zm3.53 2.43l1.07-1.143-1.06-1a5.127 5.127 0 001.08-3.3c0-2.81-1.79-4.9-4.64-4.9-2.83 0-4.62 2.088-4.62 4.9s1.79 4.9 4.62 4.9a4.721 4.721 0 002.37-.591zm6.14-.591c2.61 0 3.91-1.314 3.91-3.48v-6.08h-2.33v6.119a1.443 1.443 0 01-1.58 1.576 1.409 1.409 0 01-1.62-1.536V2.164h-2.32v6.08c0 2.193 1.31 3.48 3.94 3.48zm5.41-.171h2.33V2.164h-2.33v9.389zm.29-9.849h1.63l1.39-1.707h-2.46z" fill="#b6c2d3" fill-rule="evenodd"/></svg><svg width="19.77" height="8.15" viewBox="-1 -1 19.77 8.15" x="45.3" y="16.31" xmlns="http://www.w3.org/2000/svg"><g data-name="Layer 2"><path d="M4.76 5.48c-1.4.58-3.6 1.25-4.51-.2-.51-.81-.19-2.06.56-3.21A16.56 16.56 0 012.53 0c-.35.55-1.31 2.38 0 3.3a3.08 3.08 0 002.44.11L17.77.06z" data-name="Layer 1"/></g></svg><svg width="73.03" height="8.15" viewBox="-1 -1 73.03 8.15" xmlns="http://www.w3.org/2000/svg"><g data-name="Layer 2"><path d="M39.24 5.57v.53l-.05.05h-8.87v-1a.08.08 0 010-.07l7-4.3c.08 0 0-.12 0-.12h-6.81V0h8.56v1a.08.08 0 010 .07L32 5.41c-.06 0-.06.12 0 .12h7.2s.04.01.04.04zm10.14-3.63V4.2c0 1.1-.87 2-3 2h-4.02c-2.1 0-2.81-.85-2.81-1.95V1.94c0-.94.74-1.94 2.81-1.94h4.07c2.07 0 2.95 1 2.95 1.94zm-1.6-.36c0-.56-.46-1-1.19-1H42.2c-.74 0-1.06.37-1.06 1v3c0 .57.33 1 1.06 1h4.39c.73 0 1.19-.39 1.19-1zm12.13.36V4.2c0 1.1-.87 2-2.95 2h-4.07c-2.1 0-2.81-.85-2.81-1.95V1.94c0-.94.74-1.94 2.81-1.94H57c2 0 2.91 1 2.91 1.94zm-1.6-.36c0-.56-.46-1-1.19-1h-4.39c-.74 0-1.06.37-1.06 1v3c0 .57.33 1 1.06 1h4.39c.73 0 1.19-.39 1.19-1zm8.76 4.57h-2.52a.09.09 0 01-.08-.06L62.36.66s0-.05-.09-.05a.07.07 0 00-.07.06v5.44h-1.55V0h2.81a.09.09 0 01.1.06l2.19 5.49a.1.1 0 00.17 0L68.06.06a.09.09 0 01.1-.06H71a.06.06 0 010 .05V6.1a.06.06 0 01-.06.05h-1.46a.05.05 0 010-.05V.67a.05.05 0 00-.06-.06s-.07 0-.08.05l-2.19 5.43a.09.09 0 01-.08.06zM7 0C3.14 0 0 2.69 0 5.94a.23.23 0 00.24.21h3.87a.23.23 0 00.24-.21A2.48 2.48 0 017 3.7a2.49 2.49 0 012.67 2.24.22.22 0 00.24.21h3.86a.23.23 0 00.23-.21C14 2.69 10.87 0 7 0m7.74.65a.22.22 0 00-.24.2v5.09a.23.23 0 00.24.21h3.87a.23.23 0 00.24-.21V.85a.22.22 0 00-.24-.2zm4.59 5.29a.23.23 0 00.24.21h3.87a.23.23 0 00.24-.21 2.48 2.48 0 012.66-2.24.22.22 0 00.24-.2V.24a.22.22 0 00-.24-.2c-3.87 0-7 2.65-7 5.9z" data-name="Layer 1"/></g></svg><svg width="45.3" height="10.97" viewBox="-1 -1 45.3 10.97" y="16.31" xmlns="http://www.w3.org/2000/svg"><g data-name="Layer 2"><path d="M0 .3V0h3.15a3.21 3.21 0 011.14.16 1.3 1.3 0 01.65.5 1.41 1.41 0 01.23.79 1.76 1.76 0 01-.17.79 1.8 1.8 0 01-.57.66 2.08 2.08 0 01-.77.39 2 2 0 01-.66.08 3.52 3.52 0 01-.63-.06L2.29 3a3.2 3.2 0 00.64.09 1.33 1.33 0 00.65-.16 1.11 1.11 0 00.48-.5 1.48 1.48 0 00.17-.73 1.47 1.47 0 00-.16-.7 1 1 0 00-.51-.5 1.87 1.87 0 00-.82-.17 3.37 3.37 0 00-.94.16v4.96a1.63 1.63 0 00.04.55.27.27 0 00.16.08 2.59 2.59 0 00.66 0v.29H1.42L0 6.42v-.29a2.59 2.59 0 00.66 0A.28.28 0 00.82 6a1.1 1.1 0 00.07-.44V.97A1.55 1.55 0 00.83.46.3.3 0 00.66.35 2.59 2.59 0 000 .3zm9.25 5.42l-.15.33a3.31 3.31 0 01-.46.25 2.17 2.17 0 01-.49.16 2.2 2.2 0 01-.58.07 2.3 2.3 0 01-1.09-.25 1.7 1.7 0 01-.76-.74 2.39 2.39 0 01-.27-1.16 3.09 3.09 0 01.14-.94 1.89 1.89 0 01.33-.61 1.94 1.94 0 01.41-.33 2.74 2.74 0 01.55-.3 2 2 0 01.78-.15 1.91 1.91 0 01.93.23 1.45 1.45 0 01.6.63 2 2 0 01.2.9v.3a5.35 5.35 0 01-.59.09H6.32a2.27 2.27 0 00.23 1 1.37 1.37 0 00.6.59 1.79 1.79 0 00.79.18 1.75 1.75 0 00.55.03 3.75 3.75 0 00.69-.33zM6.32 3.87h2.23v-.14a1.57 1.57 0 00-.29-1 1 1 0 00-.79-.33 1.05 1.05 0 00-.83.36 1.74 1.74 0 00-.32 1.11zm8.25-1.44v.08l-.24.37h-.85a1.37 1.37 0 01.11.5 1.38 1.38 0 01-.18.67 1.66 1.66 0 01-.53.56 2.09 2.09 0 01-.74.31 3.24 3.24 0 01-.69 0 1.58 1.58 0 00-.37.35.27.27 0 000 .18.33.33 0 00.06.19.42.42 0 00.21.11 3 3 0 00.73.06h1a1.82 1.82 0 01.79.13.82.82 0 01.39.41 1.33 1.33 0 01.13.61 1.73 1.73 0 01-.31 1 2.09 2.09 0 01-.91.76 3.35 3.35 0 01-1.4.28 2.66 2.66 0 01-1.07-.19 1.44 1.44 0 01-.65-.52 1.17 1.17 0 01-.22-.68.9.9 0 01.07-.37 1.51 1.51 0 01.2-.37 4 4 0 00.8-.45 1.17 1.17 0 01-.48-.23.27.27 0 01-.11-.19 1.89 1.89 0 01.14-.49c.14-.12.38-.3.7-.52a2.23 2.23 0 01-.63-.27 1 1 0 01-.35-.41 1.32 1.32 0 01-.12-.57 1.44 1.44 0 01.24-.82 1.6 1.6 0 01.8-.59 2.62 2.62 0 011-.23 1.7 1.7 0 01.59.1 1.57 1.57 0 01.53.3zm-2.4 4h-.85a.5.5 0 00-.2.09 3.84 3.84 0 00-.38.28.47.47 0 00-.1.18 1.32 1.32 0 00-.1.51 1.07 1.07 0 00.37.81 1.5 1.5 0 001 .33 2 2 0 00.88-.2 1.43 1.43 0 00.64-.43 1.33 1.33 0 00.2-.67 1.16 1.16 0 00-.09-.44.71.71 0 00-.18-.23.7.7 0 00-.3-.14c-.06-.04-.37-.05-.89-.05zm-1.34-3a1.72 1.72 0 00.12.63 1 1 0 00.36.45 1 1 0 00.54.15 1 1 0 00.69-.25 1 1 0 00.3-.8 1.33 1.33 0 00-.3-.91 1 1 0 00-1.44 0 1.06 1.06 0 00-.27.74zm4.69-.1l-.25-.06a2.36 2.36 0 000-.29 2.63 2.63 0 000-.3 5.43 5.43 0 01.95-.51 2.11 2.11 0 01.64-.09 1.82 1.82 0 01.88.19 1.3 1.3 0 01.53.56 1.84 1.84 0 01.11.69v2.17a1.14 1.14 0 000 .31.18.18 0 00.09.1.49.49 0 00.19 0h.3v.26h-1.39v-.79c-.62.46-1 .72-1.1.78a1 1 0 01-.44.09 1.21 1.21 0 01-.86-.29 1 1 0 01-.31-.78 1.35 1.35 0 01.14-.51 1.19 1.19 0 01.25-.4 1 1 0 01.31-.23 4.83 4.83 0 01.87-.23c.4-.09.79-.16 1.18-.21a1.5 1.5 0 00-.1-.66 1 1 0 00-.37-.4 1.29 1.29 0 00-.64-.15 1.33 1.33 0 00-.47.07.8.8 0 00-.25.12l-.08.17zm2.09.67a8.25 8.25 0 00-1 .22 2 2 0 00-.6.25.62.62 0 00-.18.23 1.06 1.06 0 00-.12.5.7.7 0 00.19.52.68.68 0 00.52.19 1.28 1.28 0 00.58-.13 2.5 2.5 0 00.59-.52zm1.83 1.06h.27v.41a1.32 1.32 0 00.08.3A.53.53 0 0020 6a.82.82 0 00.25.16.9.9 0 00.27.07 2.31 2.31 0 00.42 0A1.2 1.2 0 0021.7 6a.82.82 0 00.3-.67.52.52 0 00-.1-.33.56.56 0 00-.27-.23 5.5 5.5 0 00-.75-.21c-.39-.09-.64-.15-.75-.19a1.22 1.22 0 01-.41-.23 1 1 0 01-.24-.34 1.14 1.14 0 01-.09-.46 1.26 1.26 0 01.19-.65 1.42 1.42 0 01.6-.49 2.17 2.17 0 01.88-.2 3.47 3.47 0 01.67.08 3 3 0 01.62.2c0 .33 0 .67-.05 1H22a2 2 0 000-.37.84.84 0 00-.08-.19.67.67 0 00-.17-.17 1.58 1.58 0 00-.32-.17 1.35 1.35 0 00-.48-.07.9.9 0 00-.64.23.73.73 0 00-.25.56.56.56 0 00.26.5 1 1 0 00.33.14l.76.19a5.21 5.21 0 01.8.25.75.75 0 01.34.32 1 1 0 01.14.53 1.38 1.38 0 01-.51 1.06 2 2 0 01-1.37.45 6 6 0 01-1-.12 1.49 1.49 0 01-.39-.09v-.07a2.71 2.71 0 00.06-.38c-.05-.17-.05-.43-.04-.82zm8.76 1.1v.26h-1.59V5.6a7.31 7.31 0 00-.66.59.52.52 0 01-.17.13 1.56 1.56 0 01-.39.15 2.12 2.12 0 01-.47 0 1.61 1.61 0 01-.62-.1 1.15 1.15 0 01-.42-.3 1 1 0 01-.21-.39 2.34 2.34 0 01-.07-.57v-.3a2.44 2.44 0 000-.27V3.23a2 2 0 000-.39.11.11 0 00-.06-.07.48.48 0 00-.24 0h-.4v-.31a4.09 4.09 0 001.43-.35.19.19 0 01.11 0h.05a.08.08 0 010 .07V4.7a2.8 2.8 0 00.07.77.66.66 0 00.3.36 1 1 0 00.53.13 1.35 1.35 0 00.44-.07 1.5 1.5 0 00.39-.22 1.43 1.43 0 00.26-.28.91.91 0 00.13-.2.5.5 0 000-.2V3.23a1.4 1.4 0 000-.39.11.11 0 00-.06-.07.43.43 0 00-.24 0h-.4v-.31a4.09 4.09 0 001.43-.35.21.21 0 01.11 0h.05a.09.09 0 010 .07V5.7a.87.87 0 00.05.33.13.13 0 00.06.07.23.23 0 00.11.05zm.47-1.1h.27v.41a1.32 1.32 0 00.08.3.62.62 0 00.17.25.82.82 0 00.25.16.9.9 0 00.27.07 2.37 2.37 0 00.42 0 1.2 1.2 0 00.8-.25.82.82 0 00.3-.67.52.52 0 00-.1-.33.56.56 0 00-.27-.23 5.08 5.08 0 00-.75-.21c-.39-.09-.64-.15-.75-.19a1.22 1.22 0 01-.36-.2 1 1 0 01-.24-.34 1.14 1.14 0 01-.09-.46 1.26 1.26 0 01.19-.65 1.42 1.42 0 01.6-.49A2.18 2.18 0 0130.3 2a3.46 3.46 0 01.66.08 2.82 2.82 0 01.62.2v1h-.26a2 2 0 00-.05-.43.84.84 0 00-.08-.19.67.67 0 00-.19-.11 1.24 1.24 0 00-.8-.24.91.91 0 00-.64.23.73.73 0 00-.18.86.61.61 0 00.19.2 1 1 0 00.34.14l.75.19a5.21 5.21 0 01.8.25.82.82 0 01.35.32 1.09 1.09 0 01.13.53 1.38 1.38 0 01-.51 1.06 2 2 0 01-1.43.45 6.1 6.1 0 01-1-.12 1.49 1.49 0 01-.39-.09v-.07a2.71 2.71 0 00.06-.38c-.01-.17-.01-.43 0-.82zm5.98 1.22c0-.26-.08-.45-.11-.59s-.09-.34-.21-.75l.25-.09a2.18 2.18 0 00.66 1 1.61 1.61 0 001 .27A1.42 1.42 0 0037 6a1.24 1.24 0 00.49-.54 1.93 1.93 0 00.18-.85 1.36 1.36 0 00-.32-1 1.18 1.18 0 00-.87-.34 1.67 1.67 0 00-.34 0 2.89 2.89 0 00-.47.16h-.06l.1-.49h.49a1 1 0 00.8-.35 1.35 1.35 0 00.31-.88A1 1 0 0037 1a1.09 1.09 0 00-.81-.31 1.39 1.39 0 00-.57.12 1.57 1.57 0 00-.49.31c0 .12-.14.33-.26.65h-.28l.27-1.12a2.27 2.27 0 01.58-.44 2.37 2.37 0 011-.2 1.76 1.76 0 011.22.41 1.24 1.24 0 01.45 1 1.49 1.49 0 01-.23.77 2.9 2.9 0 01-.79.77 2.23 2.23 0 01.81.23 1.08 1.08 0 01.46.46 1.38 1.38 0 01.16.67 1.9 1.9 0 01-.34 1.06 2.61 2.61 0 01-1 .85 2.85 2.85 0 01-1.93.28 3.23 3.23 0 01-.6-.23zm4.63.14l-.1-.09.91-1.4L41.29 3c.27-.42.62-1 1.06-1.79 0-.06.1-.16.17-.29l-.05-.05h-2.29a3 3 0 00-.56 0l-.09.13v.06l-.14 1h-.27V.13h.09l1 .06h1.07c.38 0 1.06 0 2-.07v.25l-.66 1.15-1 1.84c-.37.68-.7 1.32-1 1.91s-.38.83-.5 1.15h-.44z" data-name="Layer 1"/></g></svg></svg>