<svg width="127" height="45" xmlns="http://www.w3.org/2000/svg" xmlns:xlink="http://www.w3.org/1999/xlink"><svg width="102.45" height="12.42" viewBox="-1 -1 202.9 22.84" y="12.82" xmlns="http://www.w3.org/2000/svg"><path data-name="CÓMPRALAS AQUÍ" d="M7.9 19.904a6.745 6.745 0 005-1.8 6.138 6.138 0 001.9-4.064h-3.9a2.92 2.92 0 01-3.1 2.643c-2.3 0-3.8-2.11-3.8-5.019 0-2.887 1.2-5.042 3.8-5.042a2.866 2.866 0 013 2.51h3.9a6.438 6.438 0 00-2.3-4.375 7.629 7.629 0 00-4.6-1.4c-4.7 0-7.8 3.575-7.8 8.306 0 4.755 3.2 8.241 7.9 8.241zM22.4 2.892h2.8L27.5.005h-4.1zm1.5 13.836c-2.5 0-3.8-2.2-3.8-5.085s1.3-5.108 3.8-5.108c2.6 0 3.9 2.22 3.9 5.108s-1.3 5.082-3.9 5.082zm0 3.2c4.8 0 7.9-3.532 7.9-8.284S28.7 3.36 23.9 3.36s-7.8 3.531-7.8 8.284 3 8.281 7.8 8.281zm9.8-.378h3.6v-7.973c0-.644-.1-3.2-.1-3.2h.1s.5 2.4.7 2.976l2.2 8.195h3.3l2.3-8.217c.2-.578.7-2.954.7-2.954h.1s-.1 2.532-.1 3.176v8h3.6V3.67h-5.3l-2 6.951c-.3 1-.9 3.62-.9 3.62s-.7-2.621-.9-3.62L39 3.67h-5.3v15.879zm19 0h4v-5.308h3.7a5.017 5.017 0 005.4-5.2 5.3 5.3 0 00-1.6-3.909 6.042 6.042 0 00-4.3-1.465h-7.2v15.879zm4-8.417V6.98h2.9a1.949 1.949 0 012.2 2.043 2 2 0 01-2.2 2.11h-2.9zm11 8.417h3.9v-5.952H74a2.337 2.337 0 012.6 2.265c.2 1.577.2 3.443.6 3.687H81v-.2c-.5-.2-.3-2.2-.6-4.286a3.339 3.339 0 00-2.4-2.91v-.066a3.78 3.78 0 002.8-3.842c0-2.954-2.4-4.575-5.6-4.575h-7.5V19.55zm3.9-8.861V6.78h3c1.5 0 2.3.822 2.3 1.976 0 1.2-.8 1.933-2.4 1.933h-2.9zm10.3 8.861h3.9l1-2.865h5.5l.9 2.865h4.2L91.6 3.671h-4zm5.8-5.685l1.2-3.843a21.328 21.328 0 00.6-2.243h.1a21.328 21.328 0 00.6 2.243l1.2 3.843h-3.7zm11.2 5.685H110v-3.331h-7.1V3.67h-4v15.879zm11.9 0h4l.9-2.865h5.5l1 2.865h4.1l-5.7-15.879h-4.1zm5.8-5.685l1.2-3.843c.3-.821.7-2.243.7-2.243s.4 1.422.6 2.243l1.2 3.843h-3.7zm17.6 6.063c3.7 0 6.5-1.844 6.5-5.175 0-3.4-2.7-4.309-5.6-5-2.4-.533-3.6-.8-3.6-1.91 0-.888.9-1.488 2.3-1.488s2.4.688 2.5 1.91h3.9c-.2-3.331-2.8-4.886-6.3-4.886s-6.3 1.488-6.3 4.886c0 3.331 2.9 4.175 5.7 4.819 2.1.533 3.4.8 3.4 2.066 0 1.2-1.2 1.665-2.5 1.665-1.9 0-3-.666-3.1-2.265h-4c.1 3.511 2.9 5.375 7.1 5.375zm11.3-.378h4l.9-2.865h5.6l.9 2.865h4.1l-5.7-15.879h-4.1zm5.8-5.685l1.2-3.843c.3-.821.7-2.243.7-2.243s.4 1.422.6 2.243l1.2 3.843h-3.7zm18.5 2.864c-2.6 0-3.9-2.2-3.9-5.085s1.3-5.108 3.9-5.108 3.8 2.22 3.8 5.108a6.7 6.7 0 01-.6 2.931l-1.4-1.4-1.8 1.888 1.4 1.4a3.53 3.53 0 01-1.4.262zm5.9 4.109l1.9-1.932-1.8-1.688a9.165 9.165 0 001.8-5.574c0-4.753-3-8.284-7.8-8.284s-7.9 3.531-7.9 8.284 3.1 8.284 7.9 8.284a7.594 7.594 0 003.9-1zm10.4-1c4.4 0 6.6-2.221 6.6-5.886V3.67h-3.9v10.349a2.42 2.42 0 01-2.7 2.665 2.373 2.373 0 01-2.7-2.6V3.67h-3.9v10.282c0 3.709 2.2 5.886 6.6 5.886zm9.2-.289h3.9V3.67h-3.9v15.879zm.5-16.657h2.7l2.4-2.887h-4.2z" fill="#b6c2d3" fill-rule="evenodd"/></svg><svg width="33.11" height="12.83" viewBox="-1 -1 33.11 12.83" x="85.93" y="25.24" xmlns="http://www.w3.org/2000/svg"><g data-name="Layer 2"><path d="M8.34 9.64C5.89 10.67 2 11.85.43 9.3c-.89-1.42-.32-3.63 1-5.65A30 30 0 014.42 0c-.6 1-2.29 4.19-.07 5.81.86.62 2.38.68 4.26.19L31.11.1z" data-name="Layer 1"/></g></svg><svg width="126.33" height="12.82" viewBox="-1 -1 126.33 12.82" xmlns="http://www.w3.org/2000/svg"><g data-name="Layer 2"><path d="M68.7 9.81v.93s0 .08-.11.08H53.16c-.07 0-.09 0-.09-.07V9a.13.13 0 01.07-.12l12.27-7.6c.14-.08.07-.2-.07-.2h-12v-1s0-.06.07-.06h15s.07 0 .07.06V1.8a.13.13 0 01-.07.12L56.07 9.53c-.1.05-.1.21.08.21h12.46s.09.02.09.07zm17.73-6.39v4c0 1.94-1.51 3.42-5.16 3.42h-7.13c-3.67 0-4.92-1.48-4.92-3.42v-4c0-1.67 1.3-3.42 4.92-3.42h7.13c3.63 0 5.16 1.75 5.16 3.42zm-2.79-.63c0-1-.8-1.71-2.09-1.71h-7.68c-1.29 0-1.85.65-1.85 1.71v5.26c0 1 .57 1.69 1.85 1.69h7.68c1.29 0 2.09-.69 2.09-1.69zm21.22.63v4c0 1.94-1.51 3.42-5.15 3.42h-7.13c-3.68 0-4.92-1.48-4.92-3.42v-4C87.66 1.75 89 0 92.58 0h7.13c3.62 0 5.15 1.75 5.15 3.42zm-2.79-.63c0-1-.8-1.71-2.09-1.71H92.3c-1.29 0-1.85.65-1.85 1.71v5.26c0 1 .58 1.69 1.85 1.69h7.7c1.29 0 2.09-.69 2.09-1.69zm15.34 8.03H113a.15.15 0 01-.15-.1l-3.7-9.55a.14.14 0 00-.15-.1.12.12 0 00-.12.11v9.57c0 .05 0 .07-.09.07h-2.63a.07.07 0 01-.07-.05V.07s0-.07.08-.07h4.92c.09 0 .16 0 .17.1l3.83 9.67a.16.16 0 00.29 0L119.14.1a.17.17 0 01.17-.1h4.92a.09.09 0 01.1.09v10.65s0 .08-.1.08h-2.6a.09.09 0 01-.09-.08V1.18a.11.11 0 00-.12-.11.13.13 0 00-.13.08l-3.75 9.57a.12.12 0 01-.13.1zM12.27.06C5.5.06 0 4.73 0 10.47a.39.39 0 00.42.35h6.77a.39.39 0 00.42-.35c0-2.18 2.09-4 4.66-4s4.65 1.77 4.65 4a.39.39 0 00.42.35h6.77a.39.39 0 00.42-.35C24.53 4.73 19 .06 12.27.06M25.8 1.14a.39.39 0 00-.42.36v9a.39.39 0 00.42.35h6.77a.39.39 0 00.42-.35v-9a.39.39 0 00-.42-.36zm8.04 9.33a.39.39 0 00.42.35H41a.39.39 0 00.42-.35c0-2.18 2.09-4 4.66-4a.39.39 0 00.42-.36V.42a.39.39 0 00-.42-.36c-6.77 0-12.27 4.67-12.27 10.41z" data-name="Layer 1"/></g></svg><svg width="85.93" height="19.5" viewBox="-1 -1 85.93 19.5" y="25.24" xmlns="http://www.w3.org/2000/svg"><g data-name="Layer 2"><path d="M0 .58V0c1.19 0 2.12.05 2.82.05h1.47L5.68 0h.42a6.22 6.22 0 012.21.31 2.53 2.53 0 011.26 1A2.7 2.7 0 0110 2.82a3.45 3.45 0 01-.37 1.54 3.52 3.52 0 01-1.1 1.3 4.58 4.58 0 01-1.49.76 4.12 4.12 0 01-1.21.16 6.8 6.8 0 01-1.22-.12l-.17-.66a5.85 5.85 0 001.24.2A2.58 2.58 0 007 5.65a2.27 2.27 0 00.93-1 3.1 3.1 0 00.33-1.43 2.86 2.86 0 00-.33-1.37A2.09 2.09 0 006.9 1 3.68 3.68 0 005.3.65 6.05 6.05 0 003.5 1c-.06.62-.08 1.6-.08 2.92v6.72a2.76 2.76 0 00.13 1 .58.58 0 00.33.23 6 6 0 001.28.1v.56c-1.09 0-1.9-.07-2.41-.07L0 12.52V12a6.07 6.07 0 001.28-.1.56.56 0 00.31-.2 2.26 2.26 0 00.14-.86V1.89a3 3 0 00-.13-1 .64.64 0 00-.32-.22A6.3 6.3 0 000 .58zm17.93 10.58l-.28.63a8.13 8.13 0 01-.9.5 5.3 5.3 0 01-.95.31 4.91 4.91 0 01-3.24-.35 3.48 3.48 0 01-1.47-1.45 4.63 4.63 0 01-.53-2.26 5.75 5.75 0 01.28-1.82 3.39 3.39 0 01.64-1.2 4.19 4.19 0 01.79-.65 6 6 0 011.07-.58A4 4 0 0114.86 4a3.58 3.58 0 011.79.45 2.7 2.7 0 011.17 1.22 4 4 0 01.38 1.76v.59a7.94 7.94 0 01-1.2.16c-.64.05-1.28.07-1.92.07h-2.83a4.54 4.54 0 00.44 2 2.68 2.68 0 001.16 1.15 3.52 3.52 0 001.54.37 3.57 3.57 0 001.07-.17 7.94 7.94 0 001.33-.6zm-5.68-3.61h.94l1.81.1c.79 0 1.31 0 1.56-.05v-.32a3 3 0 00-.57-2 1.94 1.94 0 00-1.52-.65 2 2 0 00-1.61.71 3.47 3.47 0 00-.61 2.21zm16-2.82l.07.17c-.23.35-.38.58-.45.71h-1.65a2.81 2.81 0 01.2 1 2.63 2.63 0 01-.35 1.31 3.1 3.1 0 01-1 1.09 4.15 4.15 0 01-1.44.61 6.13 6.13 0 01-1.33.09 3.58 3.58 0 00-.73.68.71.71 0 00-.1.35.62.62 0 00.13.37.68.68 0 00.4.22 5.67 5.67 0 001.41.11h1.92a3.52 3.52 0 011.51.25 1.62 1.62 0 01.77.8 2.71 2.71 0 01.25 1.2 3.4 3.4 0 01-.6 1.84A4 4 0 0125.47 17a6.29 6.29 0 01-2.64.54 5.15 5.15 0 01-2.08-.38 2.74 2.74 0 01-1.27-1 2.37 2.37 0 01-.42-1.33 2.09 2.09 0 01.12-.72 2.88 2.88 0 01.41-.73 8.85 8.85 0 001.55-.86 2.67 2.67 0 01-.95-.45.61.61 0 01-.19-.47 4.4 4.4 0 01.27-.95c.29-.24.74-.58 1.36-1a4 4 0 01-1.22-.52 2 2 0 01-.67-.8 2.57 2.57 0 01-.24-1.11 2.86 2.86 0 01.46-1.61 3.26 3.26 0 011.55-1.15 5.34 5.34 0 012-.45 3.43 3.43 0 011.15.2 3.66 3.66 0 011 .58c1.14-.03 1.99-.04 2.59-.06zm-4.65 7.89h-1.66a1 1 0 00-.38.18 7.8 7.8 0 00-.74.55.92.92 0 00-.2.36 2.88 2.88 0 00-.18 1 2 2 0 00.72 1.57 2.92 2.92 0 002 .64 3.9 3.9 0 001.71-.38 2.67 2.67 0 001.17-1 2.51 2.51 0 00.39-1.3 2.24 2.24 0 00-.17-.86 1.33 1.33 0 00-.93-.73c-.15-.02-.72-.03-1.73-.03zM21 6.71a3.23 3.23 0 00.24 1.22 1.78 1.78 0 00.69.89 1.84 1.84 0 001 .3 2 2 0 001.34-.49 1.94 1.94 0 00.59-1.57 2.57 2.57 0 00-.59-1.77 1.92 1.92 0 00-2.78-.11A2.11 2.11 0 0021 6.71zm9.08-.22l-.47-.12V5.23a9.3 9.3 0 011.84-1 4 4 0 011.23-.18 3.53 3.53 0 011.7.37 2.47 2.47 0 011 1.09 3.26 3.26 0 01.23 1.34v4.23a2.05 2.05 0 00.07.61.48.48 0 00.17.2 1.4 1.4 0 00.37.07h.58v.5c-.48 0-.91-.06-1.27-.06s-.83 0-1.42.06v-1.55c-1.2.9-1.92 1.41-2.14 1.53a1.92 1.92 0 01-.85.17 2.33 2.33 0 01-1.67-.57 2 2 0 01-.6-1.51 2.89 2.89 0 01.21-1.11 2.62 2.62 0 01.5-.79 2.14 2.14 0 01.6-.44 9.1 9.1 0 011.66-.51 21.15 21.15 0 012.29-.4 3.08 3.08 0 00-.2-1.3 1.67 1.67 0 00-.72-.77A2.36 2.36 0 0032 5a2.87 2.87 0 00-.92.14 1.67 1.67 0 00-.48.24l-.16.32c-.17.3-.28.59-.36.79zm4.06 1.38a17.27 17.27 0 00-2 .44A3.44 3.44 0 0031 8.8a1.19 1.19 0 00-.36.45 2.1 2.1 0 00-.23 1 1.27 1.27 0 001.37 1.39 2.38 2.38 0 001.22-.37 4.79 4.79 0 001.15-1zm3.54 1.99h.54a5.61 5.61 0 00.05.81 3 3 0 00.15.59 1.15 1.15 0 00.33.48 1.64 1.64 0 00.48.31 2 2 0 00.53.14 5.57 5.57 0 00.82 0 2.23 2.23 0 001.48-.48 1.57 1.57 0 00.58-1.3 1.15 1.15 0 00-.7-1.09A10.06 10.06 0 0040.47 9c-.75-.17-1.23-.3-1.45-.37a2.38 2.38 0 01-.79-.45 1.9 1.9 0 01-.46-.67 2.13 2.13 0 01-.17-.88A2.4 2.4 0 0138 5.3a2.6 2.6 0 011.16-1 4.08 4.08 0 011.68-.3 6.56 6.56 0 011.29.15 5.15 5.15 0 011.2.38c0 .65-.08 1.32-.09 2h-.51a4.9 4.9 0 00-.1-.84 1.19 1.19 0 00-.16-.36 1.15 1.15 0 00-.33-.33 2.39 2.39 0 00-.62-.32 2.5 2.5 0 00-.92-.15 1.73 1.73 0 00-1.25.47 1.46 1.46 0 00-.48 1 1.25 1.25 0 00.14.59 1.18 1.18 0 00.37.4 2.45 2.45 0 00.62.31l1.47.36a8.77 8.77 0 011.53.49 1.58 1.58 0 01.68.63 1.93 1.93 0 01.25 1 2.72 2.72 0 01-1 2.07 3.83 3.83 0 01-2.65.89 12.37 12.37 0 01-2-.23 3.06 3.06 0 01-.75-.19v-.08a.86.86 0 010-.15 5.1 5.1 0 00.11-.74c.02-.22.03-.72.04-1.49zM54.66 12v.5c-.77 0-1.36-.06-1.75-.06s-.88 0-1.33.06c0-.48.06-1 .08-1.6a14.16 14.16 0 00-1.27 1.15 1.44 1.44 0 01-.33.25 2.86 2.86 0 01-.76.3 4 4 0 01-.91.09 3.21 3.21 0 01-1.2-.19 2.22 2.22 0 01-.83-.59 1.9 1.9 0 01-.39-.75 4 4 0 01-.14-1.11v-.59a4.84 4.84 0 000-.53V6.29a3.14 3.14 0 00-.08-.76.31.31 0 00-.12-.14.85.85 0 00-.46-.08h-.77V4.8a8.3 8.3 0 002.76-.68.42.42 0 01.24-.12.13.13 0 01.1 0 .18.18 0 010 .13 1.21 1.21 0 010 .18q0 .29-.06 1.08v3.77a5.75 5.75 0 00.14 1.51 1.28 1.28 0 00.57.69 1.89 1.89 0 001 .26 2.85 2.85 0 00.85-.14 2.5 2.5 0 00.75-.42 3.06 3.06 0 00.51-.55 2.12 2.12 0 00.25-.39 1.16 1.16 0 00.08-.4V6.29a3.14 3.14 0 00-.08-.76.36.36 0 00-.11-.14.92.92 0 00-.4-.08h-.8V4.8a8.17 8.17 0 002.8-.68.42.42 0 01.18-.12.12.12 0 01.1 0 .18.18 0 010 .13 1.21 1.21 0 010 .18l-.06 1.12v5.69a1.85 1.85 0 00.1.64.53.53 0 00.11.14.5.5 0 00.22.09zm.92-2.14h.53v.81a2.46 2.46 0 00.16.59 1.23 1.23 0 00.32.48 1.69 1.69 0 00.49.31 2 2 0 00.53.14 5.57 5.57 0 00.82 0 2.25 2.25 0 001.57-.44 1.57 1.57 0 00.58-1.3 1.2 1.2 0 00-.18-.65 1.25 1.25 0 00-.52-.44A10.06 10.06 0 0058.37 9c-.75-.17-1.23-.3-1.45-.37a2.28 2.28 0 01-.79-.45 1.93 1.93 0 01-.47-.67 2.3 2.3 0 01-.17-.88 2.33 2.33 0 01.37-1.28 2.55 2.55 0 011.16-1A4 4 0 0158.73 4a6.65 6.65 0 011.3.15 5.06 5.06 0 011.19.38c0 .65-.07 1.32-.09 2h-.5a6.26 6.26 0 00-.1-.84 1.19 1.19 0 00-.16-.36A1.21 1.21 0 0060 5a2.17 2.17 0 00-.61-.32 2.52 2.52 0 00-.93-.15 1.75 1.75 0 00-1.22.47 1.49 1.49 0 00-.47 1 1.25 1.25 0 00.13.59 1.41 1.41 0 00.37.4 2.54 2.54 0 00.65.27l1.47.36a8.89 8.89 0 011.53.49 1.53 1.53 0 01.68.63 1.93 1.93 0 01.26 1 2.7 2.7 0 01-1 2.07 3.82 3.82 0 01-2.64.89 12.26 12.26 0 01-2-.23 2.76 2.76 0 01-.75-.19v-.08a1 1 0 010-.15 7 7 0 00.11-.74c-.03-.18-.01-.68 0-1.45zm11.59 2.39c-.08-.5-.15-.89-.22-1.16s-.17-.65-.4-1.45l.45-.18a4.34 4.34 0 001.28 2 3.12 3.12 0 001.92.54 2.85 2.85 0 001.43-.33 2.37 2.37 0 00.94-1.07 3.63 3.63 0 00.37-1.64 2.61 2.61 0 00-.63-1.88 2.23 2.23 0 00-1.69-.65 2.73 2.73 0 00-.66.07 5.73 5.73 0 00-.91.31l-.11-.09.2-1h.94A2 2 0 0071.75 5a2.65 2.65 0 00.59-1.7 2 2 0 00-.62-1.46 2.19 2.19 0 00-1.58-.6 2.79 2.79 0 00-1.14.27 3.34 3.34 0 00-.94.62c-.1.22-.27.64-.5 1.26H67l.55-2.11A4 4 0 0168.7.41 4.68 4.68 0 0170.58 0 3.42 3.42 0 0173 .81a2.47 2.47 0 01.87 1.9 2.84 2.84 0 01-.45 1.5 5.46 5.46 0 01-1.53 1.5 4.74 4.74 0 011.58.45 2.23 2.23 0 01.89.91 2.69 2.69 0 01.32 1.3 3.73 3.73 0 01-.68 2.06 5.25 5.25 0 01-1.87 1.67 5.39 5.39 0 01-2.62.66 5 5 0 01-1.13-.12 6.14 6.14 0 01-1.21-.39zm8.98.27l-.15-.18c.21-.31.8-1.22 1.76-2.72l2.34-3.77c.5-.82 1.19-2 2-3.48.08-.13.18-.33.32-.58l-.09-.09h-4.44a4.65 4.65 0 00-1.08.11.38.38 0 00-.17.11l-.07.11L76.31 4h-.52V.24L76 .13c.48 0 1.12.08 1.94.12L80 .31c.74 0 2.05 0 3.94-.13v.53L82.66 3c-.27.48-.93 1.68-2 3.59-.72 1.33-1.36 2.58-1.9 3.73-.41.86-.74 1.61-1 2.24h-.85a8.1 8.1 0 00-.76-.04z" data-name="Layer 1"/></g></svg></svg>