<svg width="126" height="46" xmlns="http://www.w3.org/2000/svg" xmlns:xlink="http://www.w3.org/1999/xlink"><svg width="110.5" height="13.25" viewBox="-1 -1 219 24.5" y="12.82" xmlns="http://www.w3.org/2000/svg"><path data-name="CÓMPRALAS AQUÍ" d="M8.46 21.5a7.478 7.478 0 005.49-1.94 6.8 6.8 0 002.06-4.39h-4.24a3.165 3.165 0 01-3.34 2.86c-2.54 0-4.13-2.28-4.13-5.43 0-3.12 1.32-5.44 4.11-5.44a3.1 3.1 0 013.24 2.71h4.24a6.738 6.738 0 00-2.56-4.73 8.053 8.053 0 00-4.9-1.51c-5.11 0-8.44 3.86-8.44 8.97 0 5.14 3.43 8.9 8.47 8.9zM24.2 3.13h2.98L29.72.01h-4.49zm1.61 14.94c-2.76 0-4.17-2.37-4.17-5.49s1.41-5.52 4.17-5.52c2.78 0 4.15 2.4 4.15 5.52s-1.37 5.49-4.15 5.49zm-.02 3.46c5.2 0 8.49-3.82 8.49-8.95s-3.29-8.95-8.49-8.95-8.47 3.81-8.47 8.95 3.28 8.95 8.47 8.95zm10.63-.41h3.82v-8.61c0-.7-.07-3.46-.07-3.46h.05s.6 2.59.79 3.22l2.44 8.85h3.51l2.47-8.88c.19-.62.79-3.19.79-3.19h.05s-.07 2.74-.07 3.43v8.64h3.88V3.97h-5.76l-2.11 7.51c-.28 1.08-.96 3.91-.96 3.91h-.04s-.68-2.83-.99-3.91l-2.09-7.51h-5.71v17.15zm20.5 0h4.32v-5.73h4.01a5.422 5.422 0 005.81-5.62 5.637 5.637 0 00-1.73-4.22 6.506 6.506 0 00-4.68-1.58h-7.73v17.15zm4.32-9.09V7.54h3.15a2.126 2.126 0 012.4 2.21 2.167 2.167 0 01-2.4 2.28h-3.15zm11.82 9.09h4.24v-6.43h2.57a2.509 2.509 0 012.85 2.45c.27 1.7.2 3.72.65 3.98h4.13v-.22c-.6-.21-.36-2.37-.72-4.63a3.434 3.434 0 00-2.5-3.14v-.07a4.116 4.116 0 002.98-4.15c0-3.19-2.59-4.94-6-4.94h-8.2v17.15zm4.24-9.57V7.32h3.29c1.63 0 2.45.89 2.45 2.14 0 1.3-.87 2.09-2.55 2.09H77.3zm11.14 9.57h4.27l.99-3.09h5.99l1.01 3.09h4.46L98.98 3.97h-4.37zm6.24-6.14L96 10.83c.29-.89.7-2.43.7-2.43h.04s.39 1.54.68 2.43l1.29 4.15h-4.03zm12.17 6.14h11.95v-3.6h-7.7V3.97h-4.25v17.15zm12.85 0h4.27l.98-3.09h6l1.01 3.09h4.46l-6.19-17.15h-4.37zm6.23-6.14l1.32-4.15c.29-.89.7-2.43.7-2.43h.05s.38 1.54.67 2.43l1.29 4.15h-4.03zm19.01 6.55c3.96 0 7.03-1.99 7.03-5.59 0-3.67-2.88-4.66-6.07-5.4-2.56-.58-3.88-.86-3.88-2.06 0-.96.98-1.61 2.47-1.61 1.58 0 2.59.74 2.76 2.06h4.15c-.17-3.6-3.05-5.28-6.77-5.28-3.84 0-6.81 1.61-6.81 5.28 0 3.6 3.14 4.51 6.12 5.21 2.35.57 3.74.86 3.74 2.23 0 1.3-1.37 1.8-2.76 1.8-2.04 0-3.17-.72-3.36-2.45h-4.27c.1 3.79 3.1 5.81 7.65 5.81zm12.25-.41h4.27l.99-3.09h5.99l1.01 3.09h4.46l-6.19-17.15h-4.36zm6.24-6.14l1.32-4.15c.29-.89.69-2.43.69-2.43h.05s.39 1.54.67 2.43l1.3 4.15h-4.03zm19.94 3.09c-2.75 0-4.15-2.37-4.15-5.49s1.4-5.52 4.15-5.52c2.79 0 4.13 2.4 4.13 5.52a7.6 7.6 0 01-.6 3.17l-1.58-1.52-1.97 2.04 1.56 1.52a3.952 3.952 0 01-1.54.28zm6.46 4.44l1.97-2.09-1.95-1.82a9.423 9.423 0 001.97-6.02c0-5.14-3.26-8.95-8.47-8.95-5.18 0-8.44 3.81-8.44 8.95s3.26 8.95 8.44 8.95a8.646 8.646 0 004.32-1.08zm11.21-1.08c4.78 0 7.15-2.4 7.15-6.36V3.97h-4.24v11.18a2.647 2.647 0 01-2.91 2.88c-2.08 0-2.95-1.13-2.95-2.81V3.97h-4.24v11.1c0 4.01 2.39 6.36 7.19 6.36zm9.9-.31h4.24V3.97h-4.24v17.15zm.52-17.99h2.98l2.54-3.12h-4.48z" fill="#b6c2d3" fill-rule="evenodd"/></svg><svg width="32.99" height="12.83" viewBox="-1 -1 32.99 12.83" x="85.63" y="26.07" xmlns="http://www.w3.org/2000/svg"><g data-name="Layer 2"><path d="M8.31 9.64C5.86 10.67 2 11.85.43 9.3c-.89-1.42-.32-3.63 1-5.65A29.1 29.1 0 014.41 0c-.6 1-2.28 4.19-.08 5.81.86.62 2.37.68 4.25.19L31 .1z" data-name="Layer 1"/></g></svg><svg width="125.89" height="12.82" viewBox="-1 -1 125.89 12.82" xmlns="http://www.w3.org/2000/svg"><g data-name="Layer 2"><path d="M68.45 9.81v.93a.09.09 0 01-.1.08H53c-.07 0-.09 0-.09-.07V9a.13.13 0 01.09-.14l12.18-7.58c.13-.08.06-.2-.07-.2H53.15v-1s0-.06.07-.06h14.92s.07 0 .07.06V1.8a.13.13 0 01-.07.12L55.87 9.53c-.11.05-.11.21.08.21h12.41s.09.02.09.07zm17.67-6.39v4c0 1.94-1.51 3.42-5.14 3.42h-7.11c-3.66 0-4.9-1.48-4.9-3.42v-4C69 1.75 70.26 0 73.87 0H81c3.59 0 5.12 1.75 5.12 3.42zm-2.78-.63c0-1-.8-1.71-2.09-1.71H73.6c-1.29 0-1.84.65-1.84 1.71v5.26c0 1 .57 1.69 1.84 1.69h7.65c1.29 0 2.09-.69 2.09-1.69zm21.14.63v4c0 1.94-1.5 3.42-5.13 3.42h-7.11c-3.66 0-4.9-1.48-4.9-3.42v-4c0-1.67 1.29-3.42 4.9-3.42h7.11c3.65 0 5.13 1.75 5.13 3.42zm-2.78-.63c0-1-.79-1.71-2.08-1.71H92c-1.29 0-1.85.65-1.85 1.71v5.26c0 1 .58 1.69 1.85 1.69h7.65c1.29 0 2.08-.69 2.08-1.69zm15.3 8.03h-4.39a.15.15 0 01-.15-.1l-3.68-9.55a.15.15 0 00-.15-.1.12.12 0 00-.12.11v9.57c0 .05 0 .07-.09.07h-2.63a.06.06 0 01-.06-.05V.07s0-.07.08-.07h4.9a.16.16 0 01.17.1l3.82 9.67a.16.16 0 00.29 0L118.71.1a.17.17 0 01.17-.1h4.9a.1.1 0 01.11.09v10.65s0 .08-.11.08h-2.59a.09.09 0 01-.09-.08V1.18a.1.1 0 00-.11-.11.14.14 0 00-.14.08l-3.73 9.57a.14.14 0 01-.12.1zM12.22.06C5.48.06 0 4.73 0 10.47a.39.39 0 00.42.35h6.74a.4.4 0 00.43-.35c0-2.18 2.08-4 4.63-4s4.64 1.77 4.64 4a.39.39 0 00.42.35H24a.39.39 0 00.42-.35C24.44 4.73 19 .06 12.22.06m13.49 1.08a.39.39 0 00-.42.36v9a.39.39 0 00.42.35h6.74a.39.39 0 00.42-.35v-9a.39.39 0 00-.42-.36zm8.01 9.33a.39.39 0 00.42.35h6.74a.39.39 0 00.42-.35c0-2.18 2.08-4 4.64-4a.39.39 0 00.42-.36V.42a.39.39 0 00-.42-.36c-6.74 0-12.22 4.67-12.22 10.41z" data-name="Layer 1"/></g></svg><svg width="85.63" height="19.5" viewBox="-1 -1 85.63 19.5" y="26.07" xmlns="http://www.w3.org/2000/svg"><g data-name="Layer 2"><path d="M0 .58V0c1.18 0 2.12.05 2.81.05h1.46L5.65 0h.43a6.19 6.19 0 012.2.31 2.53 2.53 0 011.26 1A2.7 2.7 0 0110 2.82a3.47 3.47 0 01-.38 1.54 3.49 3.49 0 01-1.09 1.3A4.48 4.48 0 017 6.42a4 4 0 01-1.2.16 6.8 6.8 0 01-1.22-.12l-.15-.66a5.69 5.69 0 001.23.2 2.54 2.54 0 001.26-.32 2.16 2.16 0 00.93-1 3.1 3.1 0 00.33-1.43 3 3 0 00-.32-1.37 2.14 2.14 0 00-1-.92A3.68 3.68 0 005.28.65a6.15 6.15 0 00-1.8.3c0 .62-.07 1.6-.07 2.92v6.77a2.76 2.76 0 00.13 1 .58.58 0 00.33.23 5.86 5.86 0 001.27.1v.56c-1.09 0-1.89-.07-2.4-.07L0 12.52V12a5.94 5.94 0 001.27-.1.59.59 0 00.32-.2 2.34 2.34 0 00.13-.86V1.89A2.72 2.72 0 001.6.9a.64.64 0 00-.33-.23A6.17 6.17 0 000 .58zm17.87 10.58l-.29.63a7.37 7.37 0 01-.89.5 5 5 0 01-1 .31 4.52 4.52 0 01-1.12.13 4.58 4.58 0 01-2.11-.48A3.46 3.46 0 0111 10.8a4.63 4.63 0 01-.52-2.26 5.75 5.75 0 01.27-1.82 3.57 3.57 0 01.63-1.2 4.31 4.31 0 01.8-.65 5.63 5.63 0 011.07-.58A3.89 3.89 0 0114.8 4a3.58 3.58 0 011.79.45 2.81 2.81 0 011.17 1.22 4 4 0 01.37 1.76 4.59 4.59 0 010 .59 7.64 7.64 0 01-1.13.16c-.64.05-1.28.07-1.91.07h-2.88a4.41 4.41 0 00.44 2 2.66 2.66 0 001.15 1.15 3.45 3.45 0 001.53.37 3.69 3.69 0 001.08-.17 7.86 7.86 0 001.31-.6zm-5.66-3.61h.94l1.85.1c.78 0 1.3 0 1.55-.05v-.32a3 3 0 00-.57-2 1.92 1.92 0 00-1.51-.65 2 2 0 00-1.61.71 3.47 3.47 0 00-.65 2.21zm15.93-2.82l.07.17-.45.71h-1.64a2.62 2.62 0 01.21 1A2.74 2.74 0 0126 7.9 3.1 3.1 0 0125 9a4.1 4.1 0 01-1.43.61 6.13 6.13 0 01-1.33.09 3.89 3.89 0 00-.73.68.7.7 0 00-.09.35.56.56 0 00.13.37.62.62 0 00.39.22 5.67 5.67 0 001.41.11h1.9a3.57 3.57 0 011.52.25 1.64 1.64 0 01.76.8 2.71 2.71 0 01.25 1.2 3.4 3.4 0 01-.6 1.84A3.91 3.91 0 0125.37 17a6.18 6.18 0 01-2.63.54 5.14 5.14 0 01-2.07-.38 2.76 2.76 0 01-1.26-1 2.36 2.36 0 01-.41-1.38 2.09 2.09 0 01.11-.72 2.88 2.88 0 01.41-.73 8.68 8.68 0 001.54-.86 2.6 2.6 0 01-.94-.45.61.61 0 01-.21-.42 4.4 4.4 0 01.27-.95c.29-.24.74-.58 1.36-1a4.23 4.23 0 01-1.23-.52 2 2 0 01-.66-.8 2.57 2.57 0 01-.24-1.11 2.86 2.86 0 01.46-1.61 3.22 3.22 0 011.54-1.15 5.33 5.33 0 012-.45 3.43 3.43 0 011.15.2 3.48 3.48 0 011 .58c1.14-.03 1.99-.04 2.58-.06zm-4.63 7.89h-1.65a1 1 0 00-.38.18c-.46.33-.71.51-.74.55a.93.93 0 00-.19.36 2.68 2.68 0 00-.19 1 2 2 0 00.72 1.57 2.91 2.91 0 002 .64 3.87 3.87 0 001.71-.38 2.7 2.7 0 001.16-1 2.43 2.43 0 00.4-1.3 2.22 2.22 0 00-.18-.86 1.24 1.24 0 00-.35-.45 1.52 1.52 0 00-.57-.28c-.16-.02-.73-.03-1.74-.03zm-2.58-5.91a3.22 3.22 0 00.23 1.22 1.9 1.9 0 00.69.89 1.84 1.84 0 001 .3 2.07 2.07 0 001.34-.49 1.94 1.94 0 00.58-1.57 2.57 2.57 0 00-.58-1.77 1.84 1.84 0 00-1.41-.65 1.8 1.8 0 00-1.37.54 2.1 2.1 0 00-.48 1.53zM30 6.49l-.47-.12V5.23a9.3 9.3 0 011.84-1 3.86 3.86 0 011.22-.18 3.53 3.53 0 011.7.37 2.39 2.39 0 011 1.09 3.26 3.26 0 01.23 1.34v4.23a1.76 1.76 0 00.07.61.4.4 0 00.16.2 1.4 1.4 0 00.37.07h.58v.5c-.48 0-.91-.06-1.27-.06s-.83 0-1.41.06L34 11c-1.2.9-1.91 1.41-2.14 1.53a1.87 1.87 0 01-.84.17 2.33 2.33 0 01-1.67-.57 2 2 0 01-.59-1.51A2.89 2.89 0 0129 9.48a2.42 2.42 0 01.49-.79 2.3 2.3 0 01.6-.44 9.1 9.1 0 011.66-.51 21 21 0 012.25-.4 3.08 3.08 0 00-.2-1.3 1.67 1.67 0 00-.72-.77 2.32 2.32 0 00-1.2-.27 2.82 2.82 0 00-.92.14 1.67 1.67 0 00-.48.24l-.16.32c-.16.3-.27.59-.32.79zm4 1.38a16.79 16.79 0 00-2 .44 3.65 3.65 0 00-1.15.49 1.28 1.28 0 00-.35.45 2.1 2.1 0 00-.23 1 1.27 1.27 0 001.37 1.39 2.38 2.38 0 001.17-.34 4.79 4.79 0 001.15-1zm3.55 1.99h.53a5.61 5.61 0 00.05.81 3 3 0 00.15.59 1.15 1.15 0 00.33.48 1.52 1.52 0 00.48.31 2 2 0 00.53.14 5.5 5.5 0 00.81 0 2.23 2.23 0 001.48-.48 1.57 1.57 0 00.58-1.3 1.2 1.2 0 00-.18-.65 1.25 1.25 0 00-.52-.44A10.2 10.2 0 0040.33 9c-.75-.17-1.23-.3-1.45-.37a2.23 2.23 0 01-.78-.45 1.93 1.93 0 01-.47-.67 2.3 2.3 0 01-.17-.88 2.33 2.33 0 01.37-1.28 2.52 2.52 0 011.15-1A4 4 0 0140.69 4a6.56 6.56 0 011.31.14 5.06 5.06 0 011.19.38c0 .65-.07 1.32-.09 2h-.5a6.26 6.26 0 00-.1-.84 1.19 1.19 0 00-.16-.36A1.15 1.15 0 0042 5a2.39 2.39 0 00-.62-.32 2.46 2.46 0 00-.92-.15A1.75 1.75 0 0039.2 5a1.49 1.49 0 00-.47 1 1.16 1.16 0 00.5 1 2.54 2.54 0 00.65.27l1.46.36a8.89 8.89 0 011.53.49 1.53 1.53 0 01.68.63 1.93 1.93 0 01.25 1 2.69 2.69 0 01-1 2.07 3.79 3.79 0 01-2.63.89 12.16 12.16 0 01-2-.23 2.76 2.76 0 01-.75-.19v-.08a1 1 0 010-.15 5 5 0 00.1-.74c0-.19.02-.69.03-1.46zM54.46 12v.5q-1.16-.06-1.74-.06c-.44 0-.88 0-1.33.06 0-.48.06-1 .08-1.6a15.8 15.8 0 00-1.26 1.15 1.44 1.44 0 01-.33.25 2.86 2.86 0 01-.76.3 3.9 3.9 0 01-.9.09 3.21 3.21 0 01-1.2-.19 2.11 2.11 0 01-.82-.59 1.79 1.79 0 01-.4-.75 4 4 0 01-.13-1.11 5.62 5.62 0 010-.59V6.29a2.68 2.68 0 00-.08-.76.36.36 0 00-.11-.14.9.9 0 00-.48-.08h-.77V4.8A8.17 8.17 0 0047 4.12a.4.4 0 01.23-.12.13.13 0 01.1 0 .18.18 0 010 .13 1.21 1.21 0 010 .18q0 .29-.06 1.08v3.77a5.34 5.34 0 00.14 1.51 1.28 1.28 0 00.57.69 1.83 1.83 0 001 .26 2.69 2.69 0 00.84-.14 2.56 2.56 0 00.76-.42 3.46 3.46 0 00.5-.55 2.32 2.32 0 00.26-.39 1.16 1.16 0 00.08-.4V6.29a3.32 3.32 0 00-.07-.76.53.53 0 00-.12-.14.9.9 0 00-.47-.08H50V4.8a8.17 8.17 0 002.75-.68A.42.42 0 0153 4a.13.13 0 01.1 0 .18.18 0 010 .13 1.21 1.21 0 010 .18c0 .19 0 .56-.06 1.12 0 1-.05 1.6-.05 1.93v3.76a1.85 1.85 0 00.1.64.38.38 0 00.11.14.51.51 0 00.21.09zm.92-2.14h.53a7.56 7.56 0 00.05.81 3 3 0 00.15.59 1.15 1.15 0 00.33.48 1.79 1.79 0 00.48.31 2 2 0 00.53.14 5.5 5.5 0 00.81 0 2.23 2.23 0 001.48-.48 1.57 1.57 0 00.58-1.3 1.15 1.15 0 00-.7-1.09A9.8 9.8 0 0058.16 9c-.75-.17-1.23-.3-1.45-.37a2.23 2.23 0 01-.78-.45 1.93 1.93 0 01-.47-.67 2.3 2.3 0 01-.17-.88 2.33 2.33 0 01.37-1.28 2.57 2.57 0 011.15-1A4 4 0 0158.52 4a6.56 6.56 0 011.29.15 5.06 5.06 0 011.19.37c0 .65-.07 1.32-.09 2h-.5a4.9 4.9 0 00-.1-.84 1.19 1.19 0 00-.16-.36 1.15 1.15 0 00-.33-.32 2.39 2.39 0 00-.62-.32 2.46 2.46 0 00-.92-.15A1.77 1.77 0 0057 5a1.49 1.49 0 00-.44 1 1.25 1.25 0 00.14.59 1.18 1.18 0 00.37.4 2.31 2.31 0 00.64.27l1.46.36a8.89 8.89 0 011.53.49 1.53 1.53 0 01.68.63 1.93 1.93 0 01.25 1 2.69 2.69 0 01-1 2.07 3.77 3.77 0 01-2.63.89 12.16 12.16 0 01-2-.23 2.76 2.76 0 01-.75-.19v-.08a1 1 0 010-.15 7 7 0 00.11-.74c-.01-.18.01-.68.02-1.45zm11.55 2.39c-.08-.5-.16-.89-.22-1.16s-.17-.65-.4-1.45l.49-.18a4.33 4.33 0 001.27 2A3.12 3.12 0 0070 12a2.81 2.81 0 001.42-.33 2.37 2.37 0 00.94-1.07 3.63 3.63 0 00.36-1.64 2.65 2.65 0 00-.62-1.88 2.22 2.22 0 00-1.69-.65 2.84 2.84 0 00-.66.07 6.06 6.06 0 00-.9.31l-.11-.09.2-1h.94A2 2 0 0071.49 5a2.65 2.65 0 00.59-1.7 2 2 0 00-.62-1.46 2.19 2.19 0 00-1.58-.6 2.78 2.78 0 00-1.1.23 3.29 3.29 0 00-.93.62q-.16.33-.51 1.26h-.54l.54-2.11a4.21 4.21 0 011.12-.83A4.6 4.6 0 0170.33 0a3.41 3.41 0 012.36.78 2.46 2.46 0 01.86 1.9 2.84 2.84 0 01-.45 1.5 5.4 5.4 0 01-1.52 1.5 4.6 4.6 0 011.57.45 2.25 2.25 0 01.9.91 2.8 2.8 0 01.31 1.3 3.65 3.65 0 01-.67 2.06 5.13 5.13 0 01-1.86 1.67 5.33 5.33 0 01-2.61.66 5 5 0 01-1.13-.12 5.85 5.85 0 01-1.16-.36zm8.95.27l-.19-.18c.21-.31.79-1.22 1.75-2.72.31-.5 1.08-1.76 2.33-3.77q.75-1.23 2-3.48c.08-.13.18-.33.32-.58L82 1.7h-4.4a4.61 4.61 0 00-1.07.11.45.45 0 00-.17.11l-.07.11L76 4h-.52V.24l.18-.09c.47 0 1.11.08 1.93.12l2.11.04c.74 0 2 0 3.93-.13v.53L82.36 3c-.27.48-.92 1.68-2 3.59-.72 1.33-1.35 2.58-1.9 3.73-.41.86-.73 1.61-1 2.24h-.84a7.83 7.83 0 00-.74-.04z" data-name="Layer 1"/></g></svg></svg>