<svg width="175" height="58" xmlns="http://www.w3.org/2000/svg" xmlns:xlink="http://www.w3.org/1999/xlink"><svg width="131.46" height="15.42" viewBox="-1 -1 260.91 28.84" y="16.54" xmlns="http://www.w3.org/2000/svg"><path data-name="CÓMPRALAS AQUÍ" d="M10.11 25.632a8.912 8.912 0 006.56-2.318 8.062 8.062 0 002.46-5.238h-5.07a3.753 3.753 0 01-3.97 3.406c-3.04 0-4.93-2.719-4.93-6.469 0-3.721 1.58-6.5 4.9-6.5a3.7 3.7 0 013.86 3.234h5.07a8.051 8.051 0 00-3.06-5.639 9.54 9.54 0 00-5.84-1.8c-6.1 0-10.08 4.608-10.08 10.7 0 6.13 4.09 10.624 10.1 10.624zM28.9 3.707h3.55l3.04-3.721h-5.36zm1.92 17.832c-3.29 0-4.98-2.834-4.98-6.555s1.69-6.583 4.98-6.583c3.32 0 4.95 2.862 4.95 6.583s-1.63 6.555-4.95 6.555zm-.03 4.122c6.21 0 10.13-4.551 10.13-10.677S37 4.308 30.79 4.308c-6.18 0-10.1 4.551-10.1 10.676s3.92 10.677 10.1 10.677zm12.69-.487h4.55V14.898c0-.83-.08-4.121-.08-4.121h.06s.71 3.091.94 3.835l2.92 10.562h4.18L59 14.584c.23-.745.94-3.807.94-3.807H60s-.09 3.263-.09 4.093v10.3h4.64V4.706h-6.87l-2.52 8.959c-.34 1.288-1.14 4.665-1.14 4.665h-.06s-.8-3.377-1.17-4.665L50.3 4.706h-6.82v20.465zm24.46 0h5.15v-6.841h4.78c4.21 0 6.93-2.776 6.93-6.7a6.709 6.709 0 00-2.06-5.037 7.765 7.765 0 00-5.58-1.889h-9.22v20.465zm5.15-10.848V8.974h3.75c1.81 0 2.86 1 2.86 2.633a2.581 2.581 0 01-2.86 2.719h-3.75zm14.1 10.848h5.06v-7.668h3.06c2.18 0 3.15 1.031 3.41 2.92.32 2.032.23 4.436.77 4.751h4.93v-.261c-.72-.257-.43-2.833-.86-5.524a4.1 4.1 0 00-2.98-3.749v-.086a4.9 4.9 0 003.55-4.952c0-3.807-3.09-5.9-7.16-5.9h-9.78V25.17zm5.06-11.42V8.716h3.92c1.95 0 2.92 1.059 2.92 2.547 0 1.546-1.03 2.491-3.03 2.491h-3.81zm13.29 11.42h5.1l1.17-3.692h7.16l1.2 3.692h5.32l-7.38-20.465h-5.21zm7.45-7.327l1.57-4.952c.34-1.059.83-2.891.83-2.891h.06s.45 1.832.8 2.891l1.54 4.952h-4.8zm14.52 7.327h14.25v-4.293h-9.19V4.706h-5.06v20.465zm15.32 0h5.09l1.18-3.692h7.15l1.21 3.692h5.32L155.4 4.709h-5.21zm7.44-7.327l1.58-4.952c.34-1.059.83-2.891.83-2.891h.05s.46 1.832.8 2.891l1.55 4.952h-4.81zm22.68 7.814c4.72 0 8.39-2.376 8.39-6.669 0-4.38-3.44-5.553-7.24-6.441-3.07-.687-4.64-1.03-4.64-2.461 0-1.145 1.17-1.918 2.95-1.918 1.89 0 3.09.887 3.29 2.462h4.95c-.2-4.294-3.63-6.3-8.07-6.3-4.58 0-8.13 1.917-8.13 6.3 0 4.293 3.75 5.381 7.3 6.211 2.81.687 4.47 1.03 4.47 2.662 0 1.545-1.64 2.146-3.3 2.146-2.43 0-3.77-.858-4-2.919h-5.1c.12 4.522 3.69 6.927 9.13 6.927zm14.61-.487h5.1l1.17-3.692h7.16l1.2 3.692h5.32l-7.38-20.465h-5.21zm7.44-7.327l1.58-4.952c.34-1.059.83-2.891.83-2.891h.06s.45 1.832.8 2.891l1.54 4.952H195zm23.8 3.692c-3.29 0-4.95-2.834-4.95-6.555s1.66-6.583 4.95-6.583c3.32 0 4.92 2.862 4.92 6.583a9.037 9.037 0 01-.71 3.779l-1.89-1.8-2.35 2.433 1.86 1.8a4.612 4.612 0 01-1.83.343zm7.7 5.295l2.35-2.49-2.32-2.175a11.21 11.21 0 002.35-7.185c0-6.125-3.9-10.676-10.11-10.676-6.18 0-10.07 4.551-10.07 10.676s3.89 10.677 10.07 10.677a10.243 10.243 0 005.15-1.288zm13.38-1.288c5.7 0 8.53-2.862 8.53-7.585V4.706h-5.07v13.338a3.149 3.149 0 01-3.46 3.435c-2.49 0-3.52-1.346-3.52-3.349V4.706h-5.07v13.252c0 4.783 2.86 7.588 8.59 7.588zm11.8-.372h5.07V4.706h-5.07v20.465zm.63-21.467h3.55l3.04-3.721h-5.36z" fill="#b6c2d3" fill-rule="evenodd"/></svg><svg width="45.07" height="16.55" viewBox="-1 -1 45.07 16.55" x="118.2" y="31.96" xmlns="http://www.w3.org/2000/svg"><g data-name="Layer 2"><path d="M11.54 13c-3.39 1.38-8.72 3-10.94-.47C-.64 10.58.15 7.61 2 4.9A40.31 40.31 0 016.13 0C5.3 1.3 3 5.63 6 7.8c1.19.83 3.29.91 5.9.26L43.07.13z" data-name="Layer 1"/></g></svg><svg width="174.14" height="16.54" viewBox="-1 -1 174.14 16.54" xmlns="http://www.w3.org/2000/svg"><g data-name="Layer 2"><path d="M95.11 13.18v1.24a.13.13 0 01-.14.12H73.59c-.09 0-.11 0-.11-.1v-2.38a.17.17 0 01.09-.16l17-10.18c.19-.11.1-.27-.09-.27H74c-.07 0-.1 0-.1-.05V.08c0-.06 0-.08.1-.08h20.68c.08 0 .1 0 .1.08v2.34a.16.16 0 01-.1.16L77.62 12.79c-.14.08-.14.29.12.29H95c.06 0 .11.02.11.1zm24.55-8.59v5.35c0 2.6-2.1 4.6-7.14 4.6h-9.87c-5.09 0-6.81-2-6.81-4.6V4.59c0-2.24 1.79-4.59 6.81-4.59h9.87c5.02 0 7.14 2.35 7.14 4.59zm-3.86-.85c0-1.34-1.11-2.29-2.9-2.29h-10.63c-1.79 0-2.57.88-2.57 2.29v7.07c0 1.34.8 2.27 2.57 2.27h10.63c1.79 0 2.9-.93 2.9-2.27zm29.38.85v5.35c0 2.6-2.1 4.6-7.14 4.6h-9.87c-5.09 0-6.81-2-6.81-4.6V4.59c0-2.24 1.79-4.59 6.81-4.59H138c5.06 0 7.18 2.35 7.18 4.59zm-3.86-.85c0-1.34-1.11-2.29-2.9-2.29h-10.63c-1.79 0-2.57.88-2.57 2.29v7.07c0 1.34.8 2.27 2.57 2.27h10.63c1.79 0 2.9-.93 2.9-2.27zm21.23 10.8h-6.11a.24.24 0 01-.21-.14l-5.11-12.83a.2.2 0 00-.21-.14.17.17 0 00-.17.16v12.85c0 .06-.05.1-.12.1H147a.09.09 0 01-.09-.08V.1c0-.06 0-.1.12-.1h6.8a.24.24 0 01.24.14l5.3 13a.23.23 0 00.4 0l5.23-13a.24.24 0 01.24-.14H172a.13.13 0 01.14.12v14.3a.13.13 0 01-.14.12h-3.61a.12.12 0 01-.12-.12V1.59a.15.15 0 00-.16-.16.17.17 0 00-.19.12l-5.18 12.85a.2.2 0 01-.19.14zM17 .09c-9.36 0-17 6.26-17 14a.54.54 0 00.59.49H10a.54.54 0 00.58-.49c0-2.92 2.89-5.29 6.44-5.29s6.44 2.37 6.44 5.29a.55.55 0 00.59.49h9.37a.55.55 0 00.59-.49c0-7.7-7.62-14-17-14m18.71 1.44a.54.54 0 00-.58.48v12a.54.54 0 00.58.49h9.37a.54.54 0 00.59-.49V2a.54.54 0 00-.59-.48zm11.13 12.52a.54.54 0 00.58.49h9.37a.54.54 0 00.59-.49c0-2.92 2.89-5.29 6.44-5.29a.55.55 0 00.59-.49V.57a.54.54 0 00-.59-.48c-9.36 0-17 6.26-17 14z" data-name="Layer 1"/></g></svg><svg width="118.2" height="25.5" viewBox="-1 -1 118.2 25.5" y="31.96" xmlns="http://www.w3.org/2000/svg"><g data-name="Layer 2"><path d="M0 .78V0c1.64.07 2.94.09 3.9.09h2L7.86 0h.59a9.21 9.21 0 013.06.41 3.63 3.63 0 011.74 1.32 3.51 3.51 0 01.63 2.06 4.63 4.63 0 01-.52 2.07 4.77 4.77 0 01-1.52 1.74 6.44 6.44 0 01-2.07 1 5.73 5.73 0 01-1.67.22 9.57 9.57 0 01-1.69-.17l-.26-.88A9.16 9.16 0 007.87 8a3.74 3.74 0 001.75-.43 2.93 2.93 0 001.28-1.3 3.94 3.94 0 00.46-1.91 3.88 3.88 0 00-.44-1.84A2.94 2.94 0 009.56 1.3 5.29 5.29 0 007.34.87a8.69 8.69 0 00-2.5.41c-.07.83-.11 2.14-.11 3.92v9.13A3.42 3.42 0 005 15.62a.76.76 0 00.45.31 9 9 0 001.77.13v.75q-2.26-.09-3.33-.09L0 16.81v-.75a9.14 9.14 0 001.77-.13.8.8 0 00.44-.28 2.92 2.92 0 00.18-1.14V2.54a3.35 3.35 0 00-.18-1.33.81.81 0 00-.44-.31A10.34 10.34 0 000 .78zM24.82 15l-.39.85a10.33 10.33 0 01-1.24.68 7.79 7.79 0 01-1.31.41 6.69 6.69 0 01-1.57.18 6.49 6.49 0 01-2.92-.65 4.63 4.63 0 01-2-1.95 6.12 6.12 0 01-.73-3A7.28 7.28 0 0115 9a4.49 4.49 0 01.88-1.61A6.16 6.16 0 0117 6.54a7.24 7.24 0 011.48-.77 5.6 5.6 0 012.1-.39 5.11 5.11 0 012.48.6 3.79 3.79 0 011.63 1.64 5.27 5.27 0 01.5 2.38c0 .22 0 .49-.05.81a13.3 13.3 0 01-1.58.21c-.89.06-1.77.09-2.65.09H17a5.7 5.7 0 00.6 2.74 3.68 3.68 0 001.61 1.54 4.83 4.83 0 002.13.5 5.19 5.19 0 001.49-.23 10.67 10.67 0 001.83-.85zM17 10.14l1.3.07q1.83.06 2.52.06c1.09 0 1.8 0 2.15-.06v-.44A4 4 0 0022.16 7a2.68 2.68 0 00-2.1-.87 2.85 2.85 0 00-2.23 1 4.45 4.45 0 00-.83 3.01zm22.11-3.78l.09.22c-.31.47-.52.78-.62 1H36.3a3.44 3.44 0 01.28 1.31 3.53 3.53 0 01-.48 1.75 4.32 4.32 0 01-1.42 1.47 5.67 5.67 0 01-2 .82 9.32 9.32 0 01-1.85.12 5 5 0 00-1 .92.86.86 0 00-.14.46.75.75 0 00.18.5.89.89 0 00.55.3 8.55 8.55 0 002 .15l2.58-.09a4.85 4.85 0 012.1.35 2.18 2.18 0 011.1 1.06 3.66 3.66 0 01.34 1.61 4.45 4.45 0 01-.83 2.48 5.5 5.5 0 01-2.45 2 8.83 8.83 0 01-3.66.73 7.34 7.34 0 01-2.88-.52A3.88 3.88 0 0127 21.63a3.13 3.13 0 01-.57-1.78 2.88 2.88 0 01.17-1 4 4 0 01.56-1 11.31 11.31 0 002.14-1.16 3.48 3.48 0 01-1.3-.6.79.79 0 01-.29-.57A5.69 5.69 0 0128 14.3c.4-.33 1-.78 1.88-1.37a5.68 5.68 0 01-1.69-.7 2.62 2.62 0 01-.93-1.07 3.37 3.37 0 01-.26-1.5 3.73 3.73 0 01.64-2.15A4.42 4.42 0 0129.75 6a7.64 7.64 0 012.8-.6 5 5 0 011.59.26 5.35 5.35 0 011.42.78c1.54-.04 2.72-.06 3.55-.08zm-6.44 10.58h-2.29a1.22 1.22 0 00-.53.24c-.64.44-1 .68-1 .73a1.56 1.56 0 00-.27.49 3.66 3.66 0 00-.26 1.33 2.71 2.71 0 001 2.11 4.11 4.11 0 002.75.85 5.49 5.49 0 002.38-.5A3.71 3.71 0 0036 20.87a3.24 3.24 0 00.55-1.75 2.75 2.75 0 00-.21-1.12 1.78 1.78 0 00-.49-.61 2.15 2.15 0 00-.79-.37c-.2-.02-.99-.02-2.39-.08zM29.08 9a4.43 4.43 0 00.32 1.64 2.55 2.55 0 001 1.19 2.6 2.6 0 001.44.4 2.86 2.86 0 001.86-.66 2.54 2.54 0 00.81-2.1 3.34 3.34 0 00-.81-2.37 2.55 2.55 0 00-1.95-.88A2.59 2.59 0 0029.8 7a2.81 2.81 0 00-.72 2zm12.56-.28L41 8.55V7.02a13.19 13.19 0 012.55-1.33 5.7 5.7 0 011.71-.24A5.07 5.07 0 0147.6 6 3.23 3.23 0 0149 7.41a4.11 4.11 0 01.32 1.81l-.05 2.16v3.52a2.49 2.49 0 00.1.81.49.49 0 00.23.26 1.45 1.45 0 00.52.1l.79.07v.67c-.66 0-1.25-.08-1.76-.08s-1.14 0-2 .08l.06-2.08a35 35 0 01-3 2.05 2.54 2.54 0 01-1.17.23 3.27 3.27 0 01-2.31-.76 2.59 2.59 0 01-.83-2 3.6 3.6 0 01.29-1.49 3.19 3.19 0 01.81-1.09 2.86 2.86 0 01.82-.59 13.32 13.32 0 012.31-.68 27.7 27.7 0 013.17-.55 4.13 4.13 0 00-.3-1.74 2.33 2.33 0 00-1-1 3.38 3.38 0 00-1.71-.4 4.1 4.1 0 00-1.29.15 2.41 2.41 0 00-.67.32l-.22.43c-.2.47-.36.84-.47 1.11zm5.63 1.85a27.27 27.27 0 00-2.72.58 5.71 5.71 0 00-1.59.66 1.73 1.73 0 00-.5.61 2.72 2.72 0 00-.31 1.31 1.78 1.78 0 00.5 1.36 1.9 1.9 0 001.4.49 3.31 3.31 0 001.62-.45 6.13 6.13 0 001.6-1.37zm4.9 2.67h.74a9.29 9.29 0 00.09 1.09 3.69 3.69 0 00.21.79 1.73 1.73 0 00.45.65 2.74 2.74 0 00.67.41 3.25 3.25 0 00.74.2 10.69 10.69 0 001.13 0 3.19 3.19 0 002.06-.64A2.1 2.1 0 0059 14a1.62 1.62 0 00-.25-.88 1.66 1.66 0 00-.73-.59A12.21 12.21 0 0056 12c-1-.23-1.71-.4-2-.5a3.71 3.71 0 01-1.09-.6 2.58 2.58 0 01-.64-.9 2.9 2.9 0 01-.24-1.18 3.09 3.09 0 01.51-1.72 3.56 3.56 0 011.6-1.28 5.86 5.86 0 012.38-.49 9 9 0 011.79.21 7.36 7.36 0 011.69.53c0 .88-.1 1.77-.12 2.67h-.7A7 7 0 0059 7.61a2 2 0 00-.21-.49 1.86 1.86 0 00-.47-.45 3.37 3.37 0 00-.85-.43 3.71 3.71 0 00-1.28-.19 2.45 2.45 0 00-1.74.61 1.94 1.94 0 00-.65 1.45 1.54 1.54 0 00.2.79 1.37 1.37 0 00.51.53 3.29 3.29 0 00.89.38l2 .48a13.33 13.33 0 012.12.65 2.14 2.14 0 01.94.85 2.52 2.52 0 01.36 1.37 3.58 3.58 0 01-1.37 2.78 5.34 5.34 0 01-3.66 1.19 16.69 16.69 0 01-2.79-.31 4.89 4.89 0 01-1-.24.17.17 0 01-.05-.12.81.81 0 010-.2 7.07 7.07 0 00.14-1c.05-.32.07-.99.08-2.02zm23.5 2.9v.67c-1.07 0-1.88-.08-2.42-.08s-1.22 0-1.84.08c0-.64.08-1.35.11-2.15a21.8 21.8 0 00-1.75 1.55 1.81 1.81 0 01-.46.33 4.15 4.15 0 01-1 .41 5.73 5.73 0 01-1.26.12 4.51 4.51 0 01-1.67-.26 2.9 2.9 0 01-1.19-.81 2.64 2.64 0 01-.55-1 5.35 5.35 0 01-.19-1.49V8.45a4.8 4.8 0 00-.11-1 .49.49 0 00-.16-.19 1.26 1.26 0 00-.65-.12h-1.04v-.7a11.35 11.35 0 003.83-.91.74.74 0 01.3-.11.17.17 0 01.14.06.24.24 0 01.06.18v.24c0 .1-.06.73-.09 1.45 0 1.31-.07 2.2-.07 2.65v2.3a6.85 6.85 0 00.2 2 1.72 1.72 0 00.78.93 2.79 2.79 0 001.44.35 3.7 3.7 0 001.18-.2 3.38 3.38 0 001-.56 4.11 4.11 0 00.7-.73 3.09 3.09 0 00.36-.53 1.86 1.86 0 00.11-.53q.06-1.05.06-2.07V8.45a3.73 3.73 0 00-.11-1 .37.37 0 00-.16-.19 1.26 1.26 0 00-.65-.12H69.5v-.7a11.28 11.28 0 003.82-.91.72.72 0 01.31-.11.2.2 0 01.14.06.3.3 0 010 .18 2.27 2.27 0 010 .24c0 .25 0 .75-.08 1.5 0 1.28-.08 2.15-.08 2.6v4.93a2.26 2.26 0 00.13.87.55.55 0 00.26.2.79.79 0 00.29.12zm1.33-2.9h.74a7.52 7.52 0 00.07 1.09 3.69 3.69 0 00.21.79 1.73 1.73 0 00.45.65 2.57 2.57 0 00.67.41 3.31 3.31 0 00.73.2 10.78 10.78 0 001.14 0 3.16 3.16 0 001.99-.6 2.07 2.07 0 00.8-1.74 1.54 1.54 0 00-.25-.88 1.63 1.63 0 00-.72-.59 12.13 12.13 0 00-2-.55c-1-.23-1.71-.4-2-.5a3.58 3.58 0 01-1.09-.6 2.58 2.58 0 01-.64-.9 2.9 2.9 0 01-.24-1.18 3.09 3.09 0 01.51-1.72 3.56 3.56 0 011.6-1.28 5.81 5.81 0 012.37-.49 8.89 8.89 0 011.79.21 7.64 7.64 0 011.66.51q-.09 1.32-.12 2.67h-.7a7 7 0 00-.14-1.13 2.43 2.43 0 00-.22-.49 1.79 1.79 0 00-.46-.45 3.28 3.28 0 00-.86-.43A3.64 3.64 0 0081 6.05a2.42 2.42 0 00-1.73.61 1.91 1.91 0 00-.66 1.45 1.65 1.65 0 00.19.79 1.52 1.52 0 00.51.53 3.23 3.23 0 00.9.38l2 .48a13.19 13.19 0 012.13.65 2.14 2.14 0 01.94.85 2.61 2.61 0 01.35 1.37 3.55 3.55 0 01-1.37 2.78 5.33 5.33 0 01-3.65 1.19 16.59 16.59 0 01-2.81-.31 4.51 4.51 0 01-1-.24.13.13 0 010-.12 1.68 1.68 0 010-.2 9 9 0 00.15-1c-.04-.32-.02-.99.05-2.02zm16 3.21c-.12-.67-.22-1.19-.31-1.55s-.24-.88-.55-2l.67-.25a5.83 5.83 0 001.78 2.69 4.39 4.39 0 002.6.7 4 4 0 002-.45 3.33 3.33 0 001.31-1.43A4.83 4.83 0 00101 12a3.44 3.44 0 00-.87-2.52 3.13 3.13 0 00-2.34-.88 3.82 3.82 0 00-.92.1 8.57 8.57 0 00-1.25.42L95.45 9l.27-1.27c.65 0 1.09.06 1.31.06a2.78 2.78 0 002.31-1 3.55 3.55 0 00.82-2.29 2.57 2.57 0 00-.87-2 3 3 0 00-2.19-.8 4 4 0 00-1.53.3 4.51 4.51 0 00-1.3.83c-.14.3-.38.86-.7 1.69h-.76l.76-2.84A5.55 5.55 0 0195.12.56a6.36 6.36 0 012.6-.56A4.84 4.84 0 01101 1.09a3.27 3.27 0 011.2 2.55 3.69 3.69 0 01-.62 2 7.53 7.53 0 01-2.12 2 6.46 6.46 0 012.19.61 3 3 0 011.24 1.21 3.66 3.66 0 01.43 1.75 4.81 4.81 0 01-.93 2.76 7 7 0 01-2.59 2.25 7.6 7.6 0 01-3.62.88 7.51 7.51 0 01-1.56-.1 9.18 9.18 0 01-1.62-.55zm12.43.36l-.26-.25q.43-.6 2.43-3.65.65-1 3.23-5c.71-1.11 1.65-2.67 2.85-4.68l.44-.78-.12-.17h-6.17a6.41 6.41 0 00-1.49.15.55.55 0 00-.24.15l-.1.14-.35 2.58h-.72l.07-3.07c0-.51 0-1.15-.06-1.93l.24-.12c.65.05 1.55.1 2.69.15 1.47.06 2.43.08 2.89.08 1 0 2.84 0 5.45-.16V1l-1.76 3c-.38.65-1.28 2.26-2.72 4.82q-1.52 2.7-2.64 5c-.57 1.17-1 2.17-1.35 3-.46 0-.86-.06-1.17-.06s-.73.01-1.14.05z" data-name="Layer 1"/></g></svg></svg>