<svg width="88" height="32" xmlns="http://www.w3.org/2000/svg" xmlns:xlink="http://www.w3.org/1999/xlink"><svg width="73.78" height="9.45" viewBox="-1 -1 145.56 16.91" y="9.43" xmlns="http://www.w3.org/2000/svg"><path data-name="CÓMPRALAS AQUÍ" d="M5.6 14.229a4.977 4.977 0 003.64-1.286 4.507 4.507 0 001.36-2.9H7.79a2.09 2.09 0 01-2.21 1.888c-1.68 0-2.72-1.507-2.72-3.587 0-2.063.87-3.6 2.71-3.6a2.045 2.045 0 012.14 1.793h2.81a4.422 4.422 0 00-1.7-3.127 5.283 5.283 0 00-3.24-1C2.2 2.41 0 4.966 0 8.346c0 3.391 2.27 5.883 5.6 5.883zM16.02 2.071h1.97L19.67.008H16.7zm1.06 9.888c-1.82 0-2.76-1.571-2.76-3.635s.94-3.65 2.76-3.65c1.84 0 2.75 1.587 2.75 3.65s-.91 3.638-2.75 3.638zm-.01 2.286c3.44 0 5.61-2.524 5.61-5.921s-2.17-5.92-5.61-5.92-5.61 2.524-5.61 5.92 2.18 5.921 5.61 5.921zm7.03-.27h2.53v-5.7c0-.46-.05-2.286-.05-2.286h.03s.4 1.715.53 2.127l1.61 5.857h2.32L32.71 8.1c.12-.412.52-2.111.52-2.111h.03s-.05 1.81-.05 2.27v5.714h2.58V2.627h-3.81l-1.4 4.967c-.19.715-.64 2.587-.64 2.587h-.03s-.44-1.872-.65-2.587l-1.38-4.967H24.1v11.348zm13.57 0h2.85v-3.794h2.65a3.579 3.579 0 003.84-3.713 3.727 3.727 0 00-1.14-2.794 4.3 4.3 0 00-3.09-1.047h-5.11v11.348zm2.85-6.016V4.991h2.08a1.408 1.408 0 011.59 1.461 1.432 1.432 0 01-1.59 1.507h-2.08zm7.82 6.016h2.81V9.721h1.69a1.663 1.663 0 011.89 1.619c.18 1.127.13 2.46.43 2.635h2.73v-.143c-.4-.143-.24-1.571-.47-3.063a2.275 2.275 0 00-1.66-2.079v-.048a2.716 2.716 0 001.97-2.746c0-2.111-1.71-3.269-3.97-3.269h-5.42v11.348zm2.81-6.333V4.849h2.17a1.4 1.4 0 011.62 1.412c0 .857-.57 1.381-1.68 1.381h-2.11zm7.37 6.333h2.82l.65-2.048h3.97l.67 2.048h2.95l-4.1-11.348H62.6zm4.12-4.063l.88-2.746c.19-.587.46-1.6.46-1.6h.03s.25 1.016.44 1.6l.86 2.746h-2.67zm8.06 4.063h7.9v-2.381h-5.1V2.627h-2.8v11.348zm8.49 0h2.83l.65-2.048h3.97l.66 2.048h2.95L86.16 2.627h-2.89zm4.13-4.063l.87-2.746c.19-.587.46-1.6.46-1.6h.03s.26 1.016.45 1.6l.85 2.746h-2.66zm12.57 4.333c2.62 0 4.65-1.318 4.65-3.7 0-2.428-1.9-3.079-4.01-3.571-1.7-.38-2.57-.571-2.57-1.365 0-.634.65-1.063 1.63-1.063a1.608 1.608 0 011.83 1.365h2.74c-.11-2.381-2.01-3.492-4.47-3.492-2.54 0-4.51 1.064-4.51 3.492 0 2.381 2.08 2.984 4.05 3.444 1.55.381 2.47.571 2.47 1.476 0 .857-.9 1.191-1.82 1.191-1.35 0-2.1-.477-2.22-1.619h-2.83c.07 2.508 2.05 3.842 5.06 3.842zm8.11-.27h2.82l.65-2.048h3.97l.67 2.048h2.95l-4.1-11.348h-2.88zm4.12-4.063l.88-2.746c.19-.587.46-1.6.46-1.6h.03s.25 1.016.44 1.6l.86 2.746h-2.67zm13.2 2.047c-1.83 0-2.75-1.571-2.75-3.635s.92-3.65 2.75-3.65 2.73 1.587 2.73 3.65a5.038 5.038 0 01-.4 2.1l-1.05-1-1.3 1.349 1.03 1a2.544 2.544 0 01-1.01.189zm4.27 2.936l1.3-1.381-1.29-1.206a6.227 6.227 0 001.3-3.984c0-3.4-2.15-5.92-5.6-5.92-3.43 0-5.58 2.524-5.58 5.92s2.15 5.921 5.58 5.921a5.684 5.684 0 002.86-.715zm7.42-.714c3.15 0 4.73-1.587 4.73-4.206V2.627h-2.81v7.4a1.748 1.748 0 01-1.92 1.9 1.71 1.71 0 01-1.96-1.857V2.627h-2.81v7.348c0 2.651 1.59 4.206 4.77 4.206zm6.54-.206h2.81V2.627h-2.81v11.348zm.35-11.9h1.97l1.68-2.063h-2.97z" fill="#b6c2d3" fill-rule="evenodd"/></svg><svg width="23.47" height="9.44" viewBox="-1 -1 23.47 9.44" x="54.32" y="18.88" xmlns="http://www.w3.org/2000/svg"><g data-name="Layer 2"><path d="M5.76 6.62c-1.7.71-4.35 1.52-5.46-.24-.62-1-.23-2.49.68-3.87A20.27 20.27 0 013.05 0C2.64.66 1.47 2.88 3 4a3.7 3.7 0 002.94.13l15.53-4z" data-name="Layer 1"/></g></svg><svg width="87.83" height="9.43" viewBox="-1 -1 87.83 9.43" xmlns="http://www.w3.org/2000/svg"><g data-name="Layer 2"><path d="M47.42 6.74v.63s0 .06-.07.06H36.69V6.17a.09.09 0 010-.08L45.15.88c.1-.06.05-.14 0-.14h-8.28V0h10.34v1.2a.1.1 0 010 .08L38.7 6.54c-.07 0-.07.15.06.15h8.6s.06.01.06.05zm12.24-4.39v2.74c0 1.32-1 2.34-3.56 2.34h-4.92c-2.54 0-3.4-1-3.4-2.34V2.35c0-1.15.9-2.35 3.4-2.35h4.92c2.51 0 3.56 1.2 3.56 2.35zm-1.92-.44c0-.68-.56-1.17-1.45-1.17H51c-.89 0-1.28.45-1.28 1.17v3.62c0 .69.4 1.16 1.28 1.16h5.3c.89 0 1.45-.47 1.45-1.16zm14.65.44v2.74c0 1.32-1 2.34-3.56 2.34H63.9c-2.53 0-3.39-1-3.39-2.34V2.35C60.51 1.2 61.4 0 63.9 0h4.93c2.5 0 3.56 1.2 3.56 2.35zm-1.93-.44c0-.68-.55-1.17-1.45-1.17h-5.29c-.9 0-1.28.45-1.28 1.17v3.62c0 .69.39 1.16 1.28 1.16H69c.9 0 1.45-.47 1.45-1.16zm10.59 5.52H78a.11.11 0 01-.1-.07L75.35.8a.1.1 0 00-.11-.07.08.08 0 00-.08.08v6.57h-1.88V.05h3.46a.1.1 0 01.11.07l2.65 6.64a.11.11 0 00.2 0L82.24.07a.13.13 0 01.12-.07h3.4a.07.07 0 01.07.06v7.31a.07.07 0 01-.07.06H84a.06.06 0 01-.06-.06V.81a.07.07 0 00-.08-.08.1.1 0 00-.1.06l-2.62 6.57a.1.1 0 01-.09.07zM8.47 0C3.8 0 0 3.25 0 7.19a.27.27 0 00.29.24H5a.28.28 0 00.3-.24 3 3 0 013.17-2.71 3 3 0 013.21 2.71.27.27 0 00.29.24h4.67a.27.27 0 00.29-.24C16.93 3.25 13.14 0 8.47 0m9.34.78a.27.27 0 00-.29.25v6.16a.27.27 0 00.29.24h4.67a.27.27 0 00.29-.24V1a.27.27 0 00-.29-.25zm5.55 6.41a.27.27 0 00.29.24h4.67a.27.27 0 00.29-.24 3 3 0 013.22-2.71.27.27 0 00.29-.25V.29a.27.27 0 00-.29-.29c-4.67 0-8.47 3.21-8.47 7.15z" data-name="Layer 1"/></g></svg><svg width="54.32" height="12.85" viewBox="-1 -1 54.32 12.85" y="18.88" xmlns="http://www.w3.org/2000/svg"><g data-name="Layer 2"><path d="M0 .36V0h3.8a3.9 3.9 0 011.38.19A1.62 1.62 0 016 .8a1.73 1.73 0 01.28 1 2.13 2.13 0 01-.24 1 2.16 2.16 0 01-.68.8 2.92 2.92 0 01-.96.4 2.48 2.48 0 01-.75.1 3.45 3.45 0 01-.76-.1l-.12-.4a3.93 3.93 0 00.77.1 1.67 1.67 0 00.79-.19 1.46 1.46 0 00.58-.6A1.91 1.91 0 005.12 2a1.76 1.76 0 00-.21-.85A1.26 1.26 0 004.3.6a2.27 2.27 0 00-1-.2 4 4 0 00-1.12.19c0 .38-.05 1-.05 1.81v4.2a1.49 1.49 0 00.08.61.35.35 0 00.2.15 3.71 3.71 0 00.8 0v.35h-1.5L0 7.76v-.35a3.66 3.66 0 00.79 0A.35.35 0 001 7.23a1.21 1.21 0 00.09-.53V1.17A1.71 1.71 0 001 .56.38.38 0 00.8.42 4.27 4.27 0 000 .36zm11.18 6.56l-.18.39a4 4 0 01-.56.31 3.69 3.69 0 01-.59.2 3.22 3.22 0 01-.71.08 2.84 2.84 0 01-1.31-.31 2.08 2.08 0 01-.92-.89 2.87 2.87 0 01-.33-1.4 3.31 3.31 0 01.18-1.13 2.16 2.16 0 01.39-.75 2.62 2.62 0 01.5-.4 3.66 3.66 0 01.67-.36 2.42 2.42 0 01.94-.18 2.32 2.32 0 011.12.28 1.78 1.78 0 01.73.76 2.52 2.52 0 01.23 1.08v.38a5.29 5.29 0 01-.71.09H7.64a2.8 2.8 0 00.27 1.26 1.7 1.7 0 00.72.71 2.06 2.06 0 001 .23 2.18 2.18 0 00.67-.1 6.33 6.33 0 00.83-.39zM7.64 4.68h2.72v-.2A1.91 1.91 0 0010 3.25a1.2 1.2 0 00-1-.4 1.24 1.24 0 00-1 .44 2.06 2.06 0 00-.36 1.39zm9.97-1.74v.1c-.14.21-.24.36-.28.44h-1a1.6 1.6 0 01.13.61 1.65 1.65 0 01-.22.81 1.86 1.86 0 01-.64.67 2.33 2.33 0 01-.89.38 3.8 3.8 0 01-.83.06 3 3 0 00-.46.42.43.43 0 00-.06.22.4.4 0 00.08.23.55.55 0 00.26.12 4.3 4.3 0 00.88.06h1.19a2.17 2.17 0 01.95.16 1 1 0 01.48.49 1.79 1.79 0 01.15.75A2.1 2.1 0 0117 9.6a2.55 2.55 0 01-1.11.92 3.94 3.94 0 01-1.64.33 3.36 3.36 0 01-1.3-.23 1.76 1.76 0 01-.79-.63 1.5 1.5 0 01-.26-.82 1.33 1.33 0 01.1-.45 1.72 1.72 0 01.25-.45 5.23 5.23 0 001-.54 1.53 1.53 0 01-.58-.28.35.35 0 01-.13-.26 2.73 2.73 0 01.16-.59c.18-.15.47-.36.85-.63a2.62 2.62 0 01-.76-.32 1.21 1.21 0 01-.42-.5 1.58 1.58 0 01-.15-.69 1.77 1.77 0 01.29-1 2 2 0 011-.72 3.49 3.49 0 011.26-.27 2.18 2.18 0 01.72.12A2.27 2.27 0 0116 3zm-2.9 4.88a10.11 10.11 0 00-1 0 .5.5 0 00-.24.11 5.08 5.08 0 00-.46.33.88.88 0 00-.13.23 1.88 1.88 0 00-.11.62 1.26 1.26 0 00.45 1 1.82 1.82 0 001.24.39 2.32 2.32 0 001.06-.23 1.63 1.63 0 00.73-.63 1.5 1.5 0 00.25-.81 1.36 1.36 0 00-.11-.53.71.71 0 00-.25-.3.93.93 0 00-.36-.17zm-1.62-3.66a2 2 0 00.15.76 1.14 1.14 0 00.43.55 1.18 1.18 0 00.65.18 1.31 1.31 0 00.84-.3 1.2 1.2 0 00.36-1 1.6 1.6 0 00-.36-1.1 1.15 1.15 0 00-.88-.4 1.14 1.14 0 00-.86.33 1.29 1.29 0 00-.33.98zM18.75 4h-.29v-.76a6.28 6.28 0 011.14-.61 2.35 2.35 0 01.77-.11 2.16 2.16 0 011.06.23 1.48 1.48 0 01.64.67 1.93 1.93 0 01.14.84v2.62a1.16 1.16 0 000 .38.23.23 0 00.1.12.73.73 0 00.23 0h.36v.31h-1.68v-1c-.75.56-1.19.88-1.33 1a1.19 1.19 0 01-.53.11 1.41 1.41 0 01-1-.36 1.21 1.21 0 01-.36-.87 1.93 1.93 0 01.13-.69 1.53 1.53 0 01.31-.49 1.64 1.64 0 01.37-.27 5.74 5.74 0 011-.32 12.25 12.25 0 011.43-.25 2 2 0 00-.13-.81 1 1 0 00-.44-.47 1.44 1.44 0 00-.77-.19 1.62 1.62 0 00-.57.09.87.87 0 00-.3.15l-.1.19c-.06.22-.13.39-.18.49zm2.53.85a10 10 0 00-1.22.27 2.27 2.27 0 00-.72.31.67.67 0 00-.22.27 1.28 1.28 0 00-.15.61.8.8 0 00.86.86 1.43 1.43 0 00.73-.17 2.9 2.9 0 00.72-.63zm2.21 1.27h.33a3.34 3.34 0 000 .5A1.61 1.61 0 0024 7a.69.69 0 00.2.3 1 1 0 00.3.19 1 1 0 00.33.09 3.56 3.56 0 00.51 0 1.4 1.4 0 00.93-.29 1 1 0 00.36-.81.75.75 0 00-.11-.4.73.73 0 00-.33-.27 4.75 4.75 0 00-.91-.26c-.47-.11-.77-.18-.91-.23a1.62 1.62 0 01-.54-.32 1.22 1.22 0 01-.29-.41 1.42 1.42 0 01-.11-.55 1.46 1.46 0 01.23-.79 1.72 1.72 0 01.72-.59 2.57 2.57 0 011.07-.23 3.64 3.64 0 01.81.1 3.25 3.25 0 01.74.27V4h-.32a3 3 0 00-.06-.53.62.62 0 00-.1-.22.69.69 0 00-.21-.21 1.48 1.48 0 00-.38-.2 1.64 1.64 0 00-.58-.09 1.09 1.09 0 00-.78.29.91.91 0 00-.29.66.84.84 0 00.08.37.92.92 0 00.23.25 1.63 1.63 0 00.41.17l.91.22a6.66 6.66 0 011 .3 1.12 1.12 0 01.42.39 1.19 1.19 0 01.16.64 1.65 1.65 0 01-.61 1.28 2.37 2.37 0 01-1.65.55 7.84 7.84 0 01-1.26-.14 1.6 1.6 0 01-.47-.12v-.14a2.57 2.57 0 00.07-.46q-.09-.18-.08-.89zm10.58 1.33v.31L33 7.73h-.83c0-.29 0-.62.05-1a8.94 8.94 0 00-.79.72.91.91 0 01-.21.15 1.72 1.72 0 01-.47.19 3.1 3.1 0 01-.57 0 2 2 0 01-.75-.12 1.32 1.32 0 01-.51-.36 1.24 1.24 0 01-.25-.47 2.73 2.73 0 01-.08-.69V3.9a2.48 2.48 0 000-.47l-.07-.09a.71.71 0 00-.3 0h-.48V3a4.76 4.76 0 001.73-.42.31.31 0 01.13 0 .09.09 0 01.07 0 .19.19 0 010 .08v.11a6.32 6.32 0 000 .67v2.24a3 3 0 00.1.94.77.77 0 00.35.43 1.28 1.28 0 00.65.16 1.66 1.66 0 001-.35 2.67 2.67 0 00.23-.34 1.59 1.59 0 00.16-.24.73.73 0 00.01-.28V3.9a1.84 1.84 0 000-.47.28.28 0 00-.07-.09.62.62 0 00-.29 0h-.48V3A4.69 4.69 0 0033 2.55a.34.34 0 01.14 0 .09.09 0 01.06 0 .11.11 0 010 .08v4.29a1.44 1.44 0 00.06.39.22.22 0 00.07.09l.14.06zm.57-1.33H35v.5a2.37 2.37 0 00.1.38.71.71 0 00.21.3 1.17 1.17 0 00.63.28 3.41 3.41 0 00.51 0 1.39 1.39 0 00.92-.29 1 1 0 00.36-.81.67.67 0 00-.11-.4.66.66 0 00-.32-.27 4.93 4.93 0 00-.92-.26c-.47-.11-.77-.18-.9-.23A1.5 1.5 0 0135 5a1.09 1.09 0 01-.29-.41 1.26 1.26 0 01-.11-.55 1.38 1.38 0 01.23-.79 1.6 1.6 0 01.72-.59 2.5 2.5 0 011.07-.23 3.56 3.56 0 01.8.1 3.19 3.19 0 01.75.23c0 .41 0 .82-.06 1.24h-.31a4.39 4.39 0 00-.06-.53 1.47 1.47 0 00-.1-.22.69.69 0 00-.21-.21 1.91 1.91 0 00-.38-.2 1.64 1.64 0 00-.58-.09 1.07 1.07 0 00-.78.29.88.88 0 00-.3.66.72.72 0 00.09.37.78.78 0 00.23.25 1.54 1.54 0 00.4.17l.92.22a6.42 6.42 0 01.95.3 1.08 1.08 0 01.43.39 1.29 1.29 0 01.16.64 1.66 1.66 0 01-.62 1.28 2.37 2.37 0 01-1.65.55 8.08 8.08 0 01-1.3-.1 1.73 1.73 0 01-.47-.12.06.06 0 010-.05.31.31 0 010-.09c0-.16.05-.31.07-.46s.04-.46.04-.93zm7.23 1.47c0-.3-.1-.54-.14-.71s-.11-.41-.25-.9l.31-.11a2.68 2.68 0 00.79 1.24 2 2 0 001.18.32 1.75 1.75 0 00.89-.21 1.41 1.41 0 00.58-.66 2.13 2.13 0 00.23-1 1.61 1.61 0 00-.39-1.16A1.4 1.4 0 0044 4a1.84 1.84 0 00-.41 0 3.31 3.31 0 00-.56.19h-.07l.12-.59h.59a1.24 1.24 0 001-.47 1.65 1.65 0 00.37-1.06 1.2 1.2 0 00-.39-.9 1.36 1.36 0 00-1-.37 1.64 1.64 0 00-.65.14 1.93 1.93 0 00-.59.38c-.06.14-.17.4-.31.78h-.34l.37-1.31a2.5 2.5 0 01.69-.53A2.85 2.85 0 0144 0a2.16 2.16 0 011.47.5A1.54 1.54 0 0146 1.68a1.71 1.71 0 01-.28.93 3.5 3.5 0 01-.95.93 3 3 0 011 .28 1.37 1.37 0 01.56.56 1.67 1.67 0 01.19.81 2.28 2.28 0 01-.41 1.28 3.19 3.19 0 01-1.17 1 3.26 3.26 0 01-1.63.41 3.08 3.08 0 01-.7-.07 4 4 0 01-.74-.22zm5.59.17l-.11-.11c.13-.19.49-.75 1.09-1.69l1.46-2.33c.31-.51.74-1.23 1.28-2.16l.2-.36-.06-.06h-2.77a2.84 2.84 0 00-.68.07.2.2 0 00-.1.07l-.05.07-.16 1.19h-.32V.12l.11-.06c.29 0 .7.05 1.21.07h1.3c.46 0 1.28 0 2.46-.08v.39l-.8 1.39c-.17.31-.58 1-1.22 2.23-.46.83-.85 1.6-1.19 2.31-.26.54-.46 1-.61 1.39h-.53z" data-name="Layer 1"/></g></svg></svg>