<svg width="70" height="28" xmlns="http://www.w3.org/2000/svg" xmlns:xlink="http://www.w3.org/1999/xlink"><svg width="57.99" height="7.81" viewBox="-1 -1 113.97 13.62" y="7.88" xmlns="http://www.w3.org/2000/svg"><path data-name="CÓMPRALAS AQUÍ" d="M4.39 11.097a3.846 3.846 0 002.83-1 3.468 3.468 0 001.07-2.265H6.1a1.634 1.634 0 01-1.72 1.473c-1.32 0-2.13-1.176-2.13-2.8s.68-2.81 2.11-2.81a1.6 1.6 0 011.67 1.4h2.2A3.5 3.5 0 006.9 2.657a4.114 4.114 0 00-2.52-.78 4.618 4.618 0 00.01 9.22zm8.12-9.482h1.54L15.36.006h-2.32zm.83 7.712c-1.42 0-2.15-1.226-2.15-2.835s.73-2.847 2.15-2.847c1.44 0 2.14 1.238 2.14 2.847s-.7 2.835-2.14 2.835zm-.01 1.782a4.624 4.624 0 10-4.37-4.617 4.284 4.284 0 004.37 4.62zm5.49-.21h1.97V6.455c0-.359-.04-1.782-.04-1.782h.02s.31 1.336.41 1.658l1.27 4.568h1.8l1.28-4.58c.1-.322.41-1.646.41-1.646h.02s-.04 1.411-.04 1.77v4.456h2.01V2.048h-2.97l-1.09 3.875c-.15.557-.5 2.017-.5 2.017h-.02s-.35-1.46-.51-2.017l-1.08-3.875h-2.94v8.851zm10.57 0h2.23V7.94h2.07a2.8 2.8 0 003-2.9 2.913 2.913 0 00-.9-2.179 3.34 3.34 0 00-2.41-.817h-3.99v8.851zm2.23-4.692V3.893h1.62a1.1 1.1 0 011.24 1.139 1.114 1.114 0 01-1.24 1.175h-1.62zm6.1 4.692h2.19V7.581h1.32a1.309 1.309 0 011.48 1.263c.13.879.09 1.919.33 2.055h2.13v-.112c-.31-.111-.19-1.225-.37-2.389a1.78 1.78 0 00-1.29-1.621V6.74a2.121 2.121 0 001.54-2.142c0-1.646-1.34-2.55-3.1-2.55h-4.23v8.851zm2.19-4.939V3.781h1.69a1.106 1.106 0 11-.05 2.179h-1.64zm5.75 4.939h2.2l.51-1.6h3.09l.52 1.6h2.3l-3.19-8.851h-2.25zm3.21-3.169l.69-2.141c.14-.458.35-1.251.35-1.251h.03s.2.793.35 1.251l.66 2.141h-2.08zm6.29 3.169h6.16V9.042h-3.97V2.048h-2.19v8.851zm6.62 0h2.2l.51-1.6h3.1l.52 1.6h2.3l-3.19-8.851h-2.26zM65 7.73l.68-2.141c.15-.458.36-1.251.36-1.251h.02s.2.793.35 1.251l.67 2.141H65zm9.81 3.379c2.04 0 3.62-1.027 3.62-2.884 0-1.894-1.48-2.4-3.13-2.785-1.32-.3-2-.446-2-1.064a1.052 1.052 0 011.27-.83A1.259 1.259 0 0176 4.611h2.14c-.09-1.857-1.57-2.723-3.49-2.723-1.98 0-3.52.829-3.52 2.723 0 1.856 1.62 2.327 3.16 2.686 1.21.3 1.93.445 1.93 1.151a1.183 1.183 0 01-1.42.928c-1.06 0-1.64-.371-1.74-1.262h-2.2c.05 1.955 1.6 2.998 3.95 2.998zm6.32-.21h2.2l.51-1.6h3.09l.52 1.6h2.3l-3.19-8.851h-2.25zm3.21-3.169l.69-2.141c.14-.458.35-1.251.35-1.251h.03s.2.793.35 1.251l.66 2.141h-2.08zm10.3 1.6c-1.43 0-2.15-1.226-2.15-2.835s.72-2.847 2.15-2.847 2.12 1.238 2.12 2.847a3.782 3.782 0 01-.31 1.634l-.81-.78-1.02 1.052.81.78a2.04 2.04 0 01-.79.146zm3.32 2.29l1.02-1.077-1-.941a4.883 4.883 0 001.01-3.107 4.276 4.276 0 00-4.37-4.617c-2.67 0-4.35 1.968-4.35 4.617s1.68 4.617 4.35 4.617a4.426 4.426 0 002.23-.557zm5.79-.557c2.46 0 3.69-1.238 3.69-3.28V2.051h-2.19V7.82a1.363 1.363 0 01-1.5 1.485 1.325 1.325 0 01-1.52-1.448V2.051h-2.19v5.732c0 2.064 1.24 3.277 3.71 3.277zm5.11-.161h2.19V2.051h-2.19v8.851zm.27-9.284h1.53l1.31-1.609h-2.31z" fill="#b6c2d3" fill-rule="evenodd"/></svg><svg width="18.96" height="7.88" viewBox="-1 -1 18.96 7.88" x="47.75" y="15.69" xmlns="http://www.w3.org/2000/svg"><g data-name="Layer 2"><path d="M4.55 5.23c-1.34.56-3.44 1.2-4.31-.18C-.25 4.28.06 3.08.78 2a15 15 0 011.63-2c-.33.52-1.25 2.28 0 3.15a2.92 2.92 0 002.32.11L17 .05z" data-name="Layer 1"/></g></svg><svg width="69.78" height="7.88" viewBox="-1 -1 69.78 7.88" xmlns="http://www.w3.org/2000/svg"><g data-name="Layer 2"><path d="M37.45 5.33v.5a.06.06 0 01-.06 0h-8.44v-1a.07.07 0 010-.06L35.66.7c.07 0 0-.11 0-.11h-6.5V0h8.16v1a.06.06 0 010 .06l-6.76 4.11s0 .12.05.12h6.79s.05.01.05.04zm9.67-3.47V4c0 1.05-.83 1.86-2.82 1.86h-3.88c-2 0-2.68-.81-2.68-1.86V1.86c0-.91.7-1.86 2.68-1.86h3.88c1.98 0 2.82 1 2.82 1.86zm-1.53-.35c0-.54-.43-.92-1.14-.92h-4.18c-.71 0-1 .35-1 .92v2.86c0 .54.31.92 1 .92h4.18c.71 0 1.14-.38 1.14-.92zm11.57.35V4c0 1.05-.82 1.86-2.81 1.86h-3.88c-2 0-2.69-.81-2.69-1.86V1.86c0-.86.71-1.86 2.69-1.86h3.88c1.98 0 2.81 1 2.81 1.86zm-1.52-.35c0-.54-.43-.92-1.14-.92h-4.18c-.71 0-1 .35-1 .92v2.86c0 .54.31.92 1 .92h4.18c.71 0 1.14-.38 1.14-.92zM64 5.88h-2.4a.08.08 0 01-.08-.06L59.5.63a.08.08 0 00-.08-.05.07.07 0 00-.07.06v5.2h-1.48V0h2.73s.08 0 .09.05l2.05 5.25a.09.09 0 00.16 0L65 .05V0h2.68a.06.06 0 01.06.05v5.78a.06.06 0 01-.06 0H66.3V.64s0-.06-.07-.06a.07.07 0 00-.07.05l-2 5.19a.09.09 0 01-.16.06zM6.69 0C3 0 0 2.57 0 5.68a.22.22 0 00.23.2h3.69a.22.22 0 00.23-.2 2.37 2.37 0 012.54-2.14 2.36 2.36 0 012.53 2.14.22.22 0 00.23.2h3.69a.22.22 0 00.23-.2c0-3.11-3-5.65-6.68-5.65m7.38.59a.22.22 0 00-.24.19v4.87a.22.22 0 00.24.2h3.68a.22.22 0 00.24-.2V.81a.22.22 0 00-.24-.19zm4.38 5.06a.22.22 0 00.23.2h3.69a.22.22 0 00.23-.2 2.36 2.36 0 012.53-2.14.22.22 0 00.23-.2V.23a.22.22 0 00-.23-.2c-3.68 0-6.68 2.54-6.68 5.65z" data-name="Layer 1"/></g></svg><svg width="47.75" height="11.5" viewBox="-1 -1 47.75 11.5" y="15.69" xmlns="http://www.w3.org/2000/svg"><g data-name="Layer 2"><path d="M0 .32V0h3.33a3.48 3.48 0 011.2.17 1.46 1.46 0 01.69.53 1.47 1.47 0 01.24.83 1.85 1.85 0 01-.2.84 1.92 1.92 0 01-.6.7 2.62 2.62 0 01-.81.42 2.71 2.71 0 01-.66.08 4.06 4.06 0 01-.67-.06l-.1-.36a3.53 3.53 0 00.68.09 1.41 1.41 0 00.69-.17 1.22 1.22 0 00.5-.53 1.65 1.65 0 00.18-.77A1.52 1.52 0 004.3 1a1.14 1.14 0 00-.54-.5 1.93 1.93 0 00-.87-.15 3.31 3.31 0 00-1 .17v5.25a1.39 1.39 0 00.11.54.28.28 0 00.18.13 3.44 3.44 0 00.69 0v.36H0v-.31a3.67 3.67 0 00.7 0 .32.32 0 00.17-.11 1.23 1.23 0 00.07-.46V2.3C1 1.86 1 1.44 1 1A1.7 1.7 0 00.88.49.29.29 0 00.7.37 2.89 2.89 0 000 .32zm9.77 5.74l-.15.34a2.92 2.92 0 01-.49.27 2.27 2.27 0 01-.52.17 2.43 2.43 0 01-.61.07 2.53 2.53 0 01-1.15-.26A1.87 1.87 0 016 5.86a2.5 2.5 0 01-.28-1.22 3 3 0 01.15-1A1.82 1.82 0 016.26 3a2.62 2.62 0 01.43-.35 3.66 3.66 0 01.58-.31 2.27 2.27 0 01.83-.16 1.91 1.91 0 011 .25 1.51 1.51 0 01.64.66 2.24 2.24 0 01.2 1v.33a5.56 5.56 0 01-.62.08H6.68a2.5 2.5 0 00.24 1.11 1.4 1.4 0 00.63.62 1.92 1.92 0 00.84.2A2 2 0 009 6.32 5.39 5.39 0 009.7 6zm-3.09-2h2.36C9.17 4.06 9 4 9 4a1.66 1.66 0 00-.31-1.1 1.05 1.05 0 00-.83-.36 1.09 1.09 0 00-.86.34 1.85 1.85 0 00-.32 1.22zm8.72-1.49v.09c-.13.19-.21.32-.25.39h-.9a1.33 1.33 0 01.11.53 1.43 1.43 0 01-.19.71 1.71 1.71 0 01-.55.59 2.37 2.37 0 01-.79.33 3 3 0 01-.73 0 2 2 0 00-.39.37.32.32 0 00-.05.19.31.31 0 00.07.2.31.31 0 00.21.12 3.35 3.35 0 00.77.06h1a2 2 0 01.83.14.92.92 0 01.42.43 1.51 1.51 0 01.14.65 1.83 1.83 0 01-.33 1 2.24 2.24 0 01-1 .81 3.53 3.53 0 01-1.44.29 2.75 2.75 0 01-1.13-.21 1.54 1.54 0 01-.69-.54 1.31 1.31 0 01-.12-.72 1 1 0 01.07-.39 1.31 1.31 0 01.22-.39 4.72 4.72 0 00.84-.47 1.3 1.3 0 01-.52-.23.31.31 0 01-.12-.22 2.33 2.33 0 01.12-.52c.16-.13.4-.32.74-.55a2.54 2.54 0 01-.63-.23 1.2 1.2 0 01-.36-.44 1.32 1.32 0 01-.13-.6 1.51 1.51 0 01.25-.96 1.76 1.76 0 01.84-.63 3 3 0 011.11-.24 1.87 1.87 0 01.62.1 1.85 1.85 0 01.56.32zm-2.54 4.28h-.9a.6.6 0 00-.21.09 4.24 4.24 0 00-.4.3.67.67 0 00-.11.2 1.47 1.47 0 00-.1.54 1.1 1.1 0 00.39.85 1.62 1.62 0 001.09.34 2 2 0 00.93-.2 1.45 1.45 0 00.64-.55 1.38 1.38 0 00.21-.71 1.24 1.24 0 00-.09-.46.72.72 0 00-.19-.25 1 1 0 00-.32-.15c-.07.01-.39 0-.94 0zm-1.41-3.21a1.65 1.65 0 00.13.66 1 1 0 00.37.49 1.11 1.11 0 00.57.16 1.08 1.08 0 00.73-.27 1 1 0 00.32-.85 1.36 1.36 0 00-.32-1 1.06 1.06 0 00-1.52-.06 1.14 1.14 0 00-.28.87zm4.95-.12l-.26-.06v-.62a4.86 4.86 0 011-.54 2.37 2.37 0 01.68-.1 1.87 1.87 0 01.92.21 1.26 1.26 0 01.56.59 1.69 1.69 0 01.13.74V6a.85.85 0 000 .33.2.2 0 00.09.11.56.56 0 00.2 0h.32v.36a6.28 6.28 0 00-.7 0h-.77v-.84a11.11 11.11 0 01-1.17.82.9.9 0 01-.46.1 1.26 1.26 0 01-.91-.31 1.08 1.08 0 01-.33-.82 1.46 1.46 0 01.12-.6 1.25 1.25 0 01.59-.67 5.05 5.05 0 01.91-.28 11.31 11.31 0 011.29-.2 1.53 1.53 0 00-.11-.7 1 1 0 00-.39-.42 1.28 1.28 0 00-.67-.16 1.51 1.51 0 00-.5.07 1.16 1.16 0 00-.26.13l-.09.18c-.09.17-.15.32-.19.42zm2.21.75a8.71 8.71 0 00-1.07.24 1.8 1.8 0 00-.63.27.6.6 0 00-.19.24 1.19 1.19 0 00-.13.53.74.74 0 00.2.55.76.76 0 00.55.2 1.27 1.27 0 00.66-.18 2.64 2.64 0 00.63-.56zm1.93 1.08h.29v.44a3 3 0 00.08.32.68.68 0 00.18.26.77.77 0 00.27.17 1 1 0 00.28.08h.45a1.25 1.25 0 00.81-.26.87.87 0 00.32-.71.68.68 0 00-.1-.35.7.7 0 00-.29-.24 4.47 4.47 0 00-.8-.22c-.41-.09-.67-.16-.79-.2a1.35 1.35 0 01-.43-.25 1 1 0 01-.25-.36 1.29 1.29 0 01-.1-.48 1.22 1.22 0 01.21-.69 1.38 1.38 0 01.63-.52 2.18 2.18 0 01.93-.2 3.35 3.35 0 01.71.09 2.79 2.79 0 01.65.2c0 .36 0 .72-.05 1.08h-.28a2.31 2.31 0 00-.05-.45.61.61 0 00-.09-.2.51.51 0 00-.12-.16 1.29 1.29 0 00-.33-.18 1.53 1.53 0 00-.51-.07 1 1 0 00-.68.24.8.8 0 00-.26.59.66.66 0 00.07.32.58.58 0 00.2.21 1.22 1.22 0 00.36.15l.8.2a5.85 5.85 0 01.84.26 1 1 0 01.37.34 1.11 1.11 0 01.14.56 1.47 1.47 0 01-.54 1.13 2.09 2.09 0 01-1.46.48 7 7 0 01-1.11-.13 2 2 0 01-.41-.1.25.25 0 010-.08 2.76 2.76 0 00.06-.4c-.01-.22 0-.45 0-.87zm9.26 1.17v.28h-1a5.79 5.79 0 00-.72 0v-.87c-.19.15-.42.36-.69.62a.73.73 0 01-.18.14 1.92 1.92 0 01-.41.16 2.41 2.41 0 01-.5.05 1.83 1.83 0 01-.66-.1 1.28 1.28 0 01-.45-.32 1.13 1.13 0 01-.21-.41 2.15 2.15 0 01.02-.61 3 3 0 010-.31V3.37A1.59 1.59 0 0025 3a.13.13 0 00-.06-.07.54.54 0 00-.26-.05h-.42V2.6a4.48 4.48 0 001.51-.36.28.28 0 01.12-.05.05.05 0 01.05 0 .08.08 0 010 .07V5a2.66 2.66 0 00.08.82.67.67 0 00.31.38 1.08 1.08 0 00.56.14 1.44 1.44 0 00.46-.08 1.32 1.32 0 00.33-.26 1.54 1.54 0 00.32-.29 1.07 1.07 0 00.14-.22.71.71 0 00.05-.21V3.37a2 2 0 000-.41.13.13 0 00-.19-.03.51.51 0 00-.26-.05h-.42V2.6a4.41 4.41 0 001.51-.36.28.28 0 01.17-.05.09.09 0 01.06 0 .12.12 0 010 .07.31.31 0 010 .09v3.01C29 5.74 29 6 29 6a1 1 0 000 .35l.06.07a.33.33 0 00.12 0zm.5-1.17h.29a2.44 2.44 0 000 .44 1.16 1.16 0 00.08.32.68.68 0 00.18.26.83.83 0 00.26.17 1 1 0 00.29.08h.45a1.29 1.29 0 00.81-.26.86.86 0 00.34-.69.6.6 0 00-.1-.35.67.67 0 00-.28-.24 4.75 4.75 0 00-.8-.22c-.41-.09-.67-.16-.79-.2a1.25 1.25 0 01-.43-.25 1 1 0 01-.26-.36 1.3 1.3 0 01.11-1.17 1.38 1.38 0 01.63-.52 2.26 2.26 0 01.94-.2 3.27 3.27 0 01.7.09 2.51 2.51 0 01.65.2v1.08h-.27a3 3 0 00-.1-.45.6.6 0 00-.08-.2.76.76 0 00-.18-.18 1.2 1.2 0 00-.34-.18 1.47 1.47 0 00-.5-.07 1 1 0 00-.69.24.79.79 0 00-.25.59.66.66 0 00.04.32.58.58 0 00.2.21 1 1 0 00.35.15l.8.2a5.1 5.1 0 01.84.26.93.93 0 01.37.34 1.11 1.11 0 01.14.56 1.47 1.47 0 01-.54 1.13 2.09 2.09 0 01-1.44.48 6.91 6.91 0 01-1.1-.13 1.76 1.76 0 01-.41-.1.25.25 0 010-.08 2.73 2.73 0 00.05-.4c.02-.22.03-.45.04-.87zm6.32 1.3L36.5 6c0-.09-.1-.35-.22-.79l.26-.1a2.41 2.41 0 00.7 1.09 1.72 1.72 0 001 .29 1.55 1.55 0 00.78-.19 1.3 1.3 0 00.51-.57 2 2 0 00.2-.9 1.46 1.46 0 00-.34-1 1.26 1.26 0 00-.93-.35 1.34 1.34 0 00-.35 0 2.66 2.66 0 00-.5.17h-.06l.11-.52h.51a1.08 1.08 0 00.91-.41 1.43 1.43 0 00.33-.93A1.08 1.08 0 0039.1 1a1.24 1.24 0 00-.87-.3 1.53 1.53 0 00-.6.12 1.75 1.75 0 00-.51.34c-.06.12-.15.34-.28.68h-.3l.3-1.15a2.33 2.33 0 01.61-.47 2.5 2.5 0 011-.21 1.89 1.89 0 011.29.43 1.35 1.35 0 01.47 1 1.52 1.52 0 01-.24.81 3.13 3.13 0 01-.84.82 2.45 2.45 0 01.86.25 1.16 1.16 0 01.49.49 1.49 1.49 0 01.17.71 2 2 0 01-.36 1.11 2.91 2.91 0 01-1 .91 3 3 0 01-1.43.36 3 3 0 01-.62-.07 3.85 3.85 0 01-.62-.18zm4.89.15l-.1-.1 1-1.48 1.27-2c.28-.45.65-1.08 1.12-1.9 0-.07.1-.17.17-.31h-2.43a2.35 2.35 0 00-.59.06.15.15 0 00-.09.06v.06l-.14 1h-.29V.15h.1l1.06.06h1.14c.4 0 1.11 0 2.14-.07v.25l-.81 1.21L44 3.55c-.4.73-.74 1.4-1 2-.23.47-.4.88-.53 1.22h-.46z" data-name="Layer 1"/></g></svg></svg>