<svg width="124" height="42" xmlns="http://www.w3.org/2000/svg" xmlns:xlink="http://www.w3.org/1999/xlink"><svg width="95.17" height="11.66" viewBox="-1 -1 188.34 21.31" y="12.58" xmlns="http://www.w3.org/2000/svg"><path data-name="CÓMPRALAS AQUÍ" d="M7.27 18.44a6.431 6.431 0 004.72-1.67A5.8 5.8 0 0013.76 13h-3.64a2.718 2.718 0 01-2.87 2.45c-2.18 0-3.54-1.95-3.54-4.65 0-2.68 1.13-4.68 3.52-4.68a2.657 2.657 0 012.78 2.33h3.65a5.819 5.819 0 00-2.2-4.06 6.92 6.92 0 00-4.21-1.3C2.86 3.09 0 6.41 0 10.8c0 4.41 2.95 7.64 7.27 7.64zM20.8 2.66h2.55l2.18-2.68h-3.85zm1.38 12.83c-2.37 0-3.59-2.03-3.59-4.71s1.22-4.74 3.59-4.74c2.39 0 3.56 2.06 3.56 4.74s-1.17 4.71-3.56 4.71zm-.02 2.97c4.47 0 7.29-3.27 7.29-7.68s-2.82-7.69-7.29-7.69c-4.45 0-7.28 3.28-7.28 7.69s2.83 7.68 7.28 7.68zm9.13-.35h3.28v-7.39c0-.6-.07-2.97-.07-2.97h.05s.51 2.22.68 2.76l2.1 7.6h3l2.13-7.62c.16-.54.68-2.74.68-2.74h.04s-.06 2.35-.06 2.94v7.42h3.33V3.38h-4.94L39.7 9.83c-.25.93-.83 3.36-.83 3.36h-.04s-.58-2.43-.84-3.36l-1.8-6.45h-4.9v14.73zm17.6 0h3.71v-4.92h3.44a4.655 4.655 0 004.99-4.82 4.839 4.839 0 00-1.49-3.63 5.587 5.587 0 00-4.01-1.36h-6.64v14.73zm3.71-7.81V6.45h2.7a1.823 1.823 0 012.06 1.9 1.854 1.854 0 01-2.06 1.95h-2.7zm10.15 7.81h3.64v-5.52h2.21a2.163 2.163 0 012.45 2.1c.22 1.46.16 3.19.55 3.42h3.55v-.18c-.52-.19-.31-2.04-.62-3.98a2.964 2.964 0 00-2.14-2.7v-.06a3.531 3.531 0 002.55-3.57c0-2.74-2.22-4.24-5.15-4.24h-7.04v14.73zm3.64-8.22V6.27h2.82a1.817 1.817 0 012.11 1.83c0 1.11-.75 1.79-2.19 1.79h-2.74zm9.57 8.22h3.67l.84-2.66h5.15l.87 2.66h3.83L85 3.38h-3.75zm5.36-5.27l1.13-3.57c.25-.76.6-2.08.6-2.08h.04s.33 1.32.57 2.08l1.12 3.57h-3.46zm10.45 5.27h10.26v-3.09h-6.62V3.38h-3.64v14.73zm11.03 0h3.66l.85-2.66h5.15l.86 2.66h3.84l-5.32-14.73h-3.75zm5.35-5.27l1.14-3.57c.24-.76.59-2.08.59-2.08h.04s.33 1.32.58 2.08l1.11 3.57h-3.46zm16.33 5.62c3.4 0 6.03-1.71 6.03-4.8 0-3.15-2.47-4-5.21-4.63-2.2-.5-3.34-.75-3.34-1.78 0-.82.85-1.38 2.13-1.38a2.073 2.073 0 012.36 1.78h3.57c-.15-3.09-2.62-4.54-5.81-4.54-3.3 0-5.85 1.38-5.85 4.54 0 3.09 2.7 3.87 5.25 4.47 2.02.49 3.22.74 3.22 1.91 0 1.11-1.18 1.55-2.37 1.55-1.75 0-2.72-.62-2.89-2.1h-3.66c.08 3.25 2.65 4.98 6.57 4.98zm10.51-.35h3.67l.84-2.66h5.16l.86 2.66h3.83l-5.31-14.73h-3.75zm5.36-5.27l1.13-3.57c.25-.76.6-2.08.6-2.08h.04s.33 1.32.58 2.08l1.11 3.57h-3.46zm17.13 2.65c-2.37 0-3.57-2.03-3.57-4.71s1.2-4.74 3.57-4.74c2.39 0 3.54 2.06 3.54 4.74a6.57 6.57 0 01-.51 2.72l-1.36-1.3-1.69 1.75 1.34 1.3a3.487 3.487 0 01-1.32.24zm5.54 3.82l1.69-1.8-1.67-1.56a8.087 8.087 0 001.69-5.17c0-4.41-2.8-7.69-7.27-7.69-4.45 0-7.26 3.28-7.26 7.69s2.81 7.68 7.26 7.68a7.333 7.333 0 003.7-.93zm9.63-.93c4.1 0 6.14-2.06 6.14-5.46V3.38h-3.65v9.6a2.266 2.266 0 01-2.49 2.47 2.213 2.213 0 01-2.54-2.41V3.38h-3.64v9.54c0 3.44 2.06 5.46 6.18 5.46zm8.49-.27h3.65V3.38h-3.65v14.73zm.46-15.45h2.55l2.19-2.68h-3.86z" fill="#b6c2d3" fill-rule="evenodd"/></svg><svg width="32.36" height="12.59" viewBox="-1 -1 32.36 12.59" x="75.96" y="24.24" xmlns="http://www.w3.org/2000/svg"><g data-name="Layer 2"><path d="M8.14 9.42c-2.4 1-6.15 2.16-7.72-.33-.87-1.39-.32-3.55.97-5.52A27.89 27.89 0 014.32 0c-.59.94-2.24 4.1-.08 5.68.84.6 2.32.66 4.16.19l22-5.78z" data-name="Layer 1"/></g></svg><svg width="123.34" height="12.58" viewBox="-1 -1 123.34 12.58" xmlns="http://www.w3.org/2000/svg"><g data-name="Layer 2"><path d="M67 9.59v.91s0 .08-.1.08H51.88c-.07 0-.09 0-.09-.07V8.77a.13.13 0 01.07-.11l12-7.4c.13-.09.06-.2-.07-.2H52.06v-1s0-.06.07-.06h14.61c.05 0 .07 0 .07.06v1.7a.13.13 0 01-.07.12l-12 7.43c-.1.06-.1.21.08.21H67v.07zm17.35-6.25v3.9c0 1.89-1.48 3.34-5 3.34h-7c-3.59 0-4.8-1.45-4.8-3.34v-3.9c0-1.63 1.26-3.34 4.8-3.34h7c3.51 0 5 1.71 5 3.34zm-2.72-.62c0-1-.78-1.66-2-1.66h-7.54c-1.26 0-1.81.63-1.81 1.66v5.15c0 1 .57 1.65 1.81 1.65h7.49c1.27 0 2-.68 2-1.65zm20.71.62v3.9c0 1.89-1.48 3.34-5 3.34h-7c-3.59 0-4.8-1.45-4.8-3.34v-3.9c0-1.63 1.26-3.34 4.8-3.34h7c3.5 0 5 1.71 5 3.34zm-2.72-.62c0-1-.78-1.66-2.05-1.66h-7.49c-1.26 0-1.81.63-1.81 1.66v5.15c0 1 .57 1.65 1.81 1.65h7.49c1.27 0 2.05-.68 2.05-1.65zm14.96 7.86h-4.3a.17.17 0 01-.15-.1l-3.6-9.34a.16.16 0 00-.15-.1.12.12 0 00-.12.12v9.35a.07.07 0 01-.08.07h-2.58a.06.06 0 01-.06-.06V.07s0-.07.08-.07h4.8a.17.17 0 01.17.1l3.73 9.45a.16.16 0 00.28 0L116.28.1a.15.15 0 01.16-.1h4.8a.09.09 0 01.1.08V10.5s0 .08-.1.08h-2.54a.08.08 0 01-.08-.08V1.16a.12.12 0 00-.12-.16.13.13 0 00-.13.09l-3.66 9.35a.12.12 0 01-.13.14zM12 .06C5.37.06 0 4.62 0 10.23a.38.38 0 00.41.35H7a.38.38 0 00.41-.35c0-2.13 2-3.86 4.54-3.86s4.54 1.73 4.54 3.86a.39.39 0 00.41.35h6.61a.38.38 0 00.41-.35C23.94 4.62 18.57.06 12 .06m13.18 1.05a.38.38 0 00-.41.35v8.77a.38.38 0 00.41.35h6.61a.39.39 0 00.41-.35V1.46a.39.39 0 00-.41-.35zM33 10.23a.39.39 0 00.42.35H40a.38.38 0 00.41-.35c0-2.13 2-3.86 4.55-3.86a.38.38 0 00.45-.37V.41A.39.39 0 0045 .06c-6.61 0-12 4.56-12 10.17z" data-name="Layer 1"/></g></svg><svg width="75.96" height="17.44" viewBox="-1 -1 75.96 17.44" y="24.24" xmlns="http://www.w3.org/2000/svg"><g data-name="Layer 2"><path d="M0 .51V0h5.38a5.71 5.71 0 012 .27 2.22 2.22 0 011.1.87 2.33 2.33 0 01.4 1.35 3.06 3.06 0 01-.38 1.36A3.2 3.2 0 017.54 5a4.33 4.33 0 01-1.32.67 3.83 3.83 0 01-1.06.14 6.09 6.09 0 01-1.08-.11l-.16-.58A5.43 5.43 0 005 5.27 2.29 2.29 0 006.12 5a1.93 1.93 0 00.82-.85 2.66 2.66 0 00.29-1.26A2.54 2.54 0 007 1.67a1.87 1.87 0 00-.92-.82A3.34 3.34 0 004.67.57a5.3 5.3 0 00-1.59.27C3 1.39 3 2.25 3 3.42v5.97a2.45 2.45 0 00.12.87.46.46 0 00.29.21 5.9 5.9 0 001.12.08v.5C3.6 11 2.89 11 2.44 11L0 11.05v-.5a5.9 5.9 0 001.12-.08.46.46 0 00.28-.18 1.77 1.77 0 00.12-.76V1.67a2.55 2.55 0 00-.1-.87.59.59 0 00-.29-.21A6 6 0 000 .51zm15.8 9.34l-.25.55a7.3 7.3 0 01-.79.45 4.15 4.15 0 01-.84.27 4 4 0 01-1 .12 4 4 0 01-1.86-.43 3 3 0 01-1.3-1.28 4.09 4.09 0 01-.46-2 5 5 0 01.24-1.61 3.13 3.13 0 01.56-1.06 3.83 3.83 0 01.7-.57 4.66 4.66 0 01.95-.51 3.43 3.43 0 011.33-.26 3.09 3.09 0 011.58.4 2.41 2.41 0 011 1.08A3.48 3.48 0 0116 6.55v.53a8.82 8.82 0 01-1 .14c-.57 0-1.13.06-1.69.06H10.8a3.87 3.87 0 00.39 1.8 2.22 2.22 0 001 1 2.93 2.93 0 001.35.33 3.14 3.14 0 00.95-.15 6.57 6.57 0 001.17-.56zm-5-3.19h3.8v-.29a2.69 2.69 0 00-.5-1.79A1.68 1.68 0 0012.76 4a1.77 1.77 0 00-1.42.63 3 3 0 00-.54 2.03zm14.09-2.48l.06.14q-.3.46-.39.63H23.1a2.42 2.42 0 01.18.87A2.34 2.34 0 0123 7a2.73 2.73 0 01-.9 1 3.35 3.35 0 01-1.26.54 5.47 5.47 0 01-1.18.08 3.53 3.53 0 00-.64.6.58.58 0 00-.08.31.51.51 0 00.11.33.63.63 0 00.35.2 5.74 5.74 0 001.24.09h1.69a3 3 0 011.34.23 1.39 1.39 0 01.67.7 2.38 2.38 0 01.22 1 2.94 2.94 0 01-.56 1.58A3.57 3.57 0 0122.44 15a5.62 5.62 0 01-2.32.47 4.62 4.62 0 01-1.84-.33 2.49 2.49 0 01-1.12-.89A2.17 2.17 0 0116.8 13a2 2 0 01.1-.64 2.82 2.82 0 01.36-.64 7.36 7.36 0 001.37-.72 2.43 2.43 0 01-.84-.39.56.56 0 01-.18-.38 4.33 4.33 0 01.23-.83c.26-.22.66-.52 1.21-.91A3.47 3.47 0 0118 8a1.65 1.65 0 01-.59-.71 2.24 2.24 0 01-.21-1 2.56 2.56 0 01.4-1.42 2.88 2.88 0 011.37-1 4.74 4.74 0 011.78-.39 2.86 2.86 0 011 .17 3.06 3.06 0 01.91.51zm-4.1 7a13.9 13.9 0 00-1.45 0 .71.71 0 00-.34.15l-.66.48a1.44 1.44 0 00-.17.32A2.48 2.48 0 0018 13a1.76 1.76 0 00.63 1.38 2.55 2.55 0 001.77.62 3.44 3.44 0 001.51-.33 2.48 2.48 0 001-.91 2.18 2.18 0 00.34-1.14 1.78 1.78 0 00-.15-.76 1.07 1.07 0 00-.31-.4 1.37 1.37 0 00-.5-.24c-.1-.07-.61-.08-1.5-.09zm-2.28-5.26a3.08 3.08 0 00.2 1.08 1.73 1.73 0 00.61.78 1.62 1.62 0 00.92.26 1.8 1.8 0 001.19-.43 1.7 1.7 0 00.51-1.38 2.27 2.27 0 00-.51-1.56 1.7 1.7 0 00-2.43-.1 1.86 1.86 0 00-.49 1.35zm8-.19l-.42-.11V4.61a8.08 8.08 0 011.63-.87 3.31 3.31 0 011.08-.16 3.14 3.14 0 011.5.33 2.09 2.09 0 01.9 1 2.76 2.76 0 01.21 1.19v3.69a1.67 1.67 0 00.07.54.35.35 0 00.15.17.84.84 0 00.32.06h.51V11H31.3c-.32 0-.73 0-1.25.06V9.69A22.51 22.51 0 0128.2 11a1.67 1.67 0 01-.75.15 2.06 2.06 0 01-1.47-.5 1.75 1.75 0 01-.53-1.33 2.41 2.41 0 01.19-1 2 2 0 01.44-.7 1.82 1.82 0 01.52-.39 8.29 8.29 0 011.47-.45 16.12 16.12 0 012-.35 2.91 2.91 0 00-.18-1.15 1.58 1.58 0 00-.63-.68 2.07 2.07 0 00-1.09-.26 2.51 2.51 0 00-.81.12 1.1 1.1 0 00-.42.21l-.12.33c-.14.31-.25.55-.31.73zM30.09 7a14 14 0 00-1.73.38 3.38 3.38 0 00-1 .43 1.09 1.09 0 00-.31.4 1.79 1.79 0 00-.2.86A1.11 1.11 0 0028 10.24a2 2 0 001-.3 4.27 4.27 0 001-.89zm3.12 1.7h.47a6.42 6.42 0 000 .72 2.27 2.27 0 00.14.51 1 1 0 00.28.43 1.41 1.41 0 00.43.27 1.57 1.57 0 00.47.13 6.32 6.32 0 00.72 0 2 2 0 001.31-.42 1.41 1.41 0 00.51-1.15 1.11 1.11 0 00-.16-.57 1 1 0 00-.38-.36 8.49 8.49 0 00-1.29-.36c-.66-.15-1.09-.26-1.28-.33a2.11 2.11 0 01-.7-.4 1.6 1.6 0 01-.41-.59 1.92 1.92 0 01-.15-.77 2.12 2.12 0 01.32-1.13 2.28 2.28 0 011-.84A3.51 3.51 0 0136 3.52a5.76 5.76 0 011.14.13 4.62 4.62 0 011 .34c0 .58-.06 1.16-.08 1.76h-.44a5.74 5.74 0 00-.05-.75 1.55 1.55 0 00-.14-.32 1.4 1.4 0 00-.3-.3 2.26 2.26 0 00-.54-.28 2.39 2.39 0 00-.81-.1 1.53 1.53 0 00-1.11.4 1.27 1.27 0 00-.42 1 1.08 1.08 0 00.12.52 1.1 1.1 0 00.33.35 1.94 1.94 0 00.57.24l1.29.32a8.54 8.54 0 011.36.43 1.38 1.38 0 01.59.56 1.72 1.72 0 01.23.9 2.39 2.39 0 01-.87 1.83 3.37 3.37 0 01-2.33.78 11.11 11.11 0 01-1.79-.2 2.77 2.77 0 01-.66-.17.08.08 0 010-.07.93.93 0 010-.14c0-.22.07-.44.09-.65s.02-.72.03-1.4zm14.96 1.91v.44C47.49 11 47 11 46.62 11s-.77 0-1.17.06c0-.42.06-.89.07-1.41a12.42 12.42 0 00-1.11 1 1.31 1.31 0 01-.29.22 3.36 3.36 0 01-.67.27 3.83 3.83 0 01-.81.08 2.88 2.88 0 01-1-.17 1.81 1.81 0 01-.73-.52 1.58 1.58 0 01-.35-.67 3.45 3.45 0 01-.12-1 4.18 4.18 0 010-.51V5.57a2.65 2.65 0 00-.07-.67.23.23 0 00-.1-.12.79.79 0 00-.41-.08h-.68v-.47a6.73 6.73 0 002.43-.6.59.59 0 01.2-.07.18.18 0 01.09 0 .21.21 0 010 .12v.15c0 .17 0 .49-.06 1v3.25a4.91 4.91 0 00.13 1.33 1.17 1.17 0 00.5.62 1.74 1.74 0 00.92.23 2.35 2.35 0 00.74-.13 2.3 2.3 0 00.67-.37 3 3 0 00.45-.48 1.81 1.81 0 00.22-.35 1 1 0 00.07-.35V5.57a3.24 3.24 0 00-.07-.67.29.29 0 00-.1-.12.83.83 0 00-.42-.08h-.68v-.47a6.86 6.86 0 002.44-.6.56.56 0 01.19-.07.13.13 0 01.09 0 .16.16 0 010 .12.86.86 0 010 .15v5.98a1.57 1.57 0 00.08.57.4.4 0 00.1.12.42.42 0 00.19.08zM49 8.7h.47a6.42 6.42 0 000 .72 2.27 2.27 0 00.14.51 1 1 0 00.28.43 1.41 1.41 0 00.43.27 1.57 1.57 0 00.47.13 6.32 6.32 0 00.72 0 2 2 0 001.31-.42 1.41 1.41 0 00.51-1.15 1.11 1.11 0 00-.16-.57 1 1 0 00-.46-.39 8.49 8.49 0 00-1.29-.36c-.66-.15-1.09-.26-1.28-.33a2.11 2.11 0 01-.7-.4 1.6 1.6 0 01-.41-.59 1.92 1.92 0 01-.15-.77 2.12 2.12 0 01.32-1.13 2.28 2.28 0 011-.84 3.51 3.51 0 011.52-.32 5.76 5.76 0 011.14.13A4.62 4.62 0 0154 4c0 .58-.06 1.16-.08 1.76h-.44a5.74 5.74 0 00-.14-.76 1.55 1.55 0 00-.14-.32 1.4 1.4 0 00-.3-.3 2.26 2.26 0 00-.54-.28 2.39 2.39 0 00-.81-.1 1.53 1.53 0 00-1.11.4 1.27 1.27 0 00-.42 1 1.08 1.08 0 00.12.52 1.1 1.1 0 00.33.35 1.94 1.94 0 00.57.24l1.29.32a8.54 8.54 0 011.36.43 1.38 1.38 0 01.59.56 1.72 1.72 0 01.23.9 2.39 2.39 0 01-.87 1.83 3.37 3.37 0 01-2.33.78 11.11 11.11 0 01-1.79-.2 2.77 2.77 0 01-.66-.17.08.08 0 010-.07.93.93 0 010-.14c0-.22.07-.44.09-.65s.05-.72.05-1.4zm10.19 2.11c-.07-.44-.14-.78-.19-1l-.35-1.28.43-.16a3.7 3.7 0 001.12 1.76 2.76 2.76 0 001.66.47 2.45 2.45 0 001.26-.3 2.14 2.14 0 00.88-.96 3.12 3.12 0 00.32-1.45 2.31 2.31 0 00-.55-1.66 2 2 0 00-1.49-.58 2.65 2.65 0 00-.58.06 8.09 8.09 0 00-.8.28l-.1-.07.17-.84h.84a1.75 1.75 0 001.47-.67A2.34 2.34 0 0063.75 3a1.72 1.72 0 00-.55-1.29 1.94 1.94 0 00-1.39-.53 2.37 2.37 0 00-1 .21 2.7 2.7 0 00-.83.54c-.09.2-.24.57-.44 1.11h-.48l.48-1.86a3.63 3.63 0 011-.77A4.14 4.14 0 0162.2 0a2.94 2.94 0 012.08.7 2.15 2.15 0 01.77 1.68 2.44 2.44 0 01-.4 1.31A4.61 4.61 0 0163.3 5a4 4 0 011.4.4 2 2 0 01.79.8 2.44 2.44 0 01.27 1.15 3.19 3.19 0 01-.59 1.81 4.49 4.49 0 01-1.65 1.48 4.76 4.76 0 01-2.3.58 5.13 5.13 0 01-1-.1 7 7 0 01-1.03-.31zm7.91.24l-.16-.16c.18-.27.7-1.07 1.55-2.4l2.06-3.33c.44-.72 1-1.75 1.81-3.07.06-.12.16-.29.28-.51l-.08-.08h-3.93a4.07 4.07 0 00-.95.09.44.44 0 00-.15.1l-.06.1-.23 1.69h-.46V.2l.16-.07c.42 0 1 .07 1.71.1l1.84.05c.65 0 1.81 0 3.47-.11v.46l-1.12 2C72.6 3 72 4.09 71.11 5.78c-.64 1.18-1.2 2.27-1.68 3.29-.36.77-.65 1.43-.86 2a7.41 7.41 0 00-.75 0 6.24 6.24 0 00-.72-.02z" data-name="Layer 1"/></g></svg></svg>